<svg xmlns="http://www.w3.org/2000/svg" width="54.569" height="54.568" viewBox="0 0 54.569 54.568">
  <g id="Group_62962" data-name="Group 62962" transform="translate(-934.094 -1670.588)">
    <g id="Group_62531" data-name="Group 62531" transform="translate(951.169 1670.588)">
      <path id="Path_21848" data-name="Path 21848" d="M3.993,10.662l-10.218-25.3A26.435,26.435,0,0,1,3.993-16.622Z" transform="translate(6.225 16.622)" fill="#d8d8da"/>
    </g>
    <g id="Group_62532" data-name="Group 62532" transform="translate(934.094 1672.574)">
      <path id="Path_21849" data-name="Path 21849" d="M10.666,9.886l-26.347,7.061A27.169,27.169,0,0,1,.448-15.412Z" transform="translate(16.628 15.412)" fill="#d8d8da"/>
    </g>
    <g id="Group_62533" data-name="Group 62533" transform="translate(935.041 1697.872)">
      <path id="Path_21850" data-name="Path 21850" d="M10.3,0-4.159,23.139A26.148,26.148,0,0,1-16.051,7.061Z" transform="translate(16.051)" fill="#d8d8da"/>
    </g>
    <g id="Group_62534" data-name="Group 62534" transform="translate(946.933 1670.588)">
      <path id="Path_21851" data-name="Path 21851" d="M5.648,10.662V-16.622a27.284,27.284,0,0,1,0,54.568A25.768,25.768,0,0,1-8.806,33.8Z" transform="translate(8.806 16.622)" fill="#0546a5"/>
    </g>
    <g id="Group_62535" data-name="Group 62535" transform="translate(942.687 1679.179)">
      <path id="Path_21852" data-name="Path 21852" d="M14.324,5.292A18.687,18.687,0,0,0-8.791-7.521,18.689,18.689,0,0,0-21.6,15.593,18.686,18.686,0,0,0,1.512,28.4,18.685,18.685,0,0,0,14.324,5.292" transform="translate(22.331 8.25)" fill="#fff"/>
    </g>
    <path id="Path_22270" data-name="Path 22270" d="M4.59.15A6.172,6.172,0,0,1,3.233,0,6.075,6.075,0,0,1,1.988-.42a4.359,4.359,0,0,1-1-.63l.63-1.47a5.3,5.3,0,0,0,1.425.788A4.472,4.472,0,0,0,4.56-1.47a2.107,2.107,0,0,0,1.477-.488A1.692,1.692,0,0,0,6.57-3.27a1.851,1.851,0,0,0-.51-1.358,1.87,1.87,0,0,0-1.395-.517A2.612,2.612,0,0,0,3.51-4.9a2.791,2.791,0,0,0-.93.758H1.29v-6.435h6.5v1.59H3.165v3.36h-.5A2.547,2.547,0,0,1,3.7-6.435,3.435,3.435,0,0,1,5.115-6.72a3.442,3.442,0,0,1,1.747.427A2.992,2.992,0,0,1,8.017-5.108,3.628,3.628,0,0,1,8.43-3.345a3.517,3.517,0,0,1-.465,1.822A3.194,3.194,0,0,1,6.638-.293,4.433,4.433,0,0,1,4.59.15Zm9.525,0a3.888,3.888,0,0,1-2.227-.623,3.858,3.858,0,0,1-1.4-1.793,7.469,7.469,0,0,1-.48-2.835,7.7,7.7,0,0,1,.54-3.053,4.17,4.17,0,0,1,1.56-1.913,4.4,4.4,0,0,1,2.445-.66,4.536,4.536,0,0,1,1.117.142,4.879,4.879,0,0,1,1.065.4,3.852,3.852,0,0,1,.892.637L17-8.1A3.785,3.785,0,0,0,15.8-8.858a3.52,3.52,0,0,0-1.283-.247,2.768,2.768,0,0,0-1.155.225,2.14,2.14,0,0,0-.84.69,3.235,3.235,0,0,0-.517,1.148,6.5,6.5,0,0,0-.172,1.582v1.125h-.18a3.094,3.094,0,0,1,.5-1.312,2.549,2.549,0,0,1,.975-.84,2.993,2.993,0,0,1,1.342-.292,3.022,3.022,0,0,1,1.62.435,3.062,3.062,0,0,1,1.11,1.2A3.694,3.694,0,0,1,17.61-3.39a3.742,3.742,0,0,1-.443,1.837A3.186,3.186,0,0,1,15.938-.3,3.609,3.609,0,0,1,14.115.15Zm-.1-1.53a1.859,1.859,0,0,0,.953-.24A1.629,1.629,0,0,0,15.6-2.3a2.191,2.191,0,0,0,.225-1.02,2.191,2.191,0,0,0-.225-1.02,1.7,1.7,0,0,0-.63-.683,1.805,1.805,0,0,0-.96-.247,1.859,1.859,0,0,0-.952.24,1.619,1.619,0,0,0-.638.682A2.238,2.238,0,0,0,12.2-3.315a2.133,2.133,0,0,0,.233,1.02,1.694,1.694,0,0,0,.637.675A1.819,1.819,0,0,0,14.01-1.38ZM23.07.42,21.84-.3,28.02-11l1.215.72ZM21.78-4.26a2.584,2.584,0,0,1-1.44-.39,2.454,2.454,0,0,1-.915-1.118A4.341,4.341,0,0,1,19.11-7.5a3.627,3.627,0,0,1,.7-2.363,2.4,2.4,0,0,1,1.965-.863,2.584,2.584,0,0,1,1.44.39,2.459,2.459,0,0,1,.915,1.11A4.286,4.286,0,0,1,24.45-7.5a4.341,4.341,0,0,1-.315,1.732A2.454,2.454,0,0,1,23.22-4.65,2.584,2.584,0,0,1,21.78-4.26Zm0-1.26a.937.937,0,0,0,.84-.488,2.914,2.914,0,0,0,.3-1.492,2.87,2.87,0,0,0-.3-1.485.94.94,0,0,0-.84-.48.943.943,0,0,0-.84.472,2.864,2.864,0,0,0-.3,1.493,2.908,2.908,0,0,0,.3,1.5A.94.94,0,0,0,21.78-5.52ZM29.31.15a2.584,2.584,0,0,1-1.44-.39,2.454,2.454,0,0,1-.915-1.118A4.341,4.341,0,0,1,26.64-3.09a3.627,3.627,0,0,1,.7-2.363,2.4,2.4,0,0,1,1.965-.863,2.584,2.584,0,0,1,1.44.39,2.459,2.459,0,0,1,.915,1.11A4.286,4.286,0,0,1,31.98-3.09a4.341,4.341,0,0,1-.315,1.733A2.454,2.454,0,0,1,30.75-.24,2.584,2.584,0,0,1,29.31.15Zm0-1.26a.937.937,0,0,0,.84-.488,2.914,2.914,0,0,0,.3-1.493,2.87,2.87,0,0,0-.3-1.485.94.94,0,0,0-.84-.48.943.943,0,0,0-.84.473,2.864,2.864,0,0,0-.3,1.492,2.908,2.908,0,0,0,.3,1.5A.94.94,0,0,0,29.31-1.11Z" transform="translate(945.956 1702.871)" fill="#0546a5"/>
  </g>
</svg>
