<svg xmlns="http://www.w3.org/2000/svg" width="54.569" height="54.568" viewBox="0 0 54.569 54.568">
  <g id="Group_62963" data-name="Group 62963" transform="translate(-934.094 -1750.604)">
    <g id="Group_62537" data-name="Group 62537" transform="translate(951.169 1750.604)">
      <path id="Path_21854" data-name="Path 21854" d="M3.993,10.662l-10.218-25.3A26.435,26.435,0,0,1,3.993-16.622Z" transform="translate(6.225 16.622)" fill="#d8d8da"/>
    </g>
    <g id="Group_62538" data-name="Group 62538" transform="translate(934.094 1752.59)">
      <path id="Path_21855" data-name="Path 21855" d="M10.666,9.886l-26.347,7.061A27.169,27.169,0,0,1,.448-15.412Z" transform="translate(16.628 15.412)" fill="#d8d8da"/>
    </g>
    <g id="Group_62539" data-name="Group 62539" transform="translate(935.041 1777.888)">
      <path id="Path_21856" data-name="Path 21856" d="M10.3,0-4.159,23.139A26.148,26.148,0,0,1-16.051,7.061Z" transform="translate(16.051)" fill="#0546a5"/>
    </g>
    <g id="Group_62540" data-name="Group 62540" transform="translate(946.933 1750.604)">
      <path id="Path_21857" data-name="Path 21857" d="M5.648,10.662V-16.622a27.284,27.284,0,0,1,0,54.568A25.768,25.768,0,0,1-8.806,33.8Z" transform="translate(8.806 16.622)" fill="#d8d8da"/>
    </g>
    <g id="Group_62541" data-name="Group 62541" transform="translate(942.687 1759.195)">
      <path id="Path_21858" data-name="Path 21858" d="M14.324,5.292A18.687,18.687,0,0,0-8.791-7.521,18.689,18.689,0,0,0-21.6,15.593,18.686,18.686,0,0,0,1.512,28.4,18.685,18.685,0,0,0,14.324,5.292" transform="translate(22.331 8.25)" fill="#fff"/>
    </g>
    <path id="Path_22271" data-name="Path 22271" d="M1.635,0V-1.59H4.02V-8.955h.93L2.175-7.275l-.75-1.41,3.15-1.89H5.94V-1.59H8.175V0Zm8.79,0V-1.425l3.42-3.645a7.033,7.033,0,0,0,.742-.915A3.649,3.649,0,0,0,15-6.8a2.371,2.371,0,0,0,.135-.78,1.393,1.393,0,0,0-.472-1.14,2.108,2.108,0,0,0-1.372-.39,3.719,3.719,0,0,0-1.373.263,4.236,4.236,0,0,0-1.283.817L9.99-9.465a4.738,4.738,0,0,1,1.575-.915,5.685,5.685,0,0,1,1.965-.345,4.743,4.743,0,0,1,1.92.345,2.559,2.559,0,0,1,1.185,1.005A3.012,3.012,0,0,1,17.04-7.77a3.912,3.912,0,0,1-.112.937,4.117,4.117,0,0,1-.345.908A6.683,6.683,0,0,1,16-5a10.081,10.081,0,0,1-.848.983L12.33-1.08v-.51h5.115V0ZM23.07.42,21.84-.3,28.02-11l1.215.72ZM21.78-4.26a2.584,2.584,0,0,1-1.44-.39,2.454,2.454,0,0,1-.915-1.118A4.341,4.341,0,0,1,19.11-7.5a3.627,3.627,0,0,1,.7-2.363,2.4,2.4,0,0,1,1.965-.863,2.584,2.584,0,0,1,1.44.39,2.459,2.459,0,0,1,.915,1.11A4.286,4.286,0,0,1,24.45-7.5a4.341,4.341,0,0,1-.315,1.732A2.454,2.454,0,0,1,23.22-4.65,2.584,2.584,0,0,1,21.78-4.26Zm0-1.26a.937.937,0,0,0,.84-.488,2.914,2.914,0,0,0,.3-1.492,2.87,2.87,0,0,0-.3-1.485.94.94,0,0,0-.84-.48.943.943,0,0,0-.84.472,2.864,2.864,0,0,0-.3,1.493,2.908,2.908,0,0,0,.3,1.5A.94.94,0,0,0,21.78-5.52ZM29.31.15a2.584,2.584,0,0,1-1.44-.39,2.454,2.454,0,0,1-.915-1.118A4.341,4.341,0,0,1,26.64-3.09a3.627,3.627,0,0,1,.7-2.363,2.4,2.4,0,0,1,1.965-.863,2.584,2.584,0,0,1,1.44.39,2.459,2.459,0,0,1,.915,1.11A4.286,4.286,0,0,1,31.98-3.09a4.341,4.341,0,0,1-.315,1.733A2.454,2.454,0,0,1,30.75-.24,2.584,2.584,0,0,1,29.31.15Zm0-1.26a.937.937,0,0,0,.84-.488,2.914,2.914,0,0,0,.3-1.493,2.87,2.87,0,0,0-.3-1.485.94.94,0,0,0-.84-.48.943.943,0,0,0-.84.473,2.864,2.864,0,0,0-.3,1.492,2.908,2.908,0,0,0,.3,1.5A.94.94,0,0,0,29.31-1.11Z" transform="translate(944.887 1781.77)" fill="#0546a5"/>
  </g>
</svg>
