<svg xmlns="http://www.w3.org/2000/svg" width="54.569" height="54.568" viewBox="0 0 54.569 54.568">
  <g id="Group_62961" data-name="Group 62961" transform="translate(-562.958 -1690.285)">
    <g id="Group_62543" data-name="Group 62543" transform="translate(580.034 1690.285)">
      <path id="Path_21860" data-name="Path 21860" d="M3.993,10.662l-10.218-25.3A26.435,26.435,0,0,1,3.993-16.622Z" transform="translate(6.225 16.622)" fill="#d8d8da"/>
    </g>
    <g id="Group_62544" data-name="Group 62544" transform="translate(562.958 1692.271)">
      <path id="Path_21861" data-name="Path 21861" d="M10.666,9.886l-26.347,7.061A27.169,27.169,0,0,1,.448-15.412Z" transform="translate(16.628 15.412)" fill="#fd2f7f"/>
    </g>
    <g id="Group_62545" data-name="Group 62545" transform="translate(563.906 1717.569)">
      <path id="Path_21862" data-name="Path 21862" d="M10.3,0-4.159,23.139A26.148,26.148,0,0,1-16.051,7.061Z" transform="translate(16.051)" fill="#d8d8da"/>
    </g>
    <g id="Group_62546" data-name="Group 62546" transform="translate(575.798 1690.285)">
      <path id="Path_21863" data-name="Path 21863" d="M5.648,10.662V-16.622a27.284,27.284,0,0,1,0,54.568A25.768,25.768,0,0,1-8.806,33.8Z" transform="translate(8.806 16.622)" fill="#d8d8da"/>
    </g>
    <g id="Group_62547" data-name="Group 62547" transform="translate(571.551 1698.876)">
      <path id="Path_21864" data-name="Path 21864" d="M14.324,5.292A18.687,18.687,0,0,0-8.791-7.521,18.689,18.689,0,0,0-21.6,15.593,18.686,18.686,0,0,0,1.512,28.4,18.685,18.685,0,0,0,14.324,5.292" transform="translate(22.331 8.25)" fill="#fff"/>
    </g>
    <path id="Path_22269" data-name="Path 22269" d="M1.2,0V-1.425L4.62-5.07a7.033,7.033,0,0,0,.742-.915,3.649,3.649,0,0,0,.412-.81,2.371,2.371,0,0,0,.135-.78,1.393,1.393,0,0,0-.473-1.14,2.108,2.108,0,0,0-1.372-.39,3.719,3.719,0,0,0-1.373.263,4.236,4.236,0,0,0-1.283.817L.765-9.465A4.738,4.738,0,0,1,2.34-10.38,5.685,5.685,0,0,1,4.3-10.725a4.743,4.743,0,0,1,1.92.345A2.559,2.559,0,0,1,7.41-9.375,3.012,3.012,0,0,1,7.815-7.77a3.912,3.912,0,0,1-.113.937,4.117,4.117,0,0,1-.345.908A6.683,6.683,0,0,1,6.773-5a10.081,10.081,0,0,1-.848.983L3.105-1.08v-.51H8.22V0ZM13.725.15a4.663,4.663,0,0,1-2.887-.8A2.6,2.6,0,0,1,9.8-2.835,2.815,2.815,0,0,1,10.1-4.178a2.548,2.548,0,0,1,.847-.937,2.848,2.848,0,0,1,1.23-.45v.315a2.746,2.746,0,0,1-1.11-.5,2.5,2.5,0,0,1-.743-.915,2.757,2.757,0,0,1-.262-1.207,2.488,2.488,0,0,1,.99-2.093,4.287,4.287,0,0,1,2.67-.757,4.314,4.314,0,0,1,2.685.757,2.488,2.488,0,0,1,.99,2.093,2.805,2.805,0,0,1-.263,1.215,2.445,2.445,0,0,1-.735.915,2.59,2.59,0,0,1-1.1.48v-.3a2.706,2.706,0,0,1,1.23.457,2.6,2.6,0,0,1,.825.945,2.805,2.805,0,0,1,.3,1.312A2.617,2.617,0,0,1,16.613-.645,4.663,4.663,0,0,1,13.725.15Zm0-1.5a2.619,2.619,0,0,0,1.6-.413,1.443,1.443,0,0,0,.54-1.223A1.422,1.422,0,0,0,15.33-4.2a2.656,2.656,0,0,0-1.6-.405,2.661,2.661,0,0,0-1.6.405,1.414,1.414,0,0,0-.548,1.215,1.434,1.434,0,0,0,.548,1.223A2.625,2.625,0,0,0,13.725-1.35Zm0-4.755a2.12,2.12,0,0,0,1.4-.412,1.429,1.429,0,0,0,.495-1.163,1.4,1.4,0,0,0-.495-1.133,2.12,2.12,0,0,0-1.4-.412,2.094,2.094,0,0,0-1.38.412A1.4,1.4,0,0,0,11.85-7.68a1.434,1.434,0,0,0,.495,1.155A2.069,2.069,0,0,0,13.725-6.105ZM23.07.42,21.84-.3,28.02-11l1.215.72ZM21.78-4.26a2.584,2.584,0,0,1-1.44-.39,2.454,2.454,0,0,1-.915-1.118A4.341,4.341,0,0,1,19.11-7.5a3.627,3.627,0,0,1,.7-2.363,2.4,2.4,0,0,1,1.965-.863,2.584,2.584,0,0,1,1.44.39,2.459,2.459,0,0,1,.915,1.11A4.286,4.286,0,0,1,24.45-7.5a4.341,4.341,0,0,1-.315,1.732A2.454,2.454,0,0,1,23.22-4.65,2.584,2.584,0,0,1,21.78-4.26Zm0-1.26a.937.937,0,0,0,.84-.488,2.914,2.914,0,0,0,.3-1.492,2.87,2.87,0,0,0-.3-1.485.94.94,0,0,0-.84-.48.943.943,0,0,0-.84.472,2.864,2.864,0,0,0-.3,1.493,2.908,2.908,0,0,0,.3,1.5A.94.94,0,0,0,21.78-5.52ZM29.31.15a2.584,2.584,0,0,1-1.44-.39,2.454,2.454,0,0,1-.915-1.118A4.341,4.341,0,0,1,26.64-3.09a3.627,3.627,0,0,1,.7-2.363,2.4,2.4,0,0,1,1.965-.863,2.584,2.584,0,0,1,1.44.39,2.459,2.459,0,0,1,.915,1.11A4.286,4.286,0,0,1,31.98-3.09a4.341,4.341,0,0,1-.315,1.733A2.454,2.454,0,0,1,30.75-.24,2.584,2.584,0,0,1,29.31.15Zm0-1.26a.937.937,0,0,0,.84-.488,2.914,2.914,0,0,0,.3-1.493,2.87,2.87,0,0,0-.3-1.485.94.94,0,0,0-.84-.48.943.943,0,0,0-.84.473,2.864,2.864,0,0,0-.3,1.492,2.908,2.908,0,0,0,.3,1.5A.94.94,0,0,0,29.31-1.11Z" transform="translate(573.956 1722.244)" fill="#fd2f7f"/>
  </g>
</svg>
