<svg xmlns="http://www.w3.org/2000/svg" width="38.66" height="38.66" viewBox="0 0 38.66 38.66">
  <g id="Group_62969" data-name="Group 62969" transform="translate(3450 -3296)">
    <path id="Path_22268" data-name="Path 22268" d="M9.247,19.153,7.911.047C8.289.02,8.866,0,9.247,0Z" transform="translate(-3439.74 3296.354)" fill="#a7dff9"/>
    <path id="Path_22269" data-name="Path 22269" d="M10.9,19.127,6.591.465A17.413,17.413,0,0,1,9.564.021Z" transform="translate(-3441.393 3296.38)" fill="#a7dff9"/>
    <g id="Group_62962" data-name="Group 62962" transform="translate(-3636 172)">
      <path id="Path_22250" data-name="Path 22250" d="M19.153,18.88.419,22.862A19.2,19.2,0,0,1,14.844.218Z" transform="translate(186.354 3124.627)" fill="#a7dff9"/>
      <path id="Path_22251" data-name="Path 22251" d="M18.92,19.153V0a19.153,19.153,0,0,1,0,38.306A18.8,18.8,0,0,1,.186,23.135Z" transform="translate(186.586 3124.354)" fill="#034ea2"/>
    </g>
    <rect id="Rectangle_72115" data-name="Rectangle 72115" width="38" height="38" transform="translate(-3450 3296)" fill="none"/>
  </g>
</svg>
