<svg xmlns="http://www.w3.org/2000/svg" width="54.569" height="54.568" viewBox="0 0 54.569 54.568">
  <g id="Group_62960" data-name="Group 62960" transform="translate(-245.679 -1690.285)">
    <g id="Group_62549" data-name="Group 62549" transform="translate(262.755 1690.285)">
      <path id="Path_21866" data-name="Path 21866" d="M3.993,10.662l-10.218-25.3A26.435,26.435,0,0,1,3.993-16.622Z" transform="translate(6.225 16.622)" fill="#35cbf5"/>
    </g>
    <g id="Group_62550" data-name="Group 62550" transform="translate(245.679 1692.271)">
      <path id="Path_21867" data-name="Path 21867" d="M10.666,9.886l-26.347,7.061A27.169,27.169,0,0,1,.448-15.412Z" transform="translate(16.628 15.412)" fill="#d8d8da"/>
    </g>
    <g id="Group_62551" data-name="Group 62551" transform="translate(246.626 1717.569)">
      <path id="Path_21868" data-name="Path 21868" d="M10.3,0-4.159,23.139A26.148,26.148,0,0,1-16.051,7.061Z" transform="translate(16.051)" fill="#d8d8da"/>
    </g>
    <g id="Group_62552" data-name="Group 62552" transform="translate(258.519 1690.285)">
      <path id="Path_21869" data-name="Path 21869" d="M5.648,10.662V-16.622a27.284,27.284,0,0,1,0,54.568A25.768,25.768,0,0,1-8.806,33.8Z" transform="translate(8.806 16.622)" fill="#d8d8da"/>
    </g>
    <g id="Group_62553" data-name="Group 62553" transform="translate(254.272 1698.876)">
      <path id="Path_21870" data-name="Path 21870" d="M14.324,5.292A18.687,18.687,0,0,0-8.791-7.521,18.689,18.689,0,0,0-21.6,15.593,18.686,18.686,0,0,0,1.512,28.4,18.685,18.685,0,0,0,14.324,5.292" transform="translate(22.331 8.25)" fill="#fff"/>
    </g>
    <path id="Path_22268" data-name="Path 22268" d="M5.235,0V-2.01H.63V-3.42l4.935-7.155h1.59V-3.6H8.64v1.59H7.155V0Zm0-3.6V-8.28H5.67L2.13-3.09V-3.6ZM13.515.42,12.285-.3,18.465-11l1.215.72Zm-1.29-4.68a2.584,2.584,0,0,1-1.44-.39A2.454,2.454,0,0,1,9.87-5.768,4.341,4.341,0,0,1,9.555-7.5a3.627,3.627,0,0,1,.7-2.363,2.4,2.4,0,0,1,1.965-.863,2.584,2.584,0,0,1,1.44.39,2.459,2.459,0,0,1,.915,1.11A4.286,4.286,0,0,1,14.9-7.5a4.341,4.341,0,0,1-.315,1.732,2.454,2.454,0,0,1-.915,1.118A2.584,2.584,0,0,1,12.225-4.26Zm0-1.26a.937.937,0,0,0,.84-.488,2.914,2.914,0,0,0,.3-1.492,2.87,2.87,0,0,0-.3-1.485.94.94,0,0,0-.84-.48.943.943,0,0,0-.84.472,2.864,2.864,0,0,0-.3,1.493,2.908,2.908,0,0,0,.3,1.5A.94.94,0,0,0,12.225-5.52ZM19.755.15a2.584,2.584,0,0,1-1.44-.39A2.454,2.454,0,0,1,17.4-1.358a4.341,4.341,0,0,1-.315-1.733,3.627,3.627,0,0,1,.7-2.363,2.4,2.4,0,0,1,1.965-.863,2.584,2.584,0,0,1,1.44.39,2.459,2.459,0,0,1,.915,1.11,4.286,4.286,0,0,1,.315,1.725,4.341,4.341,0,0,1-.315,1.733A2.454,2.454,0,0,1,21.2-.24,2.584,2.584,0,0,1,19.755.15Zm0-1.26A.937.937,0,0,0,20.6-1.6a2.914,2.914,0,0,0,.3-1.493,2.87,2.87,0,0,0-.3-1.485.94.94,0,0,0-.84-.48.943.943,0,0,0-.84.473,2.864,2.864,0,0,0-.3,1.492,2.908,2.908,0,0,0,.3,1.5A.94.94,0,0,0,19.755-1.11Z" transform="translate(261.341 1722.575)" fill="#35cbf5"/>
  </g>
</svg>
