<?xml version="1.0" encoding="UTF-8"?>
<svg xmlns="http://www.w3.org/2000/svg" version="1.1" viewBox="0 0 312 385">
  <!-- Generator: Adobe Illustrator 29.5.1, SVG Export Plug-In . SVG Version: 2.1.0 Build 141)  -->
  <defs>
    <style>
      .st0, .st1, .st2 {
        stroke: #35cbf5;
      }

      .st0, .st1, .st3 {
        fill: none;
      }

      .st4 {
        fill: #c2eefc;
      }

      .st5 {
        fill: #53d2f6;
      }

      .st6, .st2 {
        fill: #fff;
      }

      .st7 {
        isolation: isolate;
      }

      .st1, .st2 {
        stroke-width: .5px;
      }

      .st3 {
        stroke: #707070;
      }
    </style>
  </defs>
  <g id="Layer_2">
    <g>
      <g id="PAT_Margin_" class="st7">
        <g class="st7">
          <path class="st6" d="M57.87,380.95v-10.58h4.19c.76,0,1.4.12,1.93.37s.92.6,1.19,1.08c.27.48.41,1.05.41,1.73s-.14,1.23-.41,1.71c-.27.48-.67.84-1.19,1.09s-1.17.38-1.93.38h-2.96v4.21h-1.23ZM59.1,375.7h2.8c.81,0,1.42-.18,1.84-.55.41-.36.62-.9.62-1.6s-.21-1.25-.62-1.61c-.42-.36-1.03-.55-1.84-.55h-2.8v4.3Z"/>
          <path class="st6" d="M66.34,380.95l4.67-10.58h1.05l4.67,10.58h-1.27l-1.31-3.01.6.31h-6.45l.62-.31-1.29,3.01h-1.27ZM71.52,371.82l-2.42,5.68-.36-.29h5.55l-.33.29-2.41-5.68h-.03Z"/>
          <path class="st6" d="M80.89,380.95v-9.51h-3.84v-1.07h8.92v1.07h-3.84v9.51h-1.25Z"/>
          <path class="st6" d="M91.21,380.95v-10.58h1.04l4.29,8.06h-.45l4.26-8.06h1.03v10.58h-1.14v-8.92h.36l-3.89,7.29h-.81l-3.93-7.31h.36v8.94h-1.12Z"/>
          <path class="st6" d="M106.14,381.08c-.5,0-.95-.1-1.34-.29-.4-.2-.71-.46-.94-.8s-.34-.72-.34-1.14c0-.54.14-.96.41-1.28.27-.31.73-.53,1.36-.66s1.5-.2,2.6-.2h.68v.8h-.66c-.61,0-1.12.02-1.53.06s-.73.11-.97.21c-.24.1-.41.23-.51.39-.1.16-.15.36-.15.6,0,.41.14.75.43,1,.29.26.67.39,1.16.39.4,0,.75-.09,1.06-.29.3-.19.54-.45.72-.78.17-.33.26-.71.26-1.14v-1.71c0-.62-.12-1.07-.38-1.34-.25-.28-.66-.41-1.23-.41-.44,0-.87.06-1.27.19-.41.12-.83.33-1.26.61l-.42-.88c.26-.18.56-.34.89-.47s.67-.24,1.03-.31c.36-.07.71-.1,1.04-.1.63,0,1.15.1,1.56.31s.71.51.92.93c.2.42.3.95.3,1.6v4.59h-1.14v-1.7h.13c-.08.38-.23.71-.46.98-.23.27-.5.48-.83.63-.33.15-.7.22-1.11.22Z"/>
          <path class="st6" d="M111.79,380.95v-7.29h1.19v1.72h-.15c.17-.59.47-1.04.89-1.34.42-.31.98-.48,1.67-.53l.44-.04.09,1.05-.77.09c-.68.06-1.2.28-1.57.65-.37.38-.55.89-.55,1.54v4.16h-1.23Z"/>
          <path class="st6" d="M120.39,383.79c-.63,0-1.22-.08-1.78-.25-.55-.17-1.05-.41-1.48-.74l.41-.88c.3.21.6.38.89.52.29.13.6.23.91.29.32.06.64.09.98.09.71,0,1.25-.19,1.61-.57.36-.38.55-.93.55-1.65v-1.69h.15c-.15.58-.47,1.04-.95,1.38-.49.34-1.05.51-1.7.51s-1.25-.15-1.74-.46c-.49-.31-.87-.73-1.13-1.28-.27-.55-.4-1.18-.4-1.9s.13-1.35.4-1.9.64-.97,1.13-1.27c.49-.3,1.07-.45,1.74-.45s1.23.17,1.71.5c.48.34.79.79.93,1.36h-.14v-1.72h1.19v6.76c0,.74-.12,1.36-.37,1.86-.25.5-.61.88-1.1,1.12-.49.25-1.1.38-1.81.38ZM120.21,379.79c.7,0,1.25-.24,1.67-.72.41-.48.61-1.12.61-1.93s-.21-1.45-.61-1.93c-.41-.47-.97-.71-1.67-.71s-1.24.24-1.65.71c-.41.47-.62,1.12-.62,1.93s.21,1.45.62,1.93c.41.48.96.72,1.65.72Z"/>
          <path class="st6" d="M125.8,371.84v-1.36h1.5v1.36h-1.5ZM125.95,380.95v-7.29h1.21v7.29h-1.21Z"/>
          <path class="st6" d="M129.43,380.95v-7.29h1.19v1.62h-.17c.21-.58.55-1.02,1.03-1.31.47-.29,1.02-.44,1.64-.44.58,0,1.06.1,1.45.31s.67.53.86.95c.19.42.28.96.28,1.61v4.54h-1.21v-4.47c0-.45-.06-.82-.17-1.11-.12-.29-.3-.5-.54-.64-.25-.14-.56-.21-.95-.21-.44,0-.82.09-1.15.28-.33.18-.58.45-.77.79s-.27.75-.27,1.21v4.16h-1.21Z"/>
          <path class="st6" d="M144.03,383.83c-.64-1.11-1.1-2.23-1.4-3.36-.29-1.13-.44-2.28-.44-3.46s.15-2.33.44-3.46.75-2.25,1.4-3.36l.87.33c-.31.74-.57,1.47-.78,2.18-.21.72-.37,1.43-.47,2.14s-.16,1.44-.16,2.17.05,1.45.16,2.17.26,1.43.47,2.14.47,1.44.78,2.19l-.87.33Z"/>
          <path class="st6" d="M148.81,376.72c-.53,0-.99-.13-1.37-.38-.39-.25-.68-.62-.88-1.11-.2-.48-.3-1.07-.3-1.75,0-1.02.23-1.81.68-2.38.45-.56,1.07-.85,1.88-.85.53,0,.98.13,1.36.38s.67.62.88,1.1c.21.48.31,1.06.31,1.74s-.1,1.26-.31,1.74c-.21.48-.5.85-.88,1.11-.38.26-.83.39-1.36.39ZM148.81,375.83c.46,0,.82-.2,1.09-.59.27-.4.41-.98.41-1.76s-.14-1.37-.41-1.75c-.27-.39-.64-.58-1.09-.58s-.84.19-1.1.58c-.27.39-.4.97-.4,1.75s.13,1.37.4,1.76c.26.39.63.59,1.1.59ZM149.71,381.33l-.85-.5,6.23-10.83.84.5-6.21,10.83ZM155.98,381.08c-.52,0-.97-.13-1.36-.38-.39-.26-.68-.62-.89-1.11s-.31-1.07-.31-1.75c0-1.02.23-1.81.68-2.38.46-.56,1.08-.85,1.87-.85.53,0,.98.13,1.37.38.38.25.67.62.88,1.1.2.48.31,1.06.31,1.74s-.1,1.26-.3,1.75-.49.85-.87,1.11c-.38.25-.84.38-1.38.38ZM155.98,380.2c.47,0,.84-.2,1.1-.59.26-.39.4-.98.4-1.76s-.13-1.36-.4-1.75c-.27-.39-.63-.58-1.1-.58s-.82.2-1.09.58c-.27.39-.4.98-.4,1.75s.13,1.38.4,1.77c.26.39.63.58,1.09.58Z"/>
          <path class="st6" d="M160.77,383.83l-.87-.33c.32-.76.58-1.5.79-2.21s.36-1.43.46-2.13c.1-.7.15-1.42.15-2.15s-.05-1.45-.15-2.15-.25-1.42-.46-2.14c-.21-.72-.47-1.46-.79-2.21l.87-.33c.64,1.11,1.11,2.23,1.4,3.37s.43,2.29.43,3.46-.14,2.33-.43,3.46c-.29,1.13-.76,2.25-1.4,3.36Z"/>
        </g>
      </g>
      <g id="Group_63063">
        <path id="Path_21857" class="st0" d="M10.7,376.86h37.12"/>
      </g>
      <path id="Path_21858" class="st5" d="M26.09,380.04h6.37v-6.37h-6.37v6.37Z"/>
    </g>
  </g>
  <g id="Layer_3">
    <g>
      <g id="Group_63058">
        <path id="Path_21846" class="st1" d="M0,318.1h304.93"/>
      </g>
      <g id="Group">
        <g id="FY_2022-23_" class="st7">
          <g class="st7">
            <path class="st6" d="M11.82,341.55v-11.45h7.73v1.35h-6.21v3.55h5.38v1.35h-5.38v5.2h-1.52Z"/>
            <path class="st6" d="M24.74,341.55v-4.85l-4.41-6.6h1.84l2.26,3.45c.42.65.8,1.29,1.16,1.94.34-.6.76-1.27,1.25-2.02l2.22-3.37h1.77l-4.57,6.6v4.85h-1.52Z"/>
            <path class="st6" d="M43.16,340.2v1.35h-7.57c-.01-.34.04-.66.16-.98.19-.52.5-1.02.93-1.52.42-.5,1.04-1.08,1.84-1.73,1.24-1.02,2.09-1.83,2.52-2.43s.66-1.16.66-1.69c0-.56-.2-1.03-.6-1.41s-.92-.57-1.56-.57c-.68,0-1.22.2-1.62.61s-.61.97-.62,1.69l-1.45-.15c.1-1.08.47-1.9,1.12-2.46.65-.57,1.51-.85,2.6-.85s1.97.3,2.61.91.96,1.36.96,2.27c0,.46-.09.91-.28,1.35s-.5.91-.93,1.4c-.44.49-1.16,1.16-2.17,2.02-.84.71-1.39,1.19-1.62,1.44-.24.25-.44.51-.59.76h5.62Z"/>
            <path class="st6" d="M44.67,335.9c0-1.35.14-2.44.42-3.27.28-.83.69-1.46,1.24-1.91.55-.45,1.24-.67,2.07-.67.61,0,1.15.12,1.62.37.46.25.85.6,1.15,1.07.3.47.54,1.03.71,1.7s.26,1.57.26,2.71c0,1.34-.14,2.43-.41,3.25-.28.83-.69,1.46-1.24,1.91-.55.45-1.24.68-2.08.68-1.1,0-1.97-.4-2.6-1.19-.76-.95-1.13-2.5-1.13-4.66ZM46.12,335.9c0,1.88.22,3.13.66,3.75.44.62.98.93,1.63.93s1.19-.31,1.63-.94c.44-.62.66-1.88.66-3.75s-.22-3.14-.66-3.76c-.44-.62-.99-.93-1.64-.93s-1.16.27-1.55.82c-.48.7-.73,1.99-.73,3.87Z"/>
            <path class="st6" d="M60.96,340.2v1.35h-7.57c-.01-.34.04-.66.16-.98.19-.52.5-1.02.93-1.52.42-.5,1.04-1.08,1.84-1.73,1.24-1.02,2.09-1.83,2.52-2.43s.66-1.16.66-1.69c0-.56-.2-1.03-.6-1.41s-.92-.57-1.56-.57c-.68,0-1.22.2-1.62.61s-.61.97-.62,1.69l-1.45-.15c.1-1.08.47-1.9,1.12-2.46.65-.57,1.51-.85,2.6-.85s1.97.3,2.61.91.96,1.36.96,2.27c0,.46-.09.91-.28,1.35s-.5.91-.93,1.4c-.44.49-1.16,1.16-2.17,2.02-.84.71-1.39,1.19-1.62,1.44-.24.25-.44.51-.59.76h5.62Z"/>
            <path class="st6" d="M69.86,340.2v1.35h-7.57c-.01-.34.04-.66.16-.98.19-.52.5-1.02.93-1.52.42-.5,1.04-1.08,1.84-1.73,1.24-1.02,2.09-1.83,2.52-2.43s.66-1.16.66-1.69c0-.56-.2-1.03-.6-1.41s-.92-.57-1.56-.57c-.68,0-1.22.2-1.62.61s-.61.97-.62,1.69l-1.45-.15c.1-1.08.47-1.9,1.12-2.46.65-.57,1.51-.85,2.6-.85s1.97.3,2.61.91.96,1.36.96,2.27c0,.46-.09.91-.28,1.35s-.5.91-.93,1.4c-.44.49-1.16,1.16-2.17,2.02-.84.71-1.39,1.19-1.62,1.44-.24.25-.44.51-.59.76h5.62Z"/>
            <path class="st6" d="M71.21,338.11v-1.41h4.32v1.41h-4.32Z"/>
            <path class="st6" d="M84.09,340.2v1.35h-7.57c-.01-.34.04-.66.16-.98.19-.52.5-1.02.93-1.52.42-.5,1.04-1.08,1.84-1.73,1.24-1.02,2.09-1.83,2.52-2.43s.66-1.16.66-1.69c0-.56-.2-1.03-.6-1.41s-.92-.57-1.56-.57c-.68,0-1.22.2-1.62.61s-.61.97-.62,1.69l-1.45-.15c.1-1.08.47-1.9,1.12-2.46.65-.57,1.51-.85,2.6-.85s1.97.3,2.61.91.96,1.36.96,2.27c0,.46-.09.91-.28,1.35s-.5.91-.93,1.4c-.44.49-1.16,1.16-2.17,2.02-.84.71-1.39,1.19-1.62,1.44-.24.25-.44.51-.59.76h5.62Z"/>
            <path class="st6" d="M85.6,338.53l1.41-.19c.16.8.44,1.37.82,1.72.39.35.86.53,1.42.53.66,0,1.22-.23,1.68-.69.46-.46.68-1.03.68-1.7s-.21-1.18-.63-1.6-.96-.63-1.61-.63c-.27,0-.6.05-.99.16l.16-1.23c.09.01.17.02.23.02.6,0,1.14-.16,1.62-.47.48-.31.72-.79.72-1.45,0-.52-.17-.94-.52-1.28-.35-.34-.8-.51-1.35-.51s-1,.17-1.37.52c-.36.34-.6.86-.7,1.55l-1.41-.25c.17-.94.56-1.67,1.17-2.19s1.37-.78,2.27-.78c.62,0,1.2.13,1.73.4.53.27.93.63,1.21,1.1.28.46.42.96.42,1.48s-.13.95-.4,1.35-.66.73-1.18.97c.68.16,1.2.48,1.58.97s.56,1.11.56,1.85c0,1-.36,1.85-1.09,2.54-.73.7-1.65,1.04-2.77,1.04-1.01,0-1.84-.3-2.5-.9s-1.04-1.38-1.14-2.33Z"/>
          </g>
        </g>
        <g id="FY_2023-24" class="st7">
          <g class="st7">
            <path class="st6" d="M110.01,341.55v-11.45h7.73v1.35h-6.21v3.55h5.38v1.35h-5.38v5.2h-1.52Z"/>
            <path class="st6" d="M122.93,341.55v-4.85l-4.41-6.6h1.84l2.26,3.45c.42.65.8,1.29,1.16,1.94.34-.6.76-1.27,1.25-2.02l2.22-3.37h1.77l-4.57,6.6v4.85h-1.52Z"/>
            <path class="st6" d="M141.36,340.2v1.35h-7.57c-.01-.34.04-.66.16-.98.19-.52.5-1.02.93-1.52.42-.5,1.04-1.08,1.84-1.73,1.24-1.02,2.09-1.83,2.52-2.43s.66-1.16.66-1.69c0-.56-.2-1.03-.6-1.41s-.92-.57-1.56-.57c-.68,0-1.22.2-1.62.61s-.61.97-.62,1.69l-1.45-.15c.1-1.08.47-1.9,1.12-2.46.65-.57,1.51-.85,2.6-.85s1.97.3,2.61.91.96,1.36.96,2.27c0,.46-.09.91-.28,1.35s-.5.91-.93,1.4c-.44.49-1.16,1.16-2.17,2.02-.84.71-1.39,1.19-1.62,1.44-.24.25-.44.51-.59.76h5.62Z"/>
            <path class="st6" d="M142.86,335.9c0-1.35.14-2.44.42-3.27.28-.83.69-1.46,1.24-1.91.55-.45,1.24-.67,2.07-.67.61,0,1.15.12,1.62.37.46.25.85.6,1.15,1.07.3.47.54,1.03.71,1.7s.26,1.57.26,2.71c0,1.34-.14,2.43-.41,3.25-.28.83-.69,1.46-1.24,1.91-.55.45-1.24.68-2.08.68-1.1,0-1.97-.4-2.6-1.19-.76-.95-1.13-2.5-1.13-4.66ZM144.31,335.9c0,1.88.22,3.13.66,3.75.44.62.98.93,1.63.93s1.19-.31,1.63-.94c.44-.62.66-1.88.66-3.75s-.22-3.14-.66-3.76c-.44-.62-.99-.93-1.64-.93s-1.16.27-1.55.82c-.48.7-.73,1.99-.73,3.87Z"/>
            <path class="st6" d="M159.15,340.2v1.35h-7.57c-.01-.34.04-.66.16-.98.19-.52.5-1.02.93-1.52.42-.5,1.04-1.08,1.84-1.73,1.24-1.02,2.09-1.83,2.52-2.43s.66-1.16.66-1.69c0-.56-.2-1.03-.6-1.41s-.92-.57-1.56-.57c-.68,0-1.22.2-1.62.61s-.61.97-.62,1.69l-1.45-.15c.1-1.08.47-1.9,1.12-2.46.65-.57,1.51-.85,2.6-.85s1.97.3,2.61.91.96,1.36.96,2.27c0,.46-.09.91-.28,1.35s-.5.91-.93,1.4c-.44.49-1.16,1.16-2.17,2.02-.84.71-1.39,1.19-1.62,1.44-.24.25-.44.51-.59.76h5.62Z"/>
            <path class="st6" d="M160.67,338.53l1.41-.19c.16.8.44,1.37.82,1.72.39.35.86.53,1.42.53.66,0,1.22-.23,1.68-.69.46-.46.68-1.03.68-1.7s-.21-1.18-.63-1.6-.96-.63-1.61-.63c-.27,0-.6.05-.99.16l.16-1.23c.09.01.17.02.23.02.6,0,1.14-.16,1.62-.47.48-.31.72-.79.72-1.45,0-.52-.17-.94-.52-1.28-.35-.34-.8-.51-1.35-.51s-1,.17-1.37.52c-.37.34-.6.86-.7,1.55l-1.41-.25c.17-.94.56-1.67,1.17-2.19s1.37-.78,2.27-.78c.62,0,1.2.13,1.73.4.53.27.93.63,1.21,1.1.28.46.42.96.42,1.48s-.13.95-.4,1.35-.66.73-1.18.97c.68.16,1.2.48,1.58.97s.56,1.11.56,1.85c0,1-.37,1.85-1.09,2.54-.73.7-1.65,1.04-2.77,1.04-1.01,0-1.84-.3-2.5-.9s-1.04-1.38-1.14-2.33Z"/>
            <path class="st6" d="M169.4,338.11v-1.41h4.32v1.41h-4.32Z"/>
            <path class="st6" d="M182.28,340.2v1.35h-7.57c-.01-.34.04-.66.16-.98.19-.52.5-1.02.93-1.52.42-.5,1.04-1.08,1.84-1.73,1.24-1.02,2.09-1.83,2.52-2.43s.66-1.16.66-1.69c0-.56-.2-1.03-.6-1.41s-.92-.57-1.56-.57c-.68,0-1.22.2-1.62.61s-.61.97-.62,1.69l-1.45-.15c.1-1.08.47-1.9,1.12-2.46.65-.57,1.51-.85,2.6-.85s1.97.3,2.61.91.96,1.36.96,2.27c0,.46-.09.91-.28,1.35s-.5.91-.93,1.4c-.44.49-1.16,1.16-2.17,2.02-.84.71-1.39,1.19-1.62,1.44-.24.25-.44.51-.59.76h5.62Z"/>
            <path class="st6" d="M188.29,341.55v-2.74h-4.97v-1.29l5.23-7.42h1.15v7.42h1.55v1.29h-1.55v2.74h-1.41ZM188.29,337.52v-5.16l-3.59,5.16h3.59Z"/>
          </g>
        </g>
        <g id="FY_2024-25" class="st7">
          <g class="st7">
            <path class="st6" d="M208.2,341.55v-11.45h7.73v1.35h-6.21v3.55h5.38v1.35h-5.38v5.2h-1.52Z"/>
            <path class="st6" d="M221.12,341.55v-4.85l-4.41-6.6h1.84l2.26,3.45c.42.65.8,1.29,1.16,1.94.34-.6.76-1.27,1.25-2.02l2.22-3.37h1.77l-4.57,6.6v4.85h-1.52Z"/>
            <path class="st6" d="M239.55,340.2v1.35h-7.57c-.01-.34.04-.66.16-.98.19-.52.5-1.02.93-1.52s1.04-1.08,1.84-1.73c1.25-1.02,2.09-1.83,2.52-2.43s.66-1.16.66-1.69c0-.56-.2-1.03-.6-1.41s-.92-.57-1.56-.57c-.68,0-1.22.2-1.62.61s-.61.97-.62,1.69l-1.45-.15c.1-1.08.47-1.9,1.12-2.46s1.51-.85,2.6-.85,1.97.3,2.61.91.96,1.36.96,2.27c0,.46-.09.91-.28,1.35s-.5.91-.93,1.4-1.16,1.16-2.17,2.02c-.84.71-1.39,1.19-1.62,1.44s-.44.51-.59.76h5.62Z"/>
            <path class="st6" d="M241.05,335.9c0-1.35.14-2.44.42-3.27s.69-1.46,1.24-1.91,1.24-.67,2.07-.67c.61,0,1.15.12,1.62.37s.85.6,1.15,1.07.54,1.03.71,1.7.26,1.57.26,2.71c0,1.34-.14,2.43-.41,3.25s-.69,1.46-1.24,1.91-1.24.68-2.08.68c-1.1,0-1.97-.4-2.6-1.19-.75-.95-1.13-2.5-1.13-4.66ZM242.5,335.9c0,1.88.22,3.13.66,3.75s.98.93,1.63.93,1.19-.31,1.63-.94.66-1.88.66-3.75-.22-3.14-.66-3.76-.99-.93-1.64-.93-1.16.27-1.55.82c-.48.7-.73,1.99-.73,3.87Z"/>
            <path class="st6" d="M257.34,340.2v1.35h-7.57c-.01-.34.04-.66.16-.98.19-.52.5-1.02.93-1.52s1.04-1.08,1.84-1.73c1.25-1.02,2.09-1.83,2.52-2.43s.66-1.16.66-1.69c0-.56-.2-1.03-.6-1.41s-.92-.57-1.56-.57c-.68,0-1.22.2-1.62.61s-.61.97-.62,1.69l-1.45-.15c.1-1.08.47-1.9,1.12-2.46s1.51-.85,2.6-.85,1.97.3,2.61.91.96,1.36.96,2.27c0,.46-.09.91-.28,1.35s-.5.91-.93,1.4-1.16,1.16-2.17,2.02c-.84.71-1.39,1.19-1.62,1.44s-.44.51-.59.76h5.62Z"/>
            <path class="st6" d="M263.36,341.55v-2.74h-4.97v-1.29l5.23-7.42h1.15v7.42h1.55v1.29h-1.55v2.74h-1.41ZM263.36,337.52v-5.16l-3.59,5.16h3.59Z"/>
            <path class="st6" d="M267.59,338.11v-1.41h4.32v1.41h-4.32Z"/>
            <path class="st6" d="M280.47,340.2v1.35h-7.57c-.01-.34.04-.66.16-.98.19-.52.5-1.02.93-1.52s1.04-1.08,1.84-1.73c1.25-1.02,2.09-1.83,2.52-2.43s.66-1.16.66-1.69c0-.56-.2-1.03-.6-1.41s-.92-.57-1.56-.57c-.68,0-1.22.2-1.62.61s-.61.97-.62,1.69l-1.45-.15c.1-1.08.47-1.9,1.12-2.46s1.51-.85,2.6-.85,1.97.3,2.61.91.96,1.36.96,2.27c0,.46-.09.91-.28,1.35s-.5.91-.93,1.4-1.16,1.16-2.17,2.02c-.84.71-1.39,1.19-1.62,1.44s-.44.51-.59.76h5.62Z"/>
            <path class="st6" d="M281.98,338.55l1.48-.12c.11.72.36,1.26.76,1.62s.88.54,1.44.54c.68,0,1.25-.25,1.72-.77s.7-1.19.7-2.03-.23-1.43-.68-1.9-1.04-.7-1.77-.7c-.45,0-.86.1-1.23.31s-.65.47-.86.8l-1.32-.17,1.11-5.88h5.7v1.34h-4.57l-.62,3.08c.69-.48,1.41-.72,2.16-.72,1,0,1.84.35,2.53,1.04s1.03,1.58,1.03,2.67-.3,1.93-.91,2.69c-.73.93-1.74,1.39-3.01,1.39-1.04,0-1.89-.29-2.55-.88s-1.04-1.36-1.13-2.32Z"/>
          </g>
        </g>
      </g>
    </g>
  </g>
  <g id="Layer_4">
    <g>
      <path id="Path_21847" class="st4" d="M38.4,318.1h26.78v-157.8h-26.78v157.8Z"/>
      <g id="Group_63059">
        <path id="Path_21848" class="st1" d="M64.74,318.57V12.33"/>
      </g>
      <path id="Path_21849" class="st2" d="M55.78,20.11h8.98v-8.98h-8.98v8.98Z"/>
      <g id="_2_661" class="st7">
        <g class="st7">
          <path class="st6" d="M86.42,49.04h-.99l-4.16-3.86c-.39-.36-.76-.66-1.11-.88-.35-.22-.69-.39-1.02-.5-.33-.11-.67-.16-1.01-.16-.64,0-1.13.19-1.46.58-.34.39-.5.96-.5,1.7,0,.58.1,1.11.31,1.61s.53.97.97,1.42l-1.02.5c-.43-.42-.77-.95-1.03-1.59-.26-.65-.39-1.33-.39-2.04,0-.76.12-1.4.35-1.92.24-.52.58-.92,1.03-1.18s1.01-.4,1.66-.4c.34,0,.67.04,1,.12s.65.2.98.37c.33.17.66.37,1,.62.34.25.69.55,1.06.9l3.6,3.39h-.37v-5.87h1.12v7.18Z"/>
          <path class="st6" d="M88.25,39.2l-.46.61c-.2-.19-.39-.34-.57-.44-.18-.1-.35-.17-.53-.21-.18-.04-.35-.06-.54-.06l.27-.29v1.06h-1.63v-1.63h1.15c.29,0,.56.03.82.09s.51.16.76.3c.25.14.49.33.72.58Z"/>
          <path class="st6" d="M86.57,32.05c0,.89-.22,1.64-.65,2.26s-1.06,1.1-1.88,1.42c-.82.32-1.81.48-2.98.48-1.3,0-2.4-.18-3.3-.54s-1.59-.88-2.06-1.57c-.47-.69-.7-1.51-.7-2.46,0-.38.06-.77.17-1.17s.27-.77.47-1.11c.2-.35.44-.64.72-.89l1.02.48c-.42.39-.72.82-.92,1.29-.2.46-.3.94-.3,1.43,0,.52.1.98.3,1.38s.49.74.87,1.02c.38.28.87.49,1.45.63.58.14,1.26.21,2.02.21h1.49v.14c-.61-.06-1.13-.24-1.58-.54s-.78-.67-1.02-1.14-.35-.98-.35-1.54c0-.66.15-1.25.46-1.76.3-.51.72-.91,1.26-1.2.53-.29,1.15-.43,1.84-.43s1.33.15,1.89.46.99.73,1.3,1.26.47,1.16.47,1.86ZM85.45,32.13c0-.47-.1-.89-.31-1.25-.21-.36-.5-.65-.88-.85-.38-.2-.81-.3-1.3-.3s-.92.1-1.3.3c-.37.2-.67.48-.88.84-.21.36-.32.78-.32,1.26s.11.89.32,1.25c.21.36.51.65.88.85.37.2.8.3,1.3.3s.92-.1,1.3-.3.67-.48.88-.84c.21-.36.31-.78.31-1.26Z"/>
          <path class="st6" d="M86.57,22.45c0,.89-.22,1.64-.65,2.26s-1.06,1.1-1.88,1.42c-.82.32-1.81.48-2.98.48-1.3,0-2.4-.18-3.3-.54s-1.59-.88-2.06-1.57c-.47-.69-.7-1.51-.7-2.46,0-.38.06-.77.17-1.17s.27-.77.47-1.11c.2-.35.44-.64.72-.89l1.02.48c-.42.39-.72.82-.92,1.29-.2.46-.3.94-.3,1.43,0,.52.1.98.3,1.38s.49.74.87,1.02c.38.28.87.49,1.45.63.58.14,1.26.21,2.02.21h1.49v.14c-.61-.06-1.13-.24-1.58-.54s-.78-.67-1.02-1.14-.35-.98-.35-1.54c0-.66.15-1.25.46-1.76.3-.51.72-.91,1.26-1.2.53-.29,1.15-.43,1.84-.43s1.33.15,1.89.46.99.73,1.3,1.26.47,1.16.47,1.86ZM85.45,22.53c0-.47-.1-.89-.31-1.25-.21-.36-.5-.65-.88-.85-.38-.2-.81-.3-1.3-.3s-.92.1-1.3.3c-.37.2-.67.48-.88.84-.21.36-.32.78-.32,1.26s.11.89.32,1.25c.21.36.51.65.88.85.37.2.8.3,1.3.3s.92-.1,1.3-.3.67-.48.88-.84c.21-.36.31-.78.31-1.26Z"/>
          <path class="st6" d="M86.42,16.05h-1.12v-2.58h-9.02v-.69l1.73,2.72-.98.56-1.89-2.96v-.94h10.16v-2.42h1.12v6.3Z"/>
        </g>
      </g>
    </g>
  </g>
  <g id="Layer_5">
    <g>
      <path id="Path_21850" class="st4" d="M136.59,318.1h26.78V117.77h-26.78v200.33Z"/>
      <g id="Group_63060">
        <path id="Path_21851" class="st1" d="M162.94,318.57V12.33"/>
      </g>
      <path id="Path_21852" class="st2" d="M153.98,20.11h8.98v-8.98h-8.98v8.98Z"/>
      <g id="_3_367" class="st7">
        <g class="st7">
          <path class="st6" d="M180.66,45.81c0,.5-.05.98-.16,1.45-.11.46-.26.9-.46,1.3s-.44.76-.73,1.07l-1.04-.48c.43-.52.74-1.05.93-1.58.19-.53.29-1.11.29-1.73,0-.54-.08-1-.24-1.38-.16-.37-.4-.66-.71-.85-.31-.19-.7-.29-1.16-.29-.66,0-1.16.22-1.5.66-.34.44-.51,1.07-.51,1.9v1.66h-1.14v-1.55c0-.49-.08-.91-.26-1.26s-.41-.62-.73-.81c-.31-.19-.7-.29-1.14-.29-.6,0-1.05.19-1.37.58-.31.38-.47.94-.47,1.66,0,.6.1,1.15.31,1.65s.53.98.97,1.42l-1.02.48c-.45-.43-.8-.96-1.05-1.61s-.38-1.32-.38-2.02.11-1.35.34-1.86c.23-.52.56-.91.99-1.19s.95-.42,1.56-.42c.69,0,1.29.19,1.78.58.5.38.83.91,1.02,1.57h-.18c.09-.52.26-.97.51-1.34.26-.37.58-.65.98-.84.4-.19.86-.29,1.37-.29.65,0,1.21.15,1.69.46.47.3.84.74,1.1,1.3.26.57.39,1.24.39,2.03Z"/>
          <path class="st6" d="M182.34,39.2l-.46.61c-.2-.19-.39-.34-.57-.44-.18-.1-.35-.17-.53-.21-.18-.04-.35-.06-.54-.06l.27-.29v1.06h-1.63v-1.63h1.15c.29,0,.56.03.82.09s.51.16.76.3c.25.14.49.33.72.58Z"/>
          <path class="st6" d="M180.66,32.56c0,.5-.05.98-.16,1.45-.11.46-.26.9-.46,1.3s-.44.76-.73,1.07l-1.04-.48c.43-.52.74-1.05.93-1.58.19-.53.29-1.11.29-1.73,0-.54-.08-1-.24-1.38-.16-.37-.4-.66-.71-.85-.31-.19-.7-.29-1.16-.29-.66,0-1.16.22-1.5.66-.34.44-.51,1.07-.51,1.9v1.66h-1.14v-1.55c0-.49-.08-.91-.26-1.26s-.41-.62-.73-.81c-.31-.19-.7-.29-1.14-.29-.6,0-1.05.19-1.37.58-.31.38-.47.94-.47,1.66,0,.6.1,1.15.31,1.65s.53.98.97,1.42l-1.02.48c-.45-.43-.8-.96-1.05-1.61s-.38-1.32-.38-2.02.11-1.35.34-1.86c.23-.52.56-.91.99-1.19s.95-.42,1.56-.42c.69,0,1.29.19,1.78.58.5.38.83.91,1.02,1.57h-.18c.09-.52.26-.97.51-1.34.26-.37.58-.65.98-.84.4-.19.86-.29,1.37-.29.65,0,1.21.15,1.69.46.47.3.84.74,1.1,1.3.26.57.39,1.24.39,2.03Z"/>
          <path class="st6" d="M180.66,22.45c0,.89-.22,1.64-.65,2.26s-1.06,1.1-1.88,1.42c-.82.32-1.81.48-2.98.48-1.3,0-2.4-.18-3.3-.54s-1.59-.88-2.06-1.57c-.47-.69-.7-1.51-.7-2.46,0-.38.06-.77.17-1.17s.27-.77.47-1.11c.2-.35.44-.64.72-.89l1.02.48c-.42.39-.72.82-.92,1.29-.2.46-.3.94-.3,1.43,0,.52.1.98.3,1.38s.49.74.87,1.02c.38.28.87.49,1.45.63.58.14,1.26.21,2.02.21h1.49v.14c-.61-.06-1.13-.24-1.58-.54s-.78-.67-1.02-1.14-.35-.98-.35-1.54c0-.66.15-1.25.46-1.76.3-.51.72-.91,1.26-1.2.53-.29,1.15-.43,1.84-.43s1.33.15,1.89.46.99.73,1.3,1.26.47,1.16.47,1.86ZM179.54,22.53c0-.47-.1-.89-.31-1.25-.21-.36-.5-.65-.88-.85-.38-.2-.81-.3-1.3-.3s-.92.1-1.3.3c-.37.2-.67.48-.88.84-.21.36-.32.78-.32,1.26s.11.89.32,1.25c.21.36.51.65.88.85.37.2.8.3,1.3.3s.92-.1,1.3-.3.67-.48.88-.84c.21-.36.31-.78.31-1.26Z"/>
          <path class="st6" d="M180.52,16.24l-10.72-5.54h.58v6.26h-1.14v-7.46h.99l10.29,5.28v1.46Z"/>
        </g>
      </g>
    </g>
  </g>
  <g id="Layer_6">
    <g>
      <path id="Path_21853" class="st4" d="M234.79,318.1h26.78V76.43h-26.78v241.67Z"/>
      <g id="Group_63061">
        <path id="Path_21854" class="st1" d="M261.13,318.57V12.33"/>
      </g>
      <path id="Path_21855" class="st2" d="M252.17,20.11h8.98v-8.98h-8.98v8.98Z"/>
      <g id="_4_067" class="st7">
        <g class="st7">
          <path class="st6" d="M279.61,44.45h-2.42v5.2h-.99l-7.87-5.42v-1.1h7.74v-1.68h1.12v1.68h2.42v1.33ZM276.07,44.45h-6.16v-.38l6.51,4.46h-.35v-4.08Z"/>
          <path class="st6" d="M281.43,39.2l-.46.61c-.2-.19-.39-.34-.57-.44-.18-.1-.35-.17-.53-.21-.18-.04-.35-.06-.54-.06l.27-.29v1.06h-1.63v-1.63h1.15c.29,0,.56.03.82.09s.51.16.76.3c.25.14.49.33.72.58Z"/>
          <path class="st6" d="M279.75,32.44c0,.85-.22,1.58-.66,2.17-.44.59-1.1,1.04-1.96,1.34-.86.3-1.92.45-3.17.45s-2.32-.15-3.18-.45c-.86-.3-1.51-.74-1.94-1.34-.44-.59-.66-1.31-.66-2.17s.22-1.59.66-2.18c.44-.59,1.08-1.03,1.94-1.33.85-.3,1.91-.45,3.17-.45s2.32.15,3.18.45c.86.3,1.52.74,1.96,1.33.44.59.66,1.31.66,2.18ZM278.62,32.44c0-.9-.38-1.56-1.14-1.99-.76-.43-1.94-.65-3.54-.65s-2.77.21-3.51.64-1.11,1.09-1.11,1.98.37,1.56,1.12,2c.75.44,1.92.66,3.52.66s2.76-.22,3.52-.65c.76-.43,1.14-1.1,1.14-1.99Z"/>
          <path class="st6" d="M279.75,22.45c0,.89-.22,1.64-.65,2.26s-1.06,1.1-1.88,1.42c-.82.32-1.81.48-2.98.48-1.3,0-2.4-.18-3.3-.54s-1.59-.88-2.06-1.57c-.47-.69-.7-1.51-.7-2.46,0-.38.06-.77.17-1.17s.27-.77.47-1.11c.2-.35.44-.64.72-.89l1.02.48c-.42.39-.72.82-.92,1.29-.2.46-.3.94-.3,1.43,0,.52.1.98.3,1.38s.49.74.87,1.02c.38.28.87.49,1.45.63.58.14,1.26.21,2.02.21h1.49v.14c-.61-.06-1.13-.24-1.58-.54s-.78-.67-1.02-1.14-.35-.98-.35-1.54c0-.66.15-1.25.46-1.76.3-.51.72-.91,1.26-1.2.53-.29,1.15-.43,1.84-.43s1.33.15,1.89.46.99.73,1.3,1.26.47,1.16.47,1.86ZM278.63,22.53c0-.47-.1-.89-.31-1.25-.21-.36-.5-.65-.88-.85-.38-.2-.81-.3-1.3-.3s-.92.1-1.3.3c-.37.2-.67.48-.88.84-.21.36-.32.78-.32,1.26s.11.89.32,1.25c.21.36.51.65.88.85.37.2.8.3,1.3.3s.92-.1,1.3-.3.67-.48.88-.84c.21-.36.31-.78.31-1.26Z"/>
          <path class="st6" d="M279.61,16.24l-10.72-5.54h.58v6.26h-1.14v-7.46h.99l10.29,5.28v1.46Z"/>
        </g>
      </g>
    </g>
  </g>
  <g id="Layer_7">
    <g>
      <g id="_11.5" class="st7">
        <g class="st7">
          <path class="st6" d="M70.51,186.22v-1.12h2.58v-9.02h.69l-2.72,1.73-.56-.98,2.96-1.89h.94v10.16h2.42v1.12h-6.3Z"/>
          <path class="st6" d="M80.11,186.22v-1.12h2.58v-9.02h.69l-2.72,1.73-.56-.98,2.96-1.89h.94v10.16h2.42v1.12h-6.3Z"/>
          <path class="st6" d="M88.73,186.22v-1.63h1.63v1.63h-1.63Z"/>
          <path class="st6" d="M96.41,186.36c-.48,0-.95-.05-1.41-.16s-.89-.26-1.29-.46c-.4-.2-.75-.44-1.06-.72l.5-1.04c.51.42,1.03.72,1.56.92.53.2,1.09.3,1.69.3.79,0,1.41-.22,1.85-.66.44-.44.66-1.01.66-1.73s-.21-1.34-.64-1.81c-.43-.47-1.01-.7-1.76-.7-.54,0-1.02.11-1.43.33-.41.22-.78.56-1.11,1.02h-.96v-6.7h6.54v1.12h-5.25v4.5h-.35c.28-.45.66-.79,1.15-1.03.49-.24,1.04-.36,1.65-.36.71,0,1.33.15,1.85.45.52.3.92.72,1.2,1.26.28.54.42,1.17.42,1.88s-.15,1.33-.46,1.87c-.31.54-.75.97-1.31,1.28-.57.31-1.24.46-2.03.46Z"/>
        </g>
      </g>
      <g id="_13.0" class="st7">
        <g class="st7">
          <path class="st6" d="M168.79,158.35v-1.12h2.58v-9.02h.69l-2.72,1.73-.56-.98,2.96-1.89h.94v10.16h2.42v1.12h-6.3Z"/>
          <path class="st6" d="M181.07,158.49c-.5,0-.98-.05-1.45-.16-.46-.11-.9-.26-1.3-.46s-.76-.44-1.07-.73l.48-1.04c.52.43,1.05.74,1.58.93.53.19,1.11.29,1.73.29.54,0,1-.08,1.38-.24.37-.16.66-.4.85-.71s.29-.7.29-1.16c0-.66-.22-1.16-.66-1.5-.44-.34-1.07-.51-1.9-.51h-1.66v-1.14h1.55c.49,0,.91-.08,1.26-.26s.62-.41.81-.73c.19-.31.29-.7.29-1.14,0-.6-.19-1.05-.58-1.37-.38-.31-.94-.47-1.66-.47-.6,0-1.15.1-1.65.31-.5.21-.98.53-1.42.97l-.48-1.02c.43-.45.96-.8,1.61-1.05s1.32-.38,2.02-.38,1.35.11,1.86.34.92.56,1.19.99.42.95.42,1.56c0,.69-.19,1.29-.58,1.78s-.91.83-1.57,1.02v-.18c.52.09.97.26,1.34.51.37.26.65.58.84.98.19.4.29.86.29,1.37,0,.65-.15,1.21-.46,1.69-.3.47-.74.84-1.3,1.1-.57.26-1.24.39-2.03.39Z"/>
          <path class="st6" d="M187.01,158.35v-1.63h1.63v1.63h-1.63Z"/>
          <path class="st6" d="M194.45,158.49c-.85,0-1.58-.22-2.17-.66-.59-.44-1.04-1.1-1.34-1.96-.3-.86-.45-1.92-.45-3.17s.15-2.32.45-3.18c.3-.86.74-1.51,1.34-1.94.59-.44,1.31-.66,2.17-.66s1.59.22,2.18.66c.59.44,1.03,1.08,1.33,1.94.3.85.45,1.91.45,3.17s-.15,2.32-.45,3.18c-.3.86-.74,1.52-1.33,1.96-.59.44-1.31.66-2.18.66ZM194.45,157.35c.9,0,1.56-.38,1.99-1.14.43-.76.65-1.94.65-3.54s-.21-2.77-.64-3.51-1.09-1.11-1.98-1.11-1.56.37-2,1.12c-.44.75-.66,1.92-.66,3.52s.22,2.76.65,3.52c.43.76,1.1,1.14,1.99,1.14Z"/>
        </g>
      </g>
      <g id="_14.3_" class="st7">
        <g class="st7">
          <path class="st6" d="M270.85,153.61v-1.12h2.58v-9.02h.69l-2.72,1.73-.56-.98,2.96-1.89h.94v10.16h2.42v1.12h-6.3Z"/>
          <path class="st6" d="M284.5,153.61v-2.42h-5.2v-.99l5.42-7.87h1.1v7.74h1.68v1.12h-1.68v2.42h-1.33ZM284.5,150.07v-6.16h.38l-4.46,6.51v-.35h4.08Z"/>
          <path class="st6" d="M289.07,153.61v-1.63h1.63v1.63h-1.63Z"/>
          <path class="st6" d="M296.38,153.75c-.5,0-.98-.05-1.45-.16s-.9-.26-1.3-.46-.76-.44-1.07-.73l.48-1.04c.52.43,1.05.74,1.58.93.53.19,1.11.29,1.73.29.54,0,1-.08,1.38-.24s.66-.4.85-.71c.19-.31.29-.7.29-1.16,0-.66-.22-1.16-.66-1.5-.44-.34-1.07-.51-1.9-.51h-1.66v-1.14h1.55c.49,0,.91-.08,1.26-.26s.62-.41.81-.73c.19-.31.29-.7.29-1.14,0-.6-.19-1.05-.58-1.37s-.94-.47-1.66-.47c-.6,0-1.15.1-1.65.31-.5.21-.98.53-1.42.97l-.48-1.02c.43-.45.96-.8,1.61-1.05s1.32-.38,2.02-.38,1.35.11,1.86.34c.52.23.91.56,1.19.99s.42.95.42,1.56c0,.69-.19,1.29-.58,1.78-.38.5-.91.83-1.57,1.02v-.18c.52.09.97.26,1.34.51.37.26.65.58.84.98.19.4.29.86.29,1.37,0,.65-.15,1.21-.46,1.69s-.74.84-1.3,1.1c-.57.26-1.24.39-2.03.39Z"/>
        </g>
      </g>
      <g id="Group_63064">
        <path id="Path_21859" class="st3" d="M50.97,211.13l99.32-33.92,98.06-17.99"/>
      </g>
      <path id="Path_21860" class="st5" d="M47.88,214.11h7.02v-7.09h-7.02v7.09Z"/>
      <path id="Path_21861" class="st5" d="M146.67,181.09h7.02v-7.09h-7.02v7.09Z"/>
      <path id="Path_21862" class="st5" d="M244.51,163.13h7.02v-7.09h-7.02v7.09Z"/>
    </g>
  </g>
</svg>