<?xml version="1.0" encoding="UTF-8"?>
<svg xmlns="http://www.w3.org/2000/svg" version="1.1" viewBox="0 0 312 385">
  <!-- Generator: Adobe Illustrator 29.5.1, SVG Export Plug-In . SVG Version: 2.1.0 Build 141)  -->
  <defs>
    <style>
      .st0 {
        fill: #c2eefc;
      }

      .st1, .st2 {
        fill: #fff;
      }

      .st3 {
        isolation: isolate;
      }

      .st4 {
        fill: none;
      }

      .st4, .st2 {
        stroke: #35cbf5;
        stroke-width: .5px;
      }
    </style>
  </defs>
  <g id="Layer_2">
    <g id="Group_63575">
      <path id="Path_21903" class="st4" d="M0,318.22h306.27"/>
    </g>
    <g id="FY_2022-23_" class="st3">
      <g class="st3">
        <path class="st1" d="M11.95,340.71v-11.28h6.98v1.1h-5.66v3.94h5.34v1.1h-5.34v5.14h-1.31Z"/>
        <path class="st1" d="M23.43,340.71v-5.84l.29.91-4.61-6.35h1.54l3.63,5.02h-.34l3.63-5.02h1.49l-4.59,6.35.27-.91v5.84h-1.31Z"/>
        <path class="st1" d="M34.41,340.71v-.99l3.86-4.16c.36-.39.66-.76.88-1.11.22-.35.39-.69.5-1.02.11-.33.16-.67.16-1.01,0-.64-.19-1.13-.58-1.46-.39-.34-.96-.5-1.7-.5-.58,0-1.11.1-1.61.31s-.97.53-1.42.97l-.5-1.02c.42-.43.95-.77,1.59-1.03.65-.26,1.33-.39,2.04-.39.76,0,1.4.12,1.92.35.52.24.92.58,1.18,1.03s.4,1.01.4,1.66c0,.34-.04.67-.12,1s-.2.65-.37.98c-.17.33-.37.66-.62,1-.25.34-.55.69-.9,1.06l-3.39,3.6v-.37h5.87v1.12h-7.18Z"/>
        <path class="st1" d="M47.37,340.86c-.85,0-1.58-.22-2.17-.66-.59-.44-1.04-1.1-1.34-1.96-.3-.86-.45-1.92-.45-3.17s.15-2.32.45-3.18c.3-.86.74-1.51,1.34-1.94.59-.44,1.31-.66,2.17-.66s1.59.22,2.18.66c.59.44,1.03,1.08,1.33,1.94.3.85.45,1.91.45,3.17s-.15,2.32-.45,3.18c-.3.86-.74,1.52-1.33,1.96-.59.44-1.31.66-2.18.66ZM47.37,339.72c.9,0,1.56-.38,1.99-1.14.43-.76.65-1.94.65-3.54s-.21-2.77-.64-3.51-1.09-1.11-1.98-1.11-1.56.37-2,1.12c-.44.75-.66,1.92-.66,3.52s.22,2.76.65,3.52c.43.76,1.1,1.14,1.99,1.14Z"/>
        <path class="st1" d="M53.61,340.71v-.99l3.86-4.16c.36-.39.66-.76.88-1.11.22-.35.39-.69.5-1.02.11-.33.16-.67.16-1.01,0-.64-.19-1.13-.58-1.46-.39-.34-.96-.5-1.7-.5-.58,0-1.11.1-1.61.31s-.97.53-1.42.97l-.5-1.02c.42-.43.95-.77,1.59-1.03.65-.26,1.33-.39,2.04-.39.76,0,1.4.12,1.92.35.52.24.92.58,1.18,1.03s.4,1.01.4,1.66c0,.34-.04.67-.12,1s-.2.65-.37.98c-.17.33-.37.66-.62,1-.25.34-.55.69-.9,1.06l-3.39,3.6v-.37h5.87v1.12h-7.18Z"/>
        <path class="st1" d="M63.21,340.71v-.99l3.86-4.16c.36-.39.66-.76.88-1.11.22-.35.39-.69.5-1.02.11-.33.16-.67.16-1.01,0-.64-.19-1.13-.58-1.46-.39-.34-.96-.5-1.7-.5-.58,0-1.11.1-1.61.31s-.97.53-1.42.97l-.5-1.02c.42-.43.95-.77,1.59-1.03.65-.26,1.33-.39,2.04-.39.76,0,1.4.12,1.92.35.52.24.92.58,1.18,1.03s.4,1.01.4,1.66c0,.34-.04.67-.12,1s-.2.65-.37.98c-.17.33-.37.66-.62,1-.25.34-.55.69-.9,1.06l-3.39,3.6v-.37h5.87v1.12h-7.18Z"/>
        <path class="st1" d="M72.52,336.99v-1.07h4.48v1.07h-4.48Z"/>
        <path class="st1" d="M79.59,340.71v-.99l3.86-4.16c.36-.39.66-.76.88-1.11.22-.35.39-.69.5-1.02.11-.33.16-.67.16-1.01,0-.64-.19-1.13-.58-1.46-.39-.34-.96-.5-1.7-.5-.58,0-1.11.1-1.61.31s-.97.53-1.42.97l-.5-1.02c.42-.43.95-.77,1.59-1.03.65-.26,1.33-.39,2.04-.39.76,0,1.4.12,1.92.35.52.24.92.58,1.18,1.03s.4,1.01.4,1.66c0,.34-.04.67-.12,1s-.2.65-.37.98c-.17.33-.37.66-.62,1-.25.34-.55.69-.9,1.06l-3.39,3.6v-.37h5.87v1.12h-7.18Z"/>
        <path class="st1" d="M92.42,340.86c-.5,0-.98-.05-1.45-.16-.46-.11-.9-.26-1.3-.46s-.76-.44-1.07-.73l.48-1.04c.52.43,1.05.74,1.58.93.53.19,1.11.29,1.73.29.54,0,1-.08,1.38-.24.37-.16.66-.4.85-.71.19-.31.29-.7.29-1.16,0-.66-.22-1.16-.66-1.5-.44-.34-1.07-.51-1.9-.51h-1.66v-1.14h1.55c.49,0,.91-.08,1.26-.26s.62-.41.81-.73c.19-.31.29-.7.29-1.14,0-.6-.19-1.05-.58-1.37-.38-.31-.94-.47-1.66-.47-.6,0-1.15.1-1.65.31s-.98.53-1.42.97l-.48-1.02c.43-.45.96-.8,1.61-1.05s1.32-.38,2.02-.38,1.35.11,1.86.34c.52.23.91.56,1.19.99s.42.95.42,1.56c0,.69-.19,1.29-.58,1.78-.38.5-.91.83-1.57,1.02v-.18c.52.09.97.26,1.34.51.37.26.65.58.84.98.19.4.29.86.29,1.37,0,.65-.15,1.21-.46,1.69-.3.47-.74.84-1.3,1.1-.57.26-1.24.39-2.03.39Z"/>
      </g>
    </g>
    <g id="FY_2023-24" class="st3">
      <g class="st3">
        <path class="st1" d="M110.57,340.71v-11.28h6.98v1.1h-5.66v3.94h5.34v1.1h-5.34v5.14h-1.31Z"/>
        <path class="st1" d="M122.06,340.71v-5.84l.29.91-4.61-6.35h1.54l3.63,5.02h-.34l3.63-5.02h1.49l-4.59,6.35.27-.91v5.84h-1.31Z"/>
        <path class="st1" d="M133.03,340.71v-.99l3.86-4.16c.36-.39.66-.76.88-1.11.22-.35.39-.69.5-1.02.11-.33.16-.67.16-1.01,0-.64-.19-1.13-.58-1.46-.39-.34-.96-.5-1.7-.5-.58,0-1.11.1-1.61.31s-.97.53-1.42.97l-.5-1.02c.42-.43.95-.77,1.59-1.03.65-.26,1.33-.39,2.04-.39.76,0,1.4.12,1.92.35.52.24.92.58,1.18,1.03s.4,1.01.4,1.66c0,.34-.04.67-.12,1s-.2.65-.37.98c-.17.33-.37.66-.62,1-.25.34-.55.69-.9,1.06l-3.39,3.6v-.37h5.87v1.12h-7.18Z"/>
        <path class="st1" d="M145.99,340.86c-.85,0-1.58-.22-2.17-.66-.59-.44-1.04-1.1-1.34-1.96-.3-.86-.45-1.92-.45-3.17s.15-2.32.45-3.18c.3-.86.74-1.51,1.34-1.94.59-.44,1.31-.66,2.17-.66s1.59.22,2.18.66c.59.44,1.03,1.08,1.33,1.94.3.85.45,1.91.45,3.17s-.15,2.32-.45,3.18c-.3.86-.74,1.52-1.33,1.96-.59.44-1.31.66-2.18.66ZM145.99,339.72c.9,0,1.56-.38,1.99-1.14.43-.76.65-1.94.65-3.54s-.21-2.77-.64-3.51-1.09-1.11-1.98-1.11-1.56.37-2,1.12c-.44.75-.66,1.92-.66,3.52s.22,2.76.65,3.52c.43.76,1.1,1.14,1.99,1.14Z"/>
        <path class="st1" d="M152.23,340.71v-.99l3.86-4.16c.36-.39.66-.76.88-1.11.22-.35.39-.69.5-1.02.11-.33.16-.67.16-1.01,0-.64-.19-1.13-.58-1.46-.39-.34-.96-.5-1.7-.5-.58,0-1.11.1-1.61.31s-.97.53-1.42.97l-.5-1.02c.42-.43.95-.77,1.59-1.03.65-.26,1.33-.39,2.04-.39.76,0,1.4.12,1.92.35.52.24.92.58,1.18,1.03s.4,1.01.4,1.66c0,.34-.04.67-.12,1s-.2.65-.37.98c-.17.33-.37.66-.62,1-.25.34-.55.69-.9,1.06l-3.39,3.6v-.37h5.87v1.12h-7.18Z"/>
        <path class="st1" d="M165.06,340.86c-.5,0-.98-.05-1.45-.16-.46-.11-.9-.26-1.3-.46s-.76-.44-1.07-.73l.48-1.04c.52.43,1.05.74,1.58.93.53.19,1.11.29,1.73.29.54,0,1-.08,1.38-.24.37-.16.66-.4.85-.71s.29-.7.29-1.16c0-.66-.22-1.16-.66-1.5-.44-.34-1.07-.51-1.9-.51h-1.66v-1.14h1.55c.49,0,.91-.08,1.26-.26s.62-.41.81-.73c.19-.31.29-.7.29-1.14,0-.6-.19-1.05-.58-1.37-.38-.31-.94-.47-1.66-.47-.6,0-1.15.1-1.65.31-.5.21-.98.53-1.42.97l-.48-1.02c.43-.45.96-.8,1.61-1.05s1.32-.38,2.02-.38,1.35.11,1.86.34.92.56,1.19.99.42.95.42,1.56c0,.69-.19,1.29-.58,1.78s-.91.83-1.57,1.02v-.18c.52.09.97.26,1.34.51.37.26.65.58.84.98.19.4.29.86.29,1.37,0,.65-.15,1.21-.46,1.69-.3.47-.74.84-1.3,1.1-.57.26-1.24.39-2.03.39Z"/>
        <path class="st1" d="M171.14,336.99v-1.07h4.48v1.07h-4.48Z"/>
        <path class="st1" d="M178.22,340.71v-.99l3.86-4.16c.36-.39.66-.76.88-1.11.22-.35.39-.69.5-1.02.11-.33.16-.67.16-1.01,0-.64-.19-1.13-.58-1.46s-.96-.5-1.7-.5c-.58,0-1.11.1-1.61.31s-.97.53-1.42.97l-.5-1.02c.42-.43.95-.77,1.59-1.03.65-.26,1.33-.39,2.04-.39.76,0,1.4.12,1.92.35.52.24.92.58,1.18,1.03s.4,1.01.4,1.66c0,.34-.04.67-.12,1s-.2.65-.37.98c-.17.33-.37.66-.62,1-.25.34-.55.69-.9,1.06l-3.39,3.6v-.37h5.87v1.12h-7.18Z"/>
        <path class="st1" d="M192.41,340.71v-2.42h-5.2v-.99l5.42-7.87h1.1v7.74h1.68v1.12h-1.68v2.42h-1.33ZM192.41,337.18v-6.16h.38l-4.46,6.51v-.35h4.08Z"/>
      </g>
    </g>
    <g id="FY_2024-25" class="st3">
      <g class="st3">
        <path class="st1" d="M209.19,340.71v-11.28h6.98v1.1h-5.66v3.94h5.34v1.1h-5.34v5.14h-1.31Z"/>
        <path class="st1" d="M220.68,340.71v-5.84l.29.91-4.61-6.35h1.54l3.63,5.02h-.34l3.63-5.02h1.49l-4.59,6.35.27-.91v5.84h-1.31Z"/>
        <path class="st1" d="M231.66,340.71v-.99l3.86-4.16c.36-.39.66-.76.88-1.11s.39-.69.5-1.02c.11-.33.16-.67.16-1.01,0-.64-.2-1.13-.58-1.46-.39-.34-.96-.5-1.7-.5-.58,0-1.11.1-1.61.31s-.97.53-1.42.97l-.5-1.02c.42-.43.95-.77,1.59-1.03.64-.26,1.33-.39,2.04-.39.76,0,1.4.12,1.92.35.52.24.92.58,1.18,1.03s.4,1.01.4,1.66c0,.34-.04.67-.12,1s-.2.65-.37.98c-.17.33-.37.66-.62,1-.25.34-.55.69-.9,1.06l-3.39,3.6v-.37h5.87v1.12h-7.18Z"/>
        <path class="st1" d="M244.62,340.86c-.85,0-1.58-.22-2.17-.66-.59-.44-1.04-1.1-1.34-1.96-.3-.86-.45-1.92-.45-3.17s.15-2.32.45-3.18c.3-.86.74-1.51,1.34-1.94.59-.44,1.31-.66,2.17-.66s1.59.22,2.18.66c.59.44,1.03,1.08,1.33,1.94.3.85.45,1.91.45,3.17s-.15,2.32-.45,3.18c-.3.86-.74,1.52-1.33,1.96-.59.44-1.31.66-2.18.66ZM244.62,339.72c.9,0,1.56-.38,1.99-1.14.43-.76.65-1.94.65-3.54s-.21-2.77-.64-3.51-1.09-1.11-1.98-1.11-1.56.37-2,1.12c-.44.75-.66,1.92-.66,3.52s.22,2.76.65,3.52c.43.76,1.1,1.14,1.99,1.14Z"/>
        <path class="st1" d="M250.86,340.71v-.99l3.86-4.16c.36-.39.66-.76.88-1.11.22-.35.39-.69.5-1.02.11-.33.16-.67.16-1.01,0-.64-.19-1.13-.58-1.46s-.96-.5-1.7-.5c-.58,0-1.11.1-1.61.31s-.97.53-1.42.97l-.5-1.02c.42-.43.95-.77,1.59-1.03.65-.26,1.33-.39,2.04-.39.76,0,1.4.12,1.92.35.52.24.92.58,1.18,1.03s.4,1.01.4,1.66c0,.34-.04.67-.12,1s-.2.65-.37.98c-.17.33-.37.66-.62,1-.25.34-.55.69-.9,1.06l-3.39,3.6v-.37h5.87v1.12h-7.18Z"/>
        <path class="st1" d="M265.05,340.71v-2.42h-5.2v-.99l5.42-7.87h1.1v7.74h1.68v1.12h-1.68v2.42h-1.33ZM265.05,337.18v-6.16h.38l-4.46,6.51v-.35h4.08Z"/>
        <path class="st1" d="M269.77,336.99v-1.07h4.48v1.07h-4.48Z"/>
        <path class="st1" d="M276.84,340.71v-.99l3.86-4.16c.36-.39.66-.76.88-1.11.22-.35.39-.69.5-1.02.11-.33.16-.67.16-1.01,0-.64-.19-1.13-.58-1.46s-.96-.5-1.7-.5c-.58,0-1.11.1-1.61.31s-.97.53-1.42.97l-.5-1.02c.42-.43.95-.77,1.59-1.03.65-.26,1.33-.39,2.04-.39.76,0,1.4.12,1.92.35.52.24.92.58,1.18,1.03s.4,1.01.4,1.66c0,.34-.04.67-.12,1s-.2.65-.37.98c-.17.33-.37.66-.62,1-.25.34-.55.69-.9,1.06l-3.39,3.6v-.37h5.87v1.12h-7.18Z"/>
        <path class="st1" d="M290.04,340.86c-.48,0-.95-.05-1.41-.16-.46-.11-.89-.26-1.29-.46-.4-.2-.75-.44-1.06-.72l.5-1.04c.51.42,1.03.72,1.56.92.53.2,1.09.3,1.69.3.79,0,1.41-.22,1.85-.66.44-.44.66-1.01.66-1.73s-.21-1.34-.64-1.81-1.01-.7-1.76-.7c-.54,0-1.02.11-1.43.33-.41.22-.78.56-1.11,1.02h-.96v-6.7h6.54v1.12h-5.25v4.5h-.35c.28-.45.66-.79,1.15-1.03.49-.24,1.04-.36,1.65-.36.71,0,1.33.15,1.85.45.52.3.92.72,1.2,1.26.28.54.42,1.17.42,1.88s-.15,1.33-.46,1.87-.75.97-1.31,1.28c-.57.31-1.24.46-2.03.46Z"/>
      </g>
    </g>
  </g>
  <g id="Layer_3">
    <path id="Path_22374" class="st0" d="M38.57,318.22h26.89V75.49h-26.89v242.73Z"/>
    <g id="Group_63566">
      <path id="Path_21905" class="st4" d="M65.03,318.69V11.1"/>
    </g>
    <path id="Path_22375" class="st2" d="M56.02,18.91h9.02v-9.02h-9.02v9.02Z"/>
    <g id="_28.7" class="st3">
      <g class="st3">
        <path class="st1" d="M85.74,38.94h-.99l-4.16-3.86c-.39-.36-.76-.66-1.11-.88-.35-.22-.69-.39-1.02-.5-.33-.11-.67-.16-1.01-.16-.64,0-1.13.19-1.46.58-.34.39-.5.96-.5,1.7,0,.58.1,1.11.31,1.61s.53.97.97,1.42l-1.02.5c-.43-.42-.77-.95-1.03-1.59-.26-.65-.39-1.33-.39-2.04,0-.76.12-1.4.35-1.92.24-.52.58-.92,1.03-1.18s1.01-.4,1.66-.4c.34,0,.67.04,1,.12s.65.2.98.37c.33.17.66.37,1,.62.34.25.69.55,1.06.9l3.6,3.39h-.37v-5.87h1.12v7.18Z"/>
        <path class="st1" d="M85.88,25.98c0,1.27-.27,2.26-.82,2.96-.55.7-1.31,1.06-2.3,1.06-.53,0-1.01-.11-1.42-.32-.41-.21-.74-.51-1-.9-.26-.38-.42-.83-.48-1.33h.24c-.11.46-.29.86-.55,1.2-.26.34-.58.61-.97.79-.38.19-.8.28-1.26.28-.95,0-1.69-.34-2.22-1.02s-.79-1.59-.79-2.73.26-2.07.79-2.74,1.27-1.02,2.22-1.02c.46,0,.88.09,1.27.28.39.19.71.45.97.79s.43.74.53,1.2h-.22c.06-.5.23-.94.49-1.32s.59-.67,1-.89.87-.32,1.39-.32c.99,0,1.76.35,2.31,1.06.55.7.82,1.69.82,2.96ZM79.49,25.98c0-.79-.18-1.4-.54-1.84-.36-.44-.86-.66-1.5-.66s-1.14.22-1.5.66c-.36.44-.54,1.05-.54,1.84s.18,1.39.54,1.82c.36.44.86.66,1.5.66s1.14-.22,1.5-.66c.36-.44.54-1.05.54-1.82ZM84.8,25.98c0-.91-.18-1.59-.53-2.06-.35-.46-.88-.7-1.58-.7s-1.25.23-1.59.7c-.35.46-.52,1.15-.52,2.06s.17,1.58.52,2.05c.35.47.88.7,1.59.7s1.23-.23,1.58-.7c.35-.47.53-1.15.53-2.05Z"/>
        <path class="st1" d="M85.74,20.17h-1.63v-1.63h1.63v1.63Z"/>
        <path class="st1" d="M85.74,15.74l-10.72-5.54h.58v6.26h-1.14v-7.46h.99l10.29,5.28v1.46Z"/>
      </g>
    </g>
  </g>
  <g id="Layer_4">
    <path id="Path_22376" class="st0" d="M137.2,318.22h26.89V101.82h-26.89v216.4Z"/>
    <g id="Group_63567">
      <path id="Path_21908" class="st4" d="M163.65,318.69V11.1"/>
    </g>
    <path id="Path_22377" class="st2" d="M154.65,18.91h9.02v-9.02h-9.02v9.02Z"/>
    <g id="_25.2" class="st3">
      <g class="st3">
        <path class="st1" d="M180.25,38.94h-.99l-4.16-3.86c-.39-.36-.76-.66-1.11-.88-.35-.22-.69-.39-1.02-.5-.33-.11-.67-.16-1.01-.16-.64,0-1.13.19-1.46.58-.34.39-.5.96-.5,1.7,0,.58.1,1.11.31,1.61s.53.97.97,1.42l-1.02.5c-.43-.42-.77-.95-1.03-1.59-.26-.65-.39-1.33-.39-2.04,0-.76.12-1.4.35-1.92.24-.52.58-.92,1.03-1.18s1.01-.4,1.66-.4c.34,0,.67.04,1,.12s.65.2.98.37c.33.17.66.37,1,.62.34.25.69.55,1.06.9l3.6,3.39h-.37v-5.87h1.12v7.18Z"/>
        <path class="st1" d="M180.39,25.74c0,.48-.05.95-.16,1.41s-.26.89-.46,1.29c-.2.4-.44.75-.72,1.06l-1.04-.5c.42-.51.72-1.03.92-1.56.2-.53.3-1.09.3-1.69,0-.79-.22-1.41-.66-1.85-.44-.44-1.01-.66-1.73-.66s-1.34.21-1.81.64c-.47.43-.7,1.01-.7,1.76,0,.54.11,1.02.33,1.43.22.41.56.78,1.02,1.11v.96h-6.7v-6.54h1.12v5.25h4.5v.35c-.45-.28-.79-.66-1.03-1.15-.24-.49-.36-1.04-.36-1.65,0-.71.15-1.33.45-1.85.3-.52.72-.92,1.26-1.2.54-.28,1.17-.42,1.88-.42s1.33.15,1.87.46c.54.31.97.75,1.28,1.31.31.57.46,1.24.46,2.03Z"/>
        <path class="st1" d="M180.25,20.17h-1.63v-1.63h1.63v1.63Z"/>
        <path class="st1" d="M180.25,16.09h-.99l-4.16-3.86c-.39-.36-.76-.66-1.11-.88-.35-.22-.69-.39-1.02-.5-.33-.11-.67-.16-1.01-.16-.64,0-1.13.19-1.46.58-.34.39-.5.96-.5,1.7,0,.58.1,1.11.31,1.61s.53.97.97,1.42l-1.02.5c-.43-.42-.77-.95-1.03-1.59-.26-.65-.39-1.33-.39-2.04,0-.76.12-1.4.35-1.92.24-.52.58-.92,1.03-1.18s1.01-.4,1.66-.4c.34,0,.67.04,1,.12s.65.2.98.37c.33.17.66.37,1,.62.34.25.69.55,1.06.9l3.6,3.39h-.37v-5.87h1.12v7.18Z"/>
      </g>
    </g>
  </g>
  <g id="Layer_5">
    <path id="Path_22378" class="st0" d="M235.82,318.22h26.89v-172.74h-26.89v172.74Z"/>
    <g id="Group_63568">
      <path id="Path_21911" class="st4" d="M262.28,318.69V11.1"/>
    </g>
    <path id="Path_22379" class="st2" d="M253.28,18.91h9.02v-9.02h-9.02v9.02Z"/>
    <g id="_20.5" class="st3">
      <g class="st3">
        <path class="st1" d="M279.78,38.94h-.99l-4.16-3.86c-.39-.36-.76-.66-1.11-.88-.35-.22-.69-.39-1.02-.5-.33-.11-.67-.16-1.01-.16-.64,0-1.13.19-1.46.58-.34.39-.5.96-.5,1.7,0,.58.1,1.11.31,1.61s.53.97.97,1.42l-1.02.5c-.43-.42-.77-.95-1.03-1.59-.26-.65-.39-1.33-.39-2.04,0-.76.12-1.4.35-1.92.24-.52.58-.92,1.03-1.18s1.01-.4,1.66-.4c.34,0,.67.04,1,.12s.65.2.98.37c.33.17.66.37,1,.62.34.25.69.55,1.06.9l3.6,3.39h-.37v-5.87h1.12v7.18Z"/>
        <path class="st1" d="M279.92,25.98c0,.85-.22,1.58-.66,2.17-.44.59-1.1,1.04-1.96,1.34-.86.3-1.92.45-3.17.45s-2.32-.15-3.18-.45c-.86-.3-1.51-.74-1.94-1.34-.44-.59-.66-1.31-.66-2.17s.22-1.59.66-2.18c.44-.59,1.08-1.03,1.94-1.33.85-.3,1.91-.45,3.17-.45s2.32.15,3.18.45c.86.3,1.52.74,1.96,1.33.44.59.66,1.31.66,2.18ZM278.79,25.98c0-.9-.38-1.56-1.14-1.99-.76-.43-1.94-.65-3.54-.65s-2.77.21-3.51.64-1.11,1.09-1.11,1.98.37,1.56,1.12,2c.75.44,1.92.66,3.52.66s2.76-.22,3.52-.65c.76-.43,1.14-1.1,1.14-1.99Z"/>
        <path class="st1" d="M279.78,20.17h-1.63v-1.63h1.63v1.63Z"/>
        <path class="st1" d="M279.92,12.49c0,.48-.05.95-.16,1.41s-.26.89-.46,1.29c-.2.4-.44.75-.72,1.06l-1.04-.5c.42-.51.72-1.03.92-1.56.2-.53.3-1.09.3-1.69,0-.79-.22-1.41-.66-1.85-.44-.44-1.01-.66-1.73-.66s-1.34.21-1.81.64c-.47.43-.7,1.01-.7,1.76,0,.54.11,1.02.33,1.43.22.41.56.78,1.02,1.11v.96h-6.7v-6.54h1.12v5.25h4.5v.35c-.45-.28-.79-.66-1.03-1.15-.24-.49-.36-1.04-.36-1.65,0-.71.15-1.33.45-1.85.3-.52.72-.92,1.26-1.2.54-.28,1.17-.42,1.88-.42s1.33.15,1.87.46c.54.31.97.75,1.28,1.31.31.57.46,1.24.46,2.03Z"/>
      </g>
    </g>
  </g>
</svg>