<?xml version="1.0" encoding="UTF-8"?>
<svg xmlns="http://www.w3.org/2000/svg" version="1.1" viewBox="0 0 312 385">
  <!-- Generator: Adobe Illustrator 29.5.1, SVG Export Plug-In . SVG Version: 2.1.0 Build 141)  -->
  <defs>
    <style>
      .st0, .st1, .st2 {
        stroke: #35cbf5;
      }

      .st0, .st1, .st3 {
        fill: none;
      }

      .st4 {
        fill: #c2eefc;
      }

      .st5 {
        fill: #53d2f6;
      }

      .st6, .st2 {
        fill: #fff;
      }

      .st7 {
        isolation: isolate;
      }

      .st1, .st2 {
        stroke-width: .5px;
      }

      .st3 {
        stroke: #707070;
      }
    </style>
  </defs>
  <g id="Layer_1">
    <g>
      <g id="EBITDA_margin_" class="st7">
        <g class="st7">
          <path class="st6" d="M56.68,381.91v-10.58h6.67v1.04h-5.48v3.66h5.16v1.04h-5.16v3.81h5.48v1.04h-6.67Z"/>
          <path class="st6" d="M65.42,381.91v-10.58h4.23c1.08,0,1.92.24,2.52.72.6.48.9,1.16.9,2.04,0,.66-.19,1.21-.58,1.65-.39.44-.91.73-1.57.87v-.21c.5.06.93.2,1.29.43.36.22.63.52.82.88s.29.79.29,1.28c0,.63-.14,1.16-.41,1.6s-.67.76-1.19.98-1.15.33-1.89.33h-4.41ZM66.62,376.06h2.85c.78,0,1.37-.16,1.78-.48.41-.32.61-.78.61-1.38s-.2-1.09-.61-1.4c-.4-.32-1-.47-1.78-.47h-2.85v3.74ZM66.62,380.92h3.09c.32,0,.61-.02.86-.08.25-.05.48-.13.67-.23.19-.1.35-.23.48-.38.13-.15.23-.33.29-.54s.1-.45.1-.71-.03-.51-.1-.71-.16-.38-.29-.54c-.13-.15-.29-.28-.48-.38-.19-.1-.41-.17-.67-.23-.25-.05-.54-.08-.86-.08h-3.09v3.87Z"/>
          <path class="st6" d="M75.56,381.91v-10.58h1.23v10.58h-1.23Z"/>
          <path class="st6" d="M82,381.91v-9.51h-3.84v-1.07h8.92v1.07h-3.84v9.51h-1.25Z"/>
          <path class="st6" d="M88.43,381.91v-10.58h3.57c1.15,0,2.12.2,2.92.61.79.41,1.4,1,1.81,1.79s.62,1.75.62,2.89-.21,2.11-.62,2.89c-.42.79-1.02,1.39-1.81,1.79s-1.77.61-2.92.61h-3.57ZM89.66,380.86h2.25c1.39,0,2.43-.36,3.11-1.07s1.03-1.77,1.03-3.18-.34-2.47-1.03-3.17-1.73-1.06-3.1-1.06h-2.25v8.48Z"/>
          <path class="st6" d="M98.54,381.91l4.67-10.58h1.05l4.67,10.58h-1.27l-1.31-3.01.6.31h-6.45l.62-.31-1.29,3.01h-1.27ZM103.72,372.77l-2.42,5.68-.36-.29h5.55l-.33.29-2.41-5.68h-.03Z"/>
          <path class="st6" d="M114.22,381.91v-7.29h1.19v1.62h-.17c.12-.37.3-.69.53-.95.23-.27.51-.47.84-.6.32-.13.68-.2,1.07-.2.62,0,1.12.15,1.51.44.38.29.64.75.77,1.37h-.23c.18-.56.5-1,.97-1.33.46-.33,1.01-.49,1.63-.49.55,0,1,.1,1.36.31s.62.53.8.95c.18.42.27.96.27,1.61v4.54h-1.21v-4.49c0-.67-.12-1.16-.35-1.48-.23-.31-.62-.47-1.17-.47-.39,0-.73.09-1.03.28-.29.19-.52.46-.67.8-.16.34-.23.75-.23,1.22v4.12h-1.21v-4.49c0-.67-.12-1.16-.35-1.48-.23-.31-.62-.47-1.16-.47-.4,0-.75.09-1.03.28-.29.19-.51.46-.67.8-.16.34-.23.75-.23,1.22v4.12h-1.21Z"/>
          <path class="st6" d="M129.32,382.04c-.5,0-.95-.1-1.34-.29-.4-.2-.71-.46-.94-.8s-.34-.72-.34-1.14c0-.54.14-.96.41-1.28.27-.31.73-.53,1.36-.66s1.5-.2,2.6-.2h.68v.8h-.66c-.61,0-1.12.02-1.53.06s-.73.11-.97.21c-.24.1-.41.23-.51.39-.1.16-.15.36-.15.6,0,.41.14.75.43,1,.29.26.67.39,1.16.39.4,0,.75-.09,1.06-.29.3-.19.54-.45.72-.78.17-.33.26-.71.26-1.14v-1.71c0-.62-.12-1.07-.38-1.34-.25-.28-.66-.41-1.23-.41-.44,0-.87.06-1.27.19-.41.12-.83.33-1.26.61l-.42-.88c.26-.18.56-.34.89-.47s.67-.24,1.03-.31c.36-.07.71-.1,1.04-.1.63,0,1.15.1,1.56.31s.71.51.92.93c.2.42.3.95.3,1.6v4.59h-1.14v-1.7h.13c-.08.38-.23.71-.46.98-.23.27-.5.48-.83.63-.33.15-.7.22-1.11.22Z"/>
          <path class="st6" d="M134.98,381.91v-7.29h1.19v1.72h-.15c.17-.59.47-1.04.89-1.34.42-.31.98-.48,1.67-.53l.44-.04.09,1.05-.77.09c-.68.06-1.2.28-1.57.65-.37.38-.55.89-.55,1.54v4.16h-1.23Z"/>
          <path class="st6" d="M143.57,384.74c-.63,0-1.22-.08-1.78-.25-.55-.17-1.05-.41-1.48-.74l.41-.88c.3.21.6.38.89.52.29.13.6.23.91.29.32.06.64.09.98.09.71,0,1.25-.19,1.61-.57.36-.38.55-.93.55-1.65v-1.69h.15c-.15.58-.47,1.04-.95,1.38-.49.34-1.05.51-1.7.51s-1.25-.15-1.74-.46c-.49-.31-.87-.73-1.13-1.28-.27-.55-.4-1.18-.4-1.9s.13-1.35.4-1.9.64-.97,1.13-1.27c.49-.3,1.07-.45,1.74-.45s1.23.17,1.71.5c.48.34.79.79.93,1.36h-.14v-1.72h1.19v6.76c0,.74-.12,1.36-.37,1.86-.25.5-.61.88-1.1,1.12-.49.25-1.1.38-1.81.38ZM143.39,380.75c.7,0,1.25-.24,1.67-.72.41-.48.61-1.12.61-1.93s-.21-1.45-.61-1.93c-.41-.47-.97-.71-1.67-.71s-1.24.24-1.65.71c-.41.47-.62,1.12-.62,1.93s.21,1.45.62,1.93c.41.48.96.72,1.65.72Z"/>
          <path class="st6" d="M148.99,372.8v-1.36h1.5v1.36h-1.5ZM149.14,381.91v-7.29h1.21v7.29h-1.21Z"/>
          <path class="st6" d="M152.62,381.91v-7.29h1.19v1.62h-.17c.21-.58.55-1.02,1.03-1.31.47-.29,1.02-.44,1.64-.44.58,0,1.06.1,1.45.31s.67.53.86.95c.19.42.28.96.28,1.61v4.54h-1.21v-4.47c0-.45-.06-.82-.17-1.11-.12-.29-.3-.5-.54-.64-.25-.14-.56-.21-.95-.21-.44,0-.82.09-1.15.28-.33.18-.58.45-.77.79s-.27.75-.27,1.21v4.16h-1.21Z"/>
          <path class="st6" d="M167.21,384.79c-.64-1.11-1.11-2.23-1.4-3.36-.29-1.13-.43-2.28-.43-3.46s.14-2.33.43-3.46.75-2.25,1.4-3.36l.87.33c-.31.74-.57,1.47-.78,2.18-.21.72-.37,1.43-.47,2.14-.1.71-.16,1.44-.16,2.17s.05,1.45.16,2.17c.11.71.26,1.43.47,2.14s.47,1.44.78,2.19l-.87.33Z"/>
          <path class="st6" d="M172,377.68c-.53,0-.99-.13-1.37-.38-.39-.25-.68-.62-.88-1.11-.2-.48-.3-1.07-.3-1.75,0-1.02.22-1.81.67-2.38.45-.56,1.08-.85,1.88-.85.53,0,.99.13,1.37.38s.67.62.88,1.1c.21.48.31,1.06.31,1.74s-.1,1.26-.31,1.74c-.21.48-.5.85-.88,1.11-.38.26-.83.39-1.37.39ZM172,376.79c.46,0,.83-.2,1.09-.59.27-.4.41-.98.41-1.76s-.13-1.37-.41-1.75c-.27-.39-.63-.58-1.09-.58s-.84.19-1.1.58c-.26.39-.4.97-.4,1.75s.13,1.37.4,1.76c.26.39.63.59,1.1.59ZM172.9,382.28l-.86-.5,6.23-10.83.84.5-6.21,10.83ZM179.17,382.04c-.52,0-.97-.13-1.36-.38-.38-.26-.68-.62-.88-1.11s-.31-1.07-.31-1.75c0-1.02.23-1.81.68-2.38.46-.56,1.08-.85,1.87-.85.53,0,.99.13,1.37.38s.67.62.88,1.1c.2.48.31,1.06.31,1.74s-.1,1.26-.3,1.75-.49.85-.87,1.11c-.38.25-.84.38-1.38.38ZM179.17,381.16c.47,0,.84-.2,1.1-.59.26-.39.4-.98.4-1.76s-.13-1.36-.4-1.75c-.26-.39-.63-.58-1.1-.58s-.82.2-1.09.58c-.27.39-.4.98-.4,1.75s.13,1.38.4,1.77c.26.39.63.58,1.09.58Z"/>
          <path class="st6" d="M183.95,384.79l-.87-.33c.32-.76.58-1.5.79-2.21s.36-1.43.46-2.13c.1-.7.15-1.42.15-2.15s-.05-1.45-.15-2.15-.25-1.42-.46-2.14c-.21-.72-.47-1.46-.79-2.21l.87-.33c.64,1.11,1.11,2.23,1.4,3.37s.43,2.29.43,3.46-.14,2.33-.43,3.46c-.29,1.13-.76,2.25-1.4,3.36Z"/>
        </g>
      </g>
      <g id="Group_63554">
        <path id="Path_21840" class="st0" d="M11.07,377.82h37.12"/>
      </g>
      <path id="Path_22353" class="st5" d="M26.46,381h6.37v-6.37h-6.37v6.37Z"/>
    </g>
  </g>
  <g id="Layer_2">
    <g>
      <g id="Group_63549">
        <path id="Path_21829" class="st1" d="M.29,319.17h304.93"/>
      </g>
      <g id="FY_2022-23_" class="st7">
        <g class="st7">
          <path class="st6" d="M12.19,342.62v-11.28h6.98v1.1h-5.66v3.94h5.34v1.1h-5.34v5.14h-1.31Z"/>
          <path class="st6" d="M23.67,342.62v-5.84l.29.91-4.61-6.35h1.54l3.63,5.02h-.34l3.63-5.02h1.49l-4.59,6.35.27-.91v5.84h-1.31Z"/>
          <path class="st6" d="M34.65,342.62v-.99l3.86-4.16c.36-.39.66-.76.88-1.11.22-.35.39-.69.5-1.02.11-.33.16-.67.16-1.01,0-.64-.19-1.13-.58-1.46-.39-.34-.96-.5-1.7-.5-.58,0-1.11.1-1.61.31s-.97.53-1.42.97l-.5-1.02c.42-.43.95-.77,1.59-1.03.65-.26,1.33-.39,2.04-.39.76,0,1.4.12,1.92.35.52.24.92.58,1.18,1.03s.4,1.01.4,1.66c0,.34-.04.67-.12,1s-.2.65-.37.98c-.17.33-.37.66-.62,1-.25.34-.55.69-.9,1.06l-3.39,3.6v-.37h5.87v1.12h-7.18Z"/>
          <path class="st6" d="M47.61,342.77c-.85,0-1.58-.22-2.17-.66-.59-.44-1.04-1.1-1.34-1.96-.3-.86-.45-1.92-.45-3.17s.15-2.32.45-3.18c.3-.86.74-1.51,1.34-1.94.59-.44,1.31-.66,2.17-.66s1.59.22,2.18.66c.59.44,1.03,1.08,1.33,1.94.3.85.45,1.91.45,3.17s-.15,2.32-.45,3.18c-.3.86-.74,1.52-1.33,1.96-.59.44-1.31.66-2.18.66ZM47.61,341.63c.9,0,1.56-.38,1.99-1.14.43-.76.65-1.94.65-3.54s-.21-2.77-.64-3.51-1.09-1.11-1.98-1.11-1.56.37-2,1.12c-.44.75-.66,1.92-.66,3.52s.22,2.76.65,3.52c.43.76,1.1,1.14,1.99,1.14Z"/>
          <path class="st6" d="M53.85,342.62v-.99l3.86-4.16c.36-.39.66-.76.88-1.11.22-.35.39-.69.5-1.02.11-.33.16-.67.16-1.01,0-.64-.19-1.13-.58-1.46-.39-.34-.96-.5-1.7-.5-.58,0-1.11.1-1.61.31s-.97.53-1.42.97l-.5-1.02c.42-.43.95-.77,1.59-1.03.65-.26,1.33-.39,2.04-.39.76,0,1.4.12,1.92.35.52.24.92.58,1.18,1.03s.4,1.01.4,1.66c0,.34-.04.67-.12,1s-.2.65-.37.98c-.17.33-.37.66-.62,1-.25.34-.55.69-.9,1.06l-3.39,3.6v-.37h5.87v1.12h-7.18Z"/>
          <path class="st6" d="M63.45,342.62v-.99l3.86-4.16c.36-.39.66-.76.88-1.11.22-.35.39-.69.5-1.02.11-.33.16-.67.16-1.01,0-.64-.19-1.13-.58-1.46-.39-.34-.96-.5-1.7-.5-.58,0-1.11.1-1.61.31s-.97.53-1.42.97l-.5-1.02c.42-.43.95-.77,1.59-1.03.65-.26,1.33-.39,2.04-.39.76,0,1.4.12,1.92.35.52.24.92.58,1.18,1.03s.4,1.01.4,1.66c0,.34-.04.67-.12,1s-.2.65-.37.98c-.17.33-.37.66-.62,1-.25.34-.55.69-.9,1.06l-3.39,3.6v-.37h5.87v1.12h-7.18Z"/>
          <path class="st6" d="M72.76,338.9v-1.07h4.48v1.07h-4.48Z"/>
          <path class="st6" d="M79.83,342.62v-.99l3.86-4.16c.36-.39.66-.76.88-1.11.22-.35.39-.69.5-1.02.11-.33.16-.67.16-1.01,0-.64-.19-1.13-.58-1.46-.39-.34-.96-.5-1.7-.5-.58,0-1.11.1-1.61.31s-.97.53-1.42.97l-.5-1.02c.42-.43.95-.77,1.59-1.03.65-.26,1.33-.39,2.04-.39.76,0,1.4.12,1.92.35.52.24.92.58,1.18,1.03s.4,1.01.4,1.66c0,.34-.04.67-.12,1s-.2.65-.37.98c-.17.33-.37.66-.62,1-.25.34-.55.69-.9,1.06l-3.39,3.6v-.37h5.87v1.12h-7.18Z"/>
          <path class="st6" d="M92.67,342.77c-.5,0-.98-.05-1.45-.16-.46-.11-.9-.26-1.3-.46s-.76-.44-1.07-.73l.48-1.04c.52.43,1.05.74,1.58.93.53.19,1.11.29,1.73.29.54,0,1-.08,1.38-.24.37-.16.66-.4.85-.71.19-.31.29-.7.29-1.16,0-.66-.22-1.16-.66-1.5-.44-.34-1.07-.51-1.9-.51h-1.66v-1.14h1.55c.49,0,.91-.08,1.26-.26s.62-.41.81-.73c.19-.31.29-.7.29-1.14,0-.6-.19-1.05-.58-1.37-.38-.31-.94-.47-1.66-.47-.6,0-1.15.1-1.65.31s-.98.53-1.42.97l-.48-1.02c.43-.45.96-.8,1.61-1.05s1.32-.38,2.02-.38,1.35.11,1.86.34c.52.23.91.56,1.19.99s.42.95.42,1.56c0,.69-.19,1.29-.58,1.78-.38.5-.91.83-1.57,1.02v-.18c.52.09.97.26,1.34.51.37.26.65.58.84.98.19.4.29.86.29,1.37,0,.65-.15,1.21-.46,1.69-.3.47-.74.84-1.3,1.1-.57.26-1.24.39-2.03.39Z"/>
        </g>
      </g>
      <g id="FY_2023-24" class="st7">
        <g class="st7">
          <path class="st6" d="M110.38,342.62v-11.28h6.98v1.1h-5.66v3.94h5.34v1.1h-5.34v5.14h-1.31Z"/>
          <path class="st6" d="M121.87,342.62v-5.84l.29.91-4.61-6.35h1.54l3.63,5.02h-.34l3.63-5.02h1.49l-4.59,6.35.27-.91v5.84h-1.31Z"/>
          <path class="st6" d="M132.84,342.62v-.99l3.86-4.16c.36-.39.66-.76.88-1.11.22-.35.39-.69.5-1.02.11-.33.16-.67.16-1.01,0-.64-.19-1.13-.58-1.46-.39-.34-.96-.5-1.7-.5-.58,0-1.11.1-1.61.31s-.97.53-1.42.97l-.5-1.02c.42-.43.95-.77,1.59-1.03.65-.26,1.33-.39,2.04-.39.76,0,1.4.12,1.92.35.52.24.92.58,1.18,1.03s.4,1.01.4,1.66c0,.34-.04.67-.12,1s-.2.65-.37.98c-.17.33-.37.66-.62,1-.25.34-.55.69-.9,1.06l-3.39,3.6v-.37h5.87v1.12h-7.18Z"/>
          <path class="st6" d="M145.8,342.77c-.85,0-1.58-.22-2.17-.66-.59-.44-1.04-1.1-1.34-1.96-.3-.86-.45-1.92-.45-3.17s.15-2.32.45-3.18c.3-.86.74-1.51,1.34-1.94.59-.44,1.31-.66,2.17-.66s1.59.22,2.18.66c.59.44,1.03,1.08,1.33,1.94.3.85.45,1.91.45,3.17s-.15,2.32-.45,3.18c-.3.86-.74,1.52-1.33,1.96-.59.44-1.31.66-2.18.66ZM145.8,341.63c.9,0,1.56-.38,1.99-1.14.43-.76.65-1.94.65-3.54s-.21-2.77-.64-3.51-1.09-1.11-1.98-1.11-1.56.37-2,1.12c-.44.75-.66,1.92-.66,3.52s.22,2.76.65,3.52c.43.76,1.1,1.14,1.99,1.14Z"/>
          <path class="st6" d="M152.04,342.62v-.99l3.86-4.16c.36-.39.66-.76.88-1.11s.39-.69.5-1.02c.11-.33.16-.67.16-1.01,0-.64-.2-1.13-.58-1.46-.39-.34-.96-.5-1.7-.5-.58,0-1.11.1-1.61.31s-.97.53-1.42.97l-.5-1.02c.42-.43.95-.77,1.59-1.03.65-.26,1.33-.39,2.04-.39.76,0,1.4.12,1.92.35.52.24.92.58,1.18,1.03s.4,1.01.4,1.66c0,.34-.04.67-.12,1s-.2.65-.37.98c-.17.33-.37.66-.62,1-.25.34-.55.69-.9,1.06l-3.39,3.6v-.37h5.87v1.12h-7.18Z"/>
          <path class="st6" d="M164.88,342.77c-.5,0-.98-.05-1.45-.16s-.9-.26-1.3-.46-.76-.44-1.07-.73l.48-1.04c.52.43,1.05.74,1.58.93.53.19,1.11.29,1.73.29.54,0,1-.08,1.38-.24s.66-.4.85-.71c.19-.31.29-.7.29-1.16,0-.66-.22-1.16-.66-1.5-.44-.34-1.07-.51-1.9-.51h-1.66v-1.14h1.55c.49,0,.91-.08,1.26-.26s.62-.41.81-.73c.19-.31.29-.7.29-1.14,0-.6-.19-1.05-.58-1.37s-.94-.47-1.66-.47c-.6,0-1.15.1-1.65.31-.5.21-.98.53-1.42.97l-.48-1.02c.43-.45.96-.8,1.61-1.05s1.32-.38,2.02-.38,1.35.11,1.86.34c.52.23.91.56,1.19.99s.42.95.42,1.56c0,.69-.19,1.29-.58,1.78-.38.5-.91.83-1.57,1.02v-.18c.52.09.97.26,1.34.51.37.26.65.58.84.98.19.4.29.86.29,1.37,0,.65-.15,1.21-.46,1.69s-.74.84-1.3,1.1c-.57.26-1.24.39-2.03.39Z"/>
          <path class="st6" d="M170.96,338.9v-1.07h4.48v1.07h-4.48Z"/>
          <path class="st6" d="M178.03,342.62v-.99l3.86-4.16c.36-.39.66-.76.88-1.11s.39-.69.5-1.02c.11-.33.16-.67.16-1.01,0-.64-.2-1.13-.58-1.46-.39-.34-.96-.5-1.7-.5-.58,0-1.11.1-1.61.31s-.97.53-1.42.97l-.5-1.02c.42-.43.95-.77,1.59-1.03.64-.26,1.33-.39,2.04-.39.76,0,1.4.12,1.92.35.52.24.92.58,1.18,1.03s.4,1.01.4,1.66c0,.34-.04.67-.12,1s-.2.65-.37.98c-.17.33-.37.66-.62,1-.25.34-.55.69-.9,1.06l-3.39,3.6v-.37h5.87v1.12h-7.18Z"/>
          <path class="st6" d="M192.22,342.62v-2.42h-5.2v-.99l5.42-7.87h1.1v7.74h1.68v1.12h-1.68v2.42h-1.33ZM192.22,339.09v-6.16h.38l-4.46,6.51v-.35h4.08Z"/>
        </g>
      </g>
      <g id="FY_2024-25" class="st7">
        <g class="st7">
          <path class="st6" d="M208.57,342.62v-11.28h6.98v1.1h-5.66v3.94h5.34v1.1h-5.34v5.14h-1.31Z"/>
          <path class="st6" d="M220.06,342.62v-5.84l.29.91-4.61-6.35h1.54l3.63,5.02h-.34l3.63-5.02h1.49l-4.59,6.35.27-.91v5.84h-1.31Z"/>
          <path class="st6" d="M231.04,342.62v-.99l3.86-4.16c.36-.39.66-.76.88-1.11.22-.35.39-.69.5-1.02.11-.33.16-.67.16-1.01,0-.64-.19-1.13-.58-1.46s-.96-.5-1.7-.5c-.58,0-1.11.1-1.61.31s-.97.53-1.42.97l-.5-1.02c.42-.43.95-.77,1.59-1.03.65-.26,1.33-.39,2.04-.39.76,0,1.4.12,1.92.35.52.24.92.58,1.18,1.03s.4,1.01.4,1.66c0,.34-.04.67-.12,1s-.2.65-.37.98c-.17.33-.37.66-.62,1-.25.34-.55.69-.9,1.06l-3.39,3.6v-.37h5.87v1.12h-7.18Z"/>
          <path class="st6" d="M244,342.77c-.85,0-1.58-.22-2.17-.66-.59-.44-1.04-1.1-1.34-1.96-.3-.86-.45-1.92-.45-3.17s.15-2.32.45-3.18c.3-.86.74-1.51,1.34-1.94s1.31-.66,2.17-.66,1.59.22,2.18.66,1.03,1.08,1.33,1.94.45,1.91.45,3.17-.15,2.32-.45,3.18c-.3.86-.74,1.52-1.33,1.96-.59.44-1.31.66-2.18.66ZM244,341.63c.9,0,1.56-.38,1.99-1.14.43-.76.65-1.94.65-3.54s-.21-2.77-.64-3.51-1.09-1.11-1.98-1.11-1.56.37-2,1.12c-.44.75-.66,1.92-.66,3.52s.22,2.76.65,3.52c.43.76,1.1,1.14,1.99,1.14Z"/>
          <path class="st6" d="M250.24,342.62v-.99l3.86-4.16c.36-.39.66-.76.88-1.11s.39-.69.5-1.02c.11-.33.16-.67.16-1.01,0-.64-.2-1.13-.58-1.46-.39-.34-.96-.5-1.7-.5-.58,0-1.11.1-1.61.31s-.97.53-1.42.97l-.5-1.02c.42-.43.95-.77,1.59-1.03.64-.26,1.33-.39,2.04-.39.76,0,1.4.12,1.92.35.52.24.92.58,1.18,1.03s.4,1.01.4,1.66c0,.34-.04.67-.12,1s-.2.65-.37.98c-.17.33-.37.66-.62,1-.25.34-.55.69-.9,1.06l-3.39,3.6v-.37h5.87v1.12h-7.18Z"/>
          <path class="st6" d="M264.43,342.62v-2.42h-5.2v-.99l5.42-7.87h1.1v7.74h1.68v1.12h-1.68v2.42h-1.33ZM264.43,339.09v-6.16h.38l-4.46,6.51v-.35h4.08Z"/>
          <path class="st6" d="M269.15,338.9v-1.07h4.48v1.07h-4.48Z"/>
          <path class="st6" d="M276.22,342.62v-.99l3.86-4.16c.36-.39.66-.76.88-1.11s.39-.69.5-1.02c.11-.33.16-.67.16-1.01,0-.64-.2-1.13-.58-1.46-.39-.34-.96-.5-1.7-.5-.58,0-1.11.1-1.61.31s-.97.53-1.42.97l-.5-1.02c.42-.43.95-.77,1.59-1.03.64-.26,1.33-.39,2.04-.39.76,0,1.4.12,1.92.35.52.24.92.58,1.18,1.03s.4,1.01.4,1.66c0,.34-.04.67-.12,1s-.2.65-.37.98c-.17.33-.37.66-.62,1-.25.34-.55.69-.9,1.06l-3.39,3.6v-.37h5.87v1.12h-7.18Z"/>
          <path class="st6" d="M289.42,342.77c-.48,0-.95-.05-1.41-.16-.46-.11-.89-.26-1.29-.46-.4-.2-.75-.44-1.06-.72l.5-1.04c.51.42,1.03.72,1.56.92.53.2,1.09.3,1.69.3.79,0,1.41-.22,1.85-.66s.66-1.01.66-1.73-.21-1.34-.64-1.81c-.43-.47-1.01-.7-1.76-.7-.54,0-1.02.11-1.43.33s-.78.56-1.11,1.02h-.96v-6.7h6.54v1.12h-5.25v4.5h-.35c.28-.45.66-.79,1.15-1.03.49-.24,1.04-.36,1.65-.36.71,0,1.33.15,1.85.45.52.3.92.72,1.2,1.26.28.54.42,1.17.42,1.88s-.16,1.33-.46,1.87c-.31.54-.75.97-1.31,1.28-.57.31-1.24.46-2.03.46Z"/>
        </g>
      </g>
    </g>
  </g>
  <g id="Layer_3">
    <g>
      <g>
        <path id="Path_22346" class="st4" d="M38.69,319.17h26.78v-166.37h-26.78v166.37Z"/>
        <g id="Group_63550">
          <path id="Path_21831" class="st1" d="M65.03,319.64V13.39"/>
        </g>
        <path id="Path_22347" class="st2" d="M56.07,21.17h8.98v-8.98h-8.98v8.98Z"/>
      </g>
      <g id="_4_370" class="st7">
        <g class="st7">
          <path class="st6" d="M86.71,45.52h-2.42v5.2h-.99l-7.87-5.42v-1.1h7.74v-1.68h1.12v1.68h2.42v1.33ZM83.17,45.52h-6.16v-.38l6.51,4.46h-.35v-4.08Z"/>
          <path class="st6" d="M88.53,40.27l-.46.61c-.2-.19-.39-.34-.57-.44-.18-.1-.35-.17-.53-.21-.18-.04-.35-.06-.54-.06l.27-.29v1.06h-1.63v-1.63h1.15c.29,0,.56.03.82.09s.51.16.76.3c.25.14.49.33.72.58Z"/>
          <path class="st6" d="M86.85,33.63c0,.5-.05.98-.16,1.45-.11.46-.26.9-.46,1.3s-.44.76-.73,1.07l-1.04-.48c.43-.52.74-1.05.93-1.58.19-.53.29-1.11.29-1.73,0-.54-.08-1-.24-1.38-.16-.37-.4-.66-.71-.85-.31-.19-.7-.29-1.16-.29-.66,0-1.16.22-1.5.66-.34.44-.51,1.07-.51,1.9v1.66h-1.14v-1.55c0-.49-.08-.91-.26-1.26s-.41-.62-.73-.81c-.31-.19-.7-.29-1.14-.29-.6,0-1.05.19-1.37.58-.31.38-.47.94-.47,1.66,0,.6.1,1.15.31,1.65s.53.98.97,1.42l-1.02.48c-.45-.43-.8-.96-1.05-1.61s-.38-1.32-.38-2.02.11-1.35.34-1.86c.23-.52.56-.91.99-1.19s.95-.42,1.56-.42c.69,0,1.29.19,1.78.58.5.38.83.91,1.02,1.57h-.18c.09-.52.26-.97.51-1.34.26-.37.58-.65.98-.84.4-.19.86-.29,1.37-.29.65,0,1.21.15,1.69.46.47.3.84.74,1.1,1.3.26.57.39,1.24.39,2.03Z"/>
          <path class="st6" d="M86.71,26.91l-10.72-5.54h.58v6.26h-1.14v-7.46h.99l10.29,5.28v1.46Z"/>
          <path class="st6" d="M86.85,14.3c0,.85-.22,1.58-.66,2.17-.44.59-1.1,1.04-1.96,1.34-.86.3-1.92.45-3.17.45s-2.32-.15-3.18-.45c-.86-.3-1.51-.74-1.94-1.34-.44-.59-.66-1.31-.66-2.17s.22-1.59.66-2.18c.44-.59,1.08-1.03,1.94-1.33.85-.3,1.91-.45,3.17-.45s2.32.15,3.18.45c.86.3,1.52.74,1.96,1.33.44.59.66,1.31.66,2.18ZM85.72,14.3c0-.9-.38-1.56-1.14-1.99-.76-.43-1.94-.65-3.54-.65s-2.77.21-3.51.64-1.11,1.09-1.11,1.98.37,1.56,1.12,2c.75.44,1.92.66,3.52.66s2.76-.22,3.52-.65c.76-.43,1.14-1.1,1.14-1.99Z"/>
        </g>
      </g>
    </g>
  </g>
  <g id="Layer_4">
    <g>
      <path id="Path_22348" class="st4" d="M136.88,319.17h26.78V95.98h-26.78v223.19Z"/>
      <g id="Group_63551">
        <path id="Path_21834" class="st1" d="M163.23,319.64V13.39"/>
      </g>
      <path id="Path_22349" class="st2" d="M154.27,21.17h8.98v-8.98h-8.98v8.98Z"/>
      <g id="_5_356" class="st7">
        <g class="st7">
          <path class="st6" d="M180.95,46.51c0,.48-.05.95-.16,1.41s-.26.89-.46,1.29c-.2.4-.44.75-.72,1.06l-1.04-.5c.42-.51.72-1.03.92-1.56.2-.53.3-1.09.3-1.69,0-.79-.22-1.41-.66-1.85-.44-.44-1.01-.66-1.73-.66s-1.34.21-1.81.64c-.47.43-.7,1.01-.7,1.76,0,.54.11,1.02.33,1.43.22.41.56.78,1.02,1.11v.96h-6.7v-6.54h1.12v5.25h4.5v.35c-.45-.28-.79-.66-1.03-1.15-.24-.49-.36-1.04-.36-1.65,0-.71.15-1.33.45-1.85.3-.52.72-.92,1.26-1.2.54-.28,1.17-.42,1.88-.42s1.33.15,1.87.46c.54.31.97.75,1.28,1.31.31.57.46,1.24.46,2.03Z"/>
          <path class="st6" d="M182.63,40.27l-.46.61c-.2-.19-.39-.34-.57-.44-.18-.1-.35-.17-.53-.21-.18-.04-.35-.06-.54-.06l.27-.29v1.06h-1.63v-1.63h1.15c.29,0,.56.03.82.09s.51.16.76.3c.25.14.49.33.72.58Z"/>
          <path class="st6" d="M180.95,33.63c0,.5-.05.98-.16,1.45-.11.46-.26.9-.46,1.3s-.44.76-.73,1.07l-1.04-.48c.43-.52.74-1.05.93-1.58.19-.53.29-1.11.29-1.73,0-.54-.08-1-.24-1.38-.16-.37-.4-.66-.71-.85-.31-.19-.7-.29-1.16-.29-.66,0-1.16.22-1.5.66-.34.44-.51,1.07-.51,1.9v1.66h-1.14v-1.55c0-.49-.08-.91-.26-1.26s-.41-.62-.73-.81c-.31-.19-.7-.29-1.14-.29-.6,0-1.05.19-1.37.58-.31.38-.47.94-.47,1.66,0,.6.1,1.15.31,1.65s.53.98.97,1.42l-1.02.48c-.45-.43-.8-.96-1.05-1.61s-.38-1.32-.38-2.02.11-1.35.34-1.86c.23-.52.56-.91.99-1.19s.95-.42,1.56-.42c.69,0,1.29.19,1.78.58.5.38.83.91,1.02,1.57h-.18c.09-.52.26-.97.51-1.34.26-.37.58-.65.98-.84.4-.19.86-.29,1.37-.29.65,0,1.21.15,1.69.46.47.3.84.74,1.1,1.3.26.57.39,1.24.39,2.03Z"/>
          <path class="st6" d="M180.95,23.66c0,.48-.05.95-.16,1.41s-.26.89-.46,1.29c-.2.4-.44.75-.72,1.06l-1.04-.5c.42-.51.72-1.03.92-1.56.2-.53.3-1.09.3-1.69,0-.79-.22-1.41-.66-1.85-.44-.44-1.01-.66-1.73-.66s-1.34.21-1.81.64c-.47.43-.7,1.01-.7,1.76,0,.54.11,1.02.33,1.43.22.41.56.78,1.02,1.11v.96h-6.7v-6.54h1.12v5.25h4.5v.35c-.45-.28-.79-.66-1.03-1.15-.24-.49-.36-1.04-.36-1.65,0-.71.15-1.33.45-1.85.3-.52.72-.92,1.26-1.2.54-.28,1.17-.42,1.88-.42s1.33.15,1.87.46c.54.31.97.75,1.28,1.31.31.57.46,1.24.46,2.03Z"/>
          <path class="st6" d="M180.95,13.92c0,.89-.22,1.64-.65,2.26s-1.06,1.1-1.88,1.42c-.82.32-1.81.48-2.98.48-1.3,0-2.4-.18-3.3-.54s-1.59-.88-2.06-1.57c-.47-.69-.7-1.51-.7-2.46,0-.38.06-.77.17-1.17s.27-.77.47-1.11c.2-.35.44-.64.72-.89l1.02.48c-.42.39-.72.82-.92,1.29-.2.46-.3.94-.3,1.43,0,.52.1.98.3,1.38s.49.74.87,1.02c.38.28.87.49,1.45.63.58.14,1.26.21,2.02.21h1.49v.14c-.61-.06-1.13-.24-1.58-.54s-.78-.67-1.02-1.14-.35-.98-.35-1.54c0-.66.15-1.25.46-1.76.3-.51.72-.91,1.26-1.2.53-.29,1.15-.43,1.84-.43s1.33.15,1.89.46.99.73,1.3,1.26.47,1.16.47,1.86ZM179.83,14c0-.47-.1-.89-.31-1.25-.21-.36-.5-.65-.88-.85-.38-.2-.81-.3-1.3-.3s-.92.1-1.3.3c-.37.2-.67.48-.88.84-.21.36-.32.78-.32,1.26s.11.89.32,1.25c.21.36.51.65.88.85.37.2.8.3,1.3.3s.92-.1,1.3-.3.67-.48.88-.84c.21-.36.31-.78.31-1.26Z"/>
        </g>
      </g>
    </g>
  </g>
  <g id="Layer_5">
    <g>
      <path id="Path_22350" class="st4" d="M235.08,319.17h26.78V77.78h-26.78v241.39Z"/>
      <g id="Group_63552">
        <path id="Path_21837" class="st1" d="M261.42,319.64V13.39"/>
      </g>
      <path id="Path_22351" class="st2" d="M252.46,21.17h8.98v-8.98h-8.98v8.98Z"/>
      <g id="_5_622" class="st7">
        <g class="st7">
          <path class="st6" d="M280.04,46.51c0,.48-.05.95-.16,1.41s-.26.89-.46,1.29c-.2.4-.44.75-.72,1.06l-1.04-.5c.42-.51.72-1.03.92-1.56.2-.53.3-1.09.3-1.69,0-.79-.22-1.41-.66-1.85-.44-.44-1.01-.66-1.73-.66s-1.34.21-1.81.64c-.47.43-.7,1.01-.7,1.76,0,.54.11,1.02.33,1.43.22.41.56.78,1.02,1.11v.96h-6.7v-6.54h1.12v5.25h4.5v.35c-.45-.28-.79-.66-1.03-1.15-.24-.49-.36-1.04-.36-1.65,0-.71.15-1.33.45-1.85.3-.52.72-.92,1.26-1.2.54-.28,1.17-.42,1.88-.42s1.33.15,1.87.46c.54.31.97.75,1.28,1.31.31.57.46,1.24.46,2.03Z"/>
          <path class="st6" d="M281.72,40.27l-.46.61c-.2-.19-.39-.34-.57-.44-.18-.1-.35-.17-.53-.21-.18-.04-.35-.06-.54-.06l.27-.29v1.06h-1.63v-1.63h1.15c.29,0,.56.03.82.09s.51.16.76.3c.25.14.49.33.72.58Z"/>
          <path class="st6" d="M280.04,33.12c0,.89-.22,1.64-.65,2.26s-1.06,1.1-1.88,1.42c-.82.32-1.81.48-2.98.48-1.3,0-2.4-.18-3.3-.54s-1.59-.88-2.06-1.57c-.47-.69-.7-1.51-.7-2.46,0-.38.06-.77.17-1.17s.27-.77.47-1.11c.2-.35.44-.64.72-.89l1.02.48c-.42.39-.72.82-.92,1.29-.2.46-.3.94-.3,1.43,0,.52.1.98.3,1.38s.49.74.87,1.02c.38.28.87.49,1.45.63.58.14,1.26.21,2.02.21h1.49v.14c-.61-.06-1.13-.24-1.58-.54s-.78-.67-1.02-1.14-.35-.98-.35-1.54c0-.66.15-1.25.46-1.76.3-.51.72-.91,1.26-1.2.53-.29,1.15-.43,1.84-.43s1.33.15,1.89.46.99.73,1.3,1.26.47,1.16.47,1.86ZM278.92,33.2c0-.47-.1-.89-.31-1.25-.21-.36-.5-.65-.88-.85-.38-.2-.81-.3-1.3-.3s-.92.1-1.3.3c-.37.2-.67.48-.88.84-.21.36-.32.78-.32,1.26s.11.89.32,1.25c.21.36.51.65.88.85.37.2.8.3,1.3.3s.92-.1,1.3-.3.67-.48.88-.84c.21-.36.31-.78.31-1.26Z"/>
          <path class="st6" d="M279.9,27.26h-.99l-4.16-3.86c-.39-.36-.76-.66-1.11-.88-.35-.22-.69-.39-1.02-.5-.33-.11-.67-.16-1.01-.16-.64,0-1.13.19-1.46.58-.34.39-.5.96-.5,1.7,0,.58.1,1.11.31,1.61s.53.97.97,1.42l-1.02.5c-.43-.42-.77-.95-1.03-1.59-.26-.65-.39-1.33-.39-2.04,0-.76.12-1.4.35-1.92.24-.52.58-.92,1.03-1.18s1.01-.4,1.66-.4c.34,0,.67.04,1,.12s.65.2.98.37c.33.17.66.37,1,.62.34.25.69.55,1.06.9l3.6,3.39h-.37v-5.87h1.12v7.18Z"/>
          <path class="st6" d="M279.9,17.66h-.99l-4.16-3.86c-.39-.36-.76-.66-1.11-.88-.35-.22-.69-.39-1.02-.5-.33-.11-.67-.16-1.01-.16-.64,0-1.13.19-1.46.58-.34.39-.5.96-.5,1.7,0,.58.1,1.11.31,1.61s.53.97.97,1.42l-1.02.5c-.43-.42-.77-.95-1.03-1.59-.26-.65-.39-1.33-.39-2.04,0-.76.12-1.4.35-1.92.24-.52.58-.92,1.03-1.18s1.01-.4,1.66-.4c.34,0,.67.04,1,.12s.65.2.98.37c.33.17.66.37,1,.62.34.25.69.55,1.06.9l3.6,3.39h-.37v-5.87h1.12v7.18Z"/>
        </g>
      </g>
    </g>
  </g>
  <g id="Layer_6">
    <g>
      <g id="_19.0" class="st7">
        <g class="st7">
          <path class="st6" d="M72.83,223.58v-1.12h2.58v-9.02h.69l-2.72,1.73-.56-.98,2.96-1.89h.94v10.16h2.42v1.12h-6.3Z"/>
          <path class="st6" d="M84.48,223.72c-.38,0-.77-.06-1.17-.17-.39-.11-.77-.27-1.11-.47-.35-.2-.65-.44-.9-.72l.5-1.04c.38.42.81.73,1.28.93.47.2.94.3,1.42.3.52,0,.99-.1,1.39-.29.41-.19.75-.48,1.02-.87.28-.39.49-.88.63-1.46.14-.58.22-1.26.22-2.02v-1.49h.13c-.06.6-.24,1.12-.54,1.57s-.67.79-1.13,1.02c-.46.23-.98.35-1.55.35-.66,0-1.25-.15-1.75-.45-.51-.3-.91-.72-1.2-1.26s-.44-1.16-.44-1.84.15-1.35.46-1.9c.3-.55.73-.98,1.26-1.3s1.16-.47,1.86-.47c.9,0,1.65.22,2.26.65.61.43,1.08,1.06,1.41,1.88.33.82.49,1.81.49,2.98,0,1.29-.18,2.39-.54,3.3-.36.91-.88,1.59-1.55,2.06-.68.47-1.5.7-2.46.7ZM84.96,218.27c.47,0,.89-.11,1.25-.32.36-.21.65-.51.85-.89.2-.38.3-.81.3-1.3s-.1-.92-.3-1.3c-.2-.37-.49-.67-.85-.88-.36-.21-.78-.32-1.25-.32s-.9.11-1.26.32c-.36.21-.65.51-.85.88-.2.37-.3.81-.3,1.3s.1.93.31,1.3c.21.38.49.67.85.89.36.21.78.32,1.26.32Z"/>
          <path class="st6" d="M91.06,223.58v-1.63h1.63v1.63h-1.63Z"/>
          <path class="st6" d="M98.5,223.72c-.85,0-1.58-.22-2.17-.66-.59-.44-1.04-1.1-1.34-1.96-.3-.86-.45-1.92-.45-3.17s.15-2.32.45-3.18c.3-.86.74-1.51,1.34-1.94.59-.44,1.31-.66,2.17-.66s1.59.22,2.18.66c.59.44,1.03,1.08,1.33,1.94.3.85.45,1.91.45,3.17s-.15,2.32-.45,3.18c-.3.86-.74,1.52-1.33,1.96-.59.44-1.31.66-2.18.66ZM98.5,222.58c.9,0,1.56-.38,1.99-1.14.43-.76.65-1.94.65-3.54s-.21-2.77-.64-3.51-1.09-1.11-1.98-1.11-1.56.37-2,1.12c-.44.75-.66,1.92-.66,3.52s.22,2.76.65,3.52c.43.76,1.1,1.14,1.99,1.14Z"/>
        </g>
      </g>
      <g id="_20.7" class="st7">
        <g class="st7">
          <path class="st6" d="M169.28,185.74v-.99l3.86-4.16c.36-.39.66-.76.88-1.11.22-.35.39-.69.5-1.02.11-.33.16-.67.16-1.01,0-.64-.2-1.13-.58-1.46-.39-.34-.96-.5-1.71-.5-.58,0-1.11.1-1.61.31s-.97.53-1.42.97l-.5-1.02c.42-.43.95-.77,1.59-1.03.65-.26,1.33-.39,2.04-.39.76,0,1.4.12,1.92.35.52.24.92.58,1.18,1.03.27.45.4,1.01.4,1.66,0,.34-.04.67-.12,1s-.2.65-.37.98c-.17.33-.37.66-.62,1-.25.34-.55.69-.9,1.06l-3.39,3.6v-.37h5.87v1.12h-7.18Z"/>
          <path class="st6" d="M182.24,185.89c-.85,0-1.58-.22-2.17-.66-.59-.44-1.04-1.1-1.34-1.96-.3-.86-.45-1.92-.45-3.17s.15-2.32.45-3.18c.3-.86.74-1.51,1.34-1.94.59-.44,1.31-.66,2.17-.66s1.59.22,2.18.66,1.03,1.08,1.33,1.94c.3.85.45,1.91.45,3.17s-.15,2.32-.45,3.18c-.3.86-.74,1.52-1.33,1.96-.59.44-1.31.66-2.18.66ZM182.24,184.75c.9,0,1.56-.38,1.99-1.14.43-.76.65-1.94.65-3.54s-.21-2.77-.64-3.51c-.43-.74-1.09-1.11-1.98-1.11s-1.56.37-2,1.12c-.44.75-.66,1.92-.66,3.52s.21,2.76.65,3.52c.43.76,1.1,1.14,1.99,1.14Z"/>
          <path class="st6" d="M188.05,185.74v-1.63h1.63v1.63h-1.63Z"/>
          <path class="st6" d="M192.48,185.74l5.54-10.72v.58h-6.26v-1.14h7.46v.99l-5.28,10.29h-1.46Z"/>
        </g>
      </g>
      <g id="_19.8" class="st7">
        <g class="st7">
          <path class="st6" d="M268.93,196.78v-1.12h2.58v-9.02h.69l-2.72,1.73-.56-.98,2.96-1.89h.94v10.16h2.42v1.12h-6.3Z"/>
          <path class="st6" d="M280.58,196.93c-.38,0-.77-.06-1.17-.17-.39-.11-.77-.27-1.11-.47-.35-.2-.65-.44-.9-.72l.5-1.04c.38.42.81.73,1.28.93.47.2.94.3,1.42.3.52,0,.99-.1,1.39-.29.41-.19.75-.48,1.02-.87.28-.39.49-.88.63-1.46.14-.58.22-1.26.22-2.02v-1.49h.13c-.06.6-.24,1.12-.54,1.57-.29.45-.67.79-1.13,1.02-.46.23-.98.35-1.55.35-.66,0-1.25-.15-1.75-.45-.51-.3-.91-.72-1.2-1.26-.29-.54-.44-1.16-.44-1.84s.15-1.35.46-1.9c.3-.55.73-.98,1.26-1.3.54-.31,1.16-.47,1.86-.47.9,0,1.65.22,2.26.65.61.43,1.08,1.06,1.41,1.88.33.82.49,1.81.49,2.98,0,1.29-.18,2.39-.54,3.3-.36.91-.88,1.59-1.55,2.06-.68.47-1.5.7-2.46.7ZM281.06,191.47c.47,0,.88-.11,1.25-.32.36-.21.65-.51.85-.89.2-.38.3-.81.3-1.3s-.1-.92-.3-1.3c-.2-.37-.49-.67-.85-.88-.36-.21-.78-.32-1.25-.32s-.9.11-1.26.32c-.36.21-.65.51-.85.88-.2.37-.3.81-.3,1.3s.1.93.31,1.3c.21.38.49.67.85.89.36.21.78.32,1.26.32Z"/>
          <path class="st6" d="M287.16,196.78v-1.63h1.63v1.63h-1.63Z"/>
          <path class="st6" d="M294.6,196.93c-1.27,0-2.26-.27-2.96-.82-.7-.55-1.06-1.31-1.06-2.3,0-.53.11-1.01.32-1.42.21-.41.51-.74.9-1,.38-.26.83-.42,1.33-.48v.24c-.46-.11-.86-.29-1.2-.55-.34-.26-.61-.58-.79-.97-.19-.38-.28-.8-.28-1.26,0-.95.34-1.69,1.02-2.22.68-.53,1.59-.79,2.73-.79s2.07.26,2.74.79c.68.53,1.02,1.27,1.02,2.22,0,.46-.09.88-.28,1.27-.19.39-.45.71-.79.97-.34.26-.74.43-1.2.53v-.22c.5.06.94.23,1.32.49.38.26.67.59.89,1,.21.41.32.87.32,1.39,0,.99-.35,1.76-1.06,2.31-.7.55-1.69.82-2.96.82ZM294.6,195.84c.91,0,1.59-.18,2.06-.53.46-.35.7-.88.7-1.58s-.23-1.24-.7-1.59c-.46-.35-1.15-.52-2.06-.52s-1.58.17-2.05.52c-.47.35-.7.88-.7,1.59s.24,1.23.7,1.58c.47.35,1.15.53,2.05.53ZM294.6,190.53c.79,0,1.4-.18,1.84-.54.44-.36.66-.86.66-1.5s-.22-1.14-.66-1.5c-.44-.36-1.05-.54-1.84-.54s-1.39.18-1.82.54c-.44.36-.66.86-.66,1.5s.22,1.14.66,1.5c.44.36,1.04.54,1.82.54Z"/>
        </g>
      </g>
      <g id="Group_63555">
        <path id="Path_21842" class="st3" d="M50.77,210.33l98.99-21.44,99.23,16.71"/>
      </g>
      <path id="Path_22354" class="st5" d="M145.75,192.37h7.09v-7.09h-7.09v7.09Z"/>
      <path id="Path_22355" class="st5" d="M246.63,208.91h7.09v-7.09h-7.09v7.09Z"/>
      <path id="Path_22356" class="st5" d="M46.91,213.42h7.09v-7.09h-7.09v7.09Z"/>
    </g>
  </g>
</svg>