<?xml version="1.0" encoding="UTF-8"?>
<svg xmlns="http://www.w3.org/2000/svg" version="1.1" viewBox="0 0 312 385">
  <!-- Generator: Adobe Illustrator 29.5.1, SVG Export Plug-In . SVG Version: 2.1.0 Build 141)  -->
  <defs>
    <style>
      .st0 {
        fill: #c2eefc;
      }

      .st1, .st2 {
        fill: #fff;
      }

      .st3 {
        isolation: isolate;
      }

      .st4 {
        fill: none;
      }

      .st4, .st2 {
        stroke: #35cbf5;
        stroke-width: .5px;
      }
    </style>
  </defs>
  <g id="Layer_2">
    <g>
      <g id="Group_63543">
        <path id="Path_21819" class="st4" d="M.37,319.09h305.01"/>
      </g>
      <g id="Group_63545">
        <g id="FY_2022-23_" class="st3">
          <g class="st3">
            <path class="st1" d="M12.27,342.55v-11.28h6.98v1.1h-5.66v3.94h5.34v1.1h-5.34v5.14h-1.31Z"/>
            <path class="st1" d="M23.76,342.55v-5.84l.29.91-4.61-6.35h1.54l3.63,5.02h-.34l3.63-5.02h1.49l-4.59,6.35.27-.91v5.84h-1.31Z"/>
            <path class="st1" d="M34.73,342.55v-.99l3.86-4.16c.36-.39.66-.76.88-1.11.22-.35.39-.69.5-1.02.11-.33.16-.67.16-1.01,0-.64-.19-1.13-.58-1.46-.39-.34-.96-.5-1.7-.5-.58,0-1.11.1-1.61.31s-.97.53-1.42.97l-.5-1.02c.42-.43.95-.77,1.59-1.03.65-.26,1.33-.39,2.04-.39.76,0,1.4.12,1.92.35.52.24.92.58,1.18,1.03s.4,1.01.4,1.66c0,.34-.04.67-.12,1s-.2.65-.37.98c-.17.33-.37.66-.62,1-.25.34-.55.69-.9,1.06l-3.39,3.6v-.37h5.87v1.12h-7.18Z"/>
            <path class="st1" d="M47.69,342.7c-.85,0-1.58-.22-2.17-.66-.59-.44-1.04-1.1-1.34-1.96-.3-.86-.45-1.92-.45-3.17s.15-2.32.45-3.18c.3-.86.74-1.51,1.34-1.94.59-.44,1.31-.66,2.17-.66s1.59.22,2.18.66c.59.44,1.03,1.08,1.33,1.94.3.85.45,1.91.45,3.17s-.15,2.32-.45,3.18c-.3.86-.74,1.52-1.33,1.96-.59.44-1.31.66-2.18.66ZM47.69,341.56c.9,0,1.56-.38,1.99-1.14.43-.76.65-1.94.65-3.54s-.21-2.77-.64-3.51-1.09-1.11-1.98-1.11-1.56.37-2,1.12c-.44.75-.66,1.92-.66,3.52s.22,2.76.65,3.52c.43.76,1.1,1.14,1.99,1.14Z"/>
            <path class="st1" d="M53.93,342.55v-.99l3.86-4.16c.36-.39.66-.76.88-1.11.22-.35.39-.69.5-1.02.11-.33.16-.67.16-1.01,0-.64-.19-1.13-.58-1.46-.39-.34-.96-.5-1.7-.5-.58,0-1.11.1-1.61.31s-.97.53-1.42.97l-.5-1.02c.42-.43.95-.77,1.59-1.03.65-.26,1.33-.39,2.04-.39.76,0,1.4.12,1.92.35.52.24.92.58,1.18,1.03s.4,1.01.4,1.66c0,.34-.04.67-.12,1s-.2.65-.37.98c-.17.33-.37.66-.62,1-.25.34-.55.69-.9,1.06l-3.39,3.6v-.37h5.87v1.12h-7.18Z"/>
            <path class="st1" d="M63.53,342.55v-.99l3.86-4.16c.36-.39.66-.76.88-1.11.22-.35.39-.69.5-1.02.11-.33.16-.67.16-1.01,0-.64-.19-1.13-.58-1.46-.39-.34-.96-.5-1.7-.5-.58,0-1.11.1-1.61.31s-.97.53-1.42.97l-.5-1.02c.42-.43.95-.77,1.59-1.03.65-.26,1.33-.39,2.04-.39.76,0,1.4.12,1.92.35.52.24.92.58,1.18,1.03s.4,1.01.4,1.66c0,.34-.04.67-.12,1s-.2.65-.37.98c-.17.33-.37.66-.62,1-.25.34-.55.69-.9,1.06l-3.39,3.6v-.37h5.87v1.12h-7.18Z"/>
            <path class="st1" d="M72.84,338.82v-1.07h4.48v1.07h-4.48Z"/>
            <path class="st1" d="M79.92,342.55v-.99l3.86-4.16c.36-.39.66-.76.88-1.11.22-.35.39-.69.5-1.02.11-.33.16-.67.16-1.01,0-.64-.19-1.13-.58-1.46-.39-.34-.96-.5-1.7-.5-.58,0-1.11.1-1.61.31s-.97.53-1.42.97l-.5-1.02c.42-.43.95-.77,1.59-1.03.65-.26,1.33-.39,2.04-.39.76,0,1.4.12,1.92.35.52.24.92.58,1.18,1.03s.4,1.01.4,1.66c0,.34-.04.67-.12,1s-.2.65-.37.98c-.17.33-.37.66-.62,1-.25.34-.55.69-.9,1.06l-3.39,3.6v-.37h5.87v1.12h-7.18Z"/>
            <path class="st1" d="M92.75,342.7c-.5,0-.98-.05-1.45-.16-.46-.11-.9-.26-1.3-.46s-.76-.44-1.07-.73l.48-1.04c.52.43,1.05.74,1.58.93.53.19,1.11.29,1.73.29.54,0,1-.08,1.38-.24.37-.16.66-.4.85-.71.19-.31.29-.7.29-1.16,0-.66-.22-1.16-.66-1.5-.44-.34-1.07-.51-1.9-.51h-1.66v-1.14h1.55c.49,0,.91-.08,1.26-.26s.62-.41.81-.73c.19-.31.29-.7.29-1.14,0-.6-.19-1.05-.58-1.37-.38-.31-.94-.47-1.66-.47-.6,0-1.15.1-1.65.31s-.98.53-1.42.97l-.48-1.02c.43-.45.96-.8,1.61-1.05s1.32-.38,2.02-.38,1.35.11,1.86.34c.52.23.91.56,1.19.99s.42.95.42,1.56c0,.69-.19,1.29-.58,1.78-.38.5-.91.83-1.57,1.02v-.18c.52.09.97.26,1.34.51.37.26.65.58.84.98.19.4.29.86.29,1.37,0,.65-.15,1.21-.46,1.69-.3.47-.74.84-1.3,1.1-.57.26-1.24.39-2.03.39Z"/>
          </g>
        </g>
        <g id="FY_2023-24" class="st3">
          <g class="st3">
            <path class="st1" d="M110.49,342.55v-11.28h6.98v1.1h-5.66v3.94h5.34v1.1h-5.34v5.14h-1.31Z"/>
            <path class="st1" d="M121.97,342.55v-5.84l.29.91-4.61-6.35h1.54l3.63,5.02h-.34l3.63-5.02h1.49l-4.59,6.35.27-.91v5.84h-1.31Z"/>
            <path class="st1" d="M132.95,342.55v-.99l3.86-4.16c.36-.39.66-.76.88-1.11.22-.35.39-.69.5-1.02.11-.33.16-.67.16-1.01,0-.64-.19-1.13-.58-1.46-.39-.34-.96-.5-1.7-.5-.58,0-1.11.1-1.61.31s-.97.53-1.42.97l-.5-1.02c.42-.43.95-.77,1.59-1.03.65-.26,1.33-.39,2.04-.39.76,0,1.4.12,1.92.35.52.24.92.58,1.18,1.03s.4,1.01.4,1.66c0,.34-.04.67-.12,1s-.2.65-.37.98c-.17.33-.37.66-.62,1-.25.34-.55.69-.9,1.06l-3.39,3.6v-.37h5.87v1.12h-7.18Z"/>
            <path class="st1" d="M145.91,342.7c-.85,0-1.58-.22-2.17-.66-.59-.44-1.04-1.1-1.34-1.96-.3-.86-.45-1.92-.45-3.17s.15-2.32.45-3.18c.3-.86.74-1.51,1.34-1.94.59-.44,1.31-.66,2.17-.66s1.59.22,2.18.66c.59.44,1.03,1.08,1.33,1.94.3.85.45,1.91.45,3.17s-.15,2.32-.45,3.18c-.3.86-.74,1.52-1.33,1.96-.59.44-1.31.66-2.18.66ZM145.91,341.56c.9,0,1.56-.38,1.99-1.14.43-.76.65-1.94.65-3.54s-.21-2.77-.64-3.51-1.09-1.11-1.98-1.11-1.56.37-2,1.12c-.44.75-.66,1.92-.66,3.52s.22,2.76.65,3.52c.43.76,1.1,1.14,1.99,1.14Z"/>
            <path class="st1" d="M152.15,342.55v-.99l3.86-4.16c.36-.39.66-.76.88-1.11s.39-.69.5-1.02c.11-.33.16-.67.16-1.01,0-.64-.2-1.13-.58-1.46-.39-.34-.96-.5-1.7-.5-.58,0-1.11.1-1.61.31s-.97.53-1.42.97l-.5-1.02c.42-.43.95-.77,1.59-1.03.65-.26,1.33-.39,2.04-.39.76,0,1.4.12,1.92.35.52.24.92.58,1.18,1.03s.4,1.01.4,1.66c0,.34-.04.67-.12,1s-.2.65-.37.98c-.17.33-.37.66-.62,1-.25.34-.55.69-.9,1.06l-3.39,3.6v-.37h5.87v1.12h-7.18Z"/>
            <path class="st1" d="M164.98,342.7c-.5,0-.98-.05-1.45-.16s-.9-.26-1.3-.46-.76-.44-1.07-.73l.48-1.04c.52.43,1.05.74,1.58.93.53.19,1.11.29,1.73.29.54,0,1-.08,1.38-.24s.66-.4.85-.71c.19-.31.29-.7.29-1.16,0-.66-.22-1.16-.66-1.5-.44-.34-1.07-.51-1.9-.51h-1.66v-1.14h1.55c.49,0,.91-.08,1.26-.26s.62-.41.81-.73c.19-.31.29-.7.29-1.14,0-.6-.19-1.05-.58-1.37s-.94-.47-1.66-.47c-.6,0-1.15.1-1.65.31-.5.21-.98.53-1.42.97l-.48-1.02c.43-.45.96-.8,1.61-1.05s1.32-.38,2.02-.38,1.35.11,1.86.34c.52.23.91.56,1.19.99s.42.95.42,1.56c0,.69-.19,1.29-.58,1.78-.38.5-.91.83-1.57,1.02v-.18c.52.09.97.26,1.34.51.37.26.65.58.84.98.19.4.29.86.29,1.37,0,.65-.15,1.21-.46,1.69s-.74.84-1.3,1.1c-.57.26-1.24.39-2.03.39Z"/>
            <path class="st1" d="M171.06,338.82v-1.07h4.48v1.07h-4.48Z"/>
            <path class="st1" d="M178.13,342.55v-.99l3.86-4.16c.36-.39.66-.76.88-1.11s.39-.69.5-1.02c.11-.33.16-.67.16-1.01,0-.64-.2-1.13-.58-1.46-.39-.34-.96-.5-1.7-.5-.58,0-1.11.1-1.61.31s-.97.53-1.42.97l-.5-1.02c.42-.43.95-.77,1.59-1.03.64-.26,1.33-.39,2.04-.39.76,0,1.4.12,1.92.35.52.24.92.58,1.18,1.03s.4,1.01.4,1.66c0,.34-.04.67-.12,1s-.2.65-.37.98c-.17.33-.37.66-.62,1-.25.34-.55.69-.9,1.06l-3.39,3.6v-.37h5.87v1.12h-7.18Z"/>
            <path class="st1" d="M192.32,342.55v-2.42h-5.2v-.99l5.42-7.87h1.1v7.74h1.68v1.12h-1.68v2.42h-1.33ZM192.32,339.02v-6.16h.38l-4.46,6.51v-.35h4.08Z"/>
          </g>
        </g>
        <g id="FY_2024-25" class="st3">
          <g class="st3">
            <path class="st1" d="M208.7,342.55v-11.28h6.98v1.1h-5.66v3.94h5.34v1.1h-5.34v5.14h-1.31Z"/>
            <path class="st1" d="M220.19,342.55v-5.84l.29.91-4.61-6.35h1.54l3.63,5.02h-.34l3.63-5.02h1.49l-4.59,6.35.27-.91v5.84h-1.31Z"/>
            <path class="st1" d="M231.17,342.55v-.99l3.86-4.16c.36-.39.66-.76.88-1.11s.39-.69.5-1.02c.11-.33.16-.67.16-1.01,0-.64-.2-1.13-.58-1.46-.39-.34-.96-.5-1.7-.5-.58,0-1.11.1-1.61.31s-.97.53-1.42.97l-.5-1.02c.42-.43.95-.77,1.59-1.03.64-.26,1.33-.39,2.04-.39.76,0,1.4.12,1.92.35.52.24.92.58,1.18,1.03s.4,1.01.4,1.66c0,.34-.04.67-.12,1s-.2.65-.37.98c-.17.33-.37.66-.62,1-.25.34-.55.69-.9,1.06l-3.39,3.6v-.37h5.87v1.12h-7.18Z"/>
            <path class="st1" d="M244.13,342.7c-.85,0-1.58-.22-2.17-.66-.59-.44-1.04-1.1-1.34-1.96-.3-.86-.45-1.92-.45-3.17s.15-2.32.45-3.18c.3-.86.74-1.51,1.34-1.94.59-.44,1.31-.66,2.17-.66s1.59.22,2.18.66c.59.44,1.03,1.08,1.33,1.94.3.85.45,1.91.45,3.17s-.15,2.32-.45,3.18c-.3.86-.74,1.52-1.33,1.96-.59.44-1.31.66-2.18.66ZM244.13,341.56c.9,0,1.56-.38,1.99-1.14.43-.76.65-1.94.65-3.54s-.21-2.77-.64-3.51-1.09-1.11-1.98-1.11-1.56.37-2,1.12c-.44.75-.66,1.92-.66,3.52s.22,2.76.65,3.52c.43.76,1.1,1.14,1.99,1.14Z"/>
            <path class="st1" d="M250.37,342.55v-.99l3.86-4.16c.36-.39.66-.76.88-1.11.22-.35.39-.69.5-1.02.11-.33.16-.67.16-1.01,0-.64-.19-1.13-.58-1.46s-.96-.5-1.7-.5c-.58,0-1.11.1-1.61.31s-.97.53-1.42.97l-.5-1.02c.42-.43.95-.77,1.59-1.03.65-.26,1.33-.39,2.04-.39.76,0,1.4.12,1.92.35.52.24.92.58,1.18,1.03s.4,1.01.4,1.66c0,.34-.04.67-.12,1s-.2.65-.37.98c-.17.33-.37.66-.62,1-.25.34-.55.69-.9,1.06l-3.39,3.6v-.37h5.87v1.12h-7.18Z"/>
            <path class="st1" d="M264.56,342.55v-2.42h-5.2v-.99l5.42-7.87h1.1v7.74h1.68v1.12h-1.68v2.42h-1.33ZM264.56,339.02v-6.16h.38l-4.46,6.51v-.35h4.08Z"/>
            <path class="st1" d="M269.28,338.82v-1.07h4.48v1.07h-4.48Z"/>
            <path class="st1" d="M276.35,342.55v-.99l3.86-4.16c.36-.39.66-.76.88-1.11.22-.35.39-.69.5-1.02.11-.33.16-.67.16-1.01,0-.64-.19-1.13-.58-1.46s-.96-.5-1.7-.5c-.58,0-1.11.1-1.61.31s-.97.53-1.42.97l-.5-1.02c.42-.43.95-.77,1.59-1.03.65-.26,1.33-.39,2.04-.39.76,0,1.4.12,1.92.35.52.24.92.58,1.18,1.03s.4,1.01.4,1.66c0,.34-.04.67-.12,1s-.2.65-.37.98c-.17.33-.37.66-.62,1-.25.34-.55.69-.9,1.06l-3.39,3.6v-.37h5.87v1.12h-7.18Z"/>
            <path class="st1" d="M289.55,342.7c-.48,0-.95-.05-1.41-.16-.46-.11-.89-.26-1.29-.46-.4-.2-.75-.44-1.06-.72l.5-1.04c.51.42,1.03.72,1.56.92.53.2,1.09.3,1.69.3.79,0,1.41-.22,1.85-.66.44-.44.66-1.01.66-1.73s-.21-1.34-.64-1.81-1.01-.7-1.76-.7c-.54,0-1.02.11-1.43.33-.41.22-.78.56-1.11,1.02h-.96v-6.7h6.54v1.12h-5.25v4.5h-.35c.28-.45.66-.79,1.15-1.03.49-.24,1.04-.36,1.65-.36.71,0,1.33.15,1.85.45.52.3.92.72,1.2,1.26.28.54.42,1.17.42,1.88s-.15,1.33-.46,1.87-.75.97-1.31,1.28c-.57.31-1.24.46-2.03.46Z"/>
          </g>
        </g>
      </g>
    </g>
  </g>
  <g id="Layer_3">
    <g>
      <path id="Path_22339" class="st0" d="M38.77,319.09h26.78V122.66h-26.78v196.43Z"/>
      <g id="Group_63544">
        <path id="Path_21821" class="st4" d="M65.12,319.56V13.24"/>
      </g>
      <path id="Path_22340" class="st2" d="M56.16,21.02h8.98v-8.98h-8.98v8.98Z"/>
      <g id="_23_061" class="st3">
        <g class="st3">
          <path class="st1" d="M86.81,58.97h-.99l-4.16-3.86c-.39-.36-.76-.66-1.11-.88-.35-.22-.69-.39-1.02-.5-.33-.11-.67-.16-1.01-.16-.64,0-1.13.19-1.46.58-.34.39-.5.96-.5,1.7,0,.58.1,1.11.31,1.61s.53.97.97,1.42l-1.02.5c-.43-.42-.77-.95-1.03-1.59-.26-.65-.39-1.33-.39-2.04,0-.76.12-1.4.35-1.92.24-.52.58-.92,1.03-1.18s1.01-.4,1.66-.4c.34,0,.67.04,1,.12s.65.2.98.37c.33.17.66.37,1,.62.34.25.69.55,1.06.9l3.6,3.39h-.37v-5.87h1.12v7.18Z"/>
          <path class="st1" d="M86.95,46.14c0,.5-.05.98-.16,1.45-.11.46-.26.9-.46,1.3s-.44.76-.73,1.07l-1.04-.48c.43-.52.74-1.05.93-1.58.19-.53.29-1.11.29-1.73,0-.54-.08-1-.24-1.38-.16-.37-.4-.66-.71-.85-.31-.19-.7-.29-1.16-.29-.66,0-1.16.22-1.5.66-.34.44-.51,1.07-.51,1.9v1.66h-1.14v-1.55c0-.49-.08-.91-.26-1.26s-.41-.62-.73-.81c-.31-.19-.7-.29-1.14-.29-.6,0-1.05.19-1.37.58-.31.38-.47.94-.47,1.66,0,.6.1,1.15.31,1.65s.53.98.97,1.42l-1.02.48c-.45-.43-.8-.96-1.05-1.61s-.38-1.32-.38-2.02.11-1.35.34-1.86c.23-.52.56-.91.99-1.19s.95-.42,1.56-.42c.69,0,1.29.19,1.78.58.5.38.83.91,1.02,1.57h-.18c.09-.52.26-.97.51-1.34.26-.37.58-.65.98-.84.4-.19.86-.29,1.37-.29.65,0,1.21.15,1.69.46.47.3.84.74,1.1,1.3.26.57.39,1.24.39,2.03Z"/>
          <path class="st1" d="M88.63,39.53l-.46.61c-.2-.19-.39-.34-.57-.44-.18-.1-.35-.17-.53-.21-.18-.04-.35-.06-.54-.06l.27-.29v1.06h-1.63v-1.63h1.15c.29,0,.56.03.82.09s.51.16.76.3c.25.14.49.33.72.58Z"/>
          <path class="st1" d="M86.95,32.76c0,.85-.22,1.58-.66,2.17-.44.59-1.1,1.04-1.96,1.34-.86.3-1.92.45-3.17.45s-2.32-.15-3.18-.45c-.86-.3-1.51-.74-1.94-1.34-.44-.59-.66-1.31-.66-2.17s.22-1.59.66-2.18c.44-.59,1.08-1.03,1.94-1.33.85-.3,1.91-.45,3.17-.45s2.32.15,3.18.45c.86.3,1.52.74,1.96,1.33.44.59.66,1.31.66,2.18ZM85.81,32.76c0-.9-.38-1.56-1.14-1.99-.76-.43-1.94-.65-3.54-.65s-2.77.21-3.51.64-1.11,1.09-1.11,1.98.37,1.56,1.12,2c.75.44,1.92.66,3.52.66s2.76-.22,3.52-.65c.76-.43,1.14-1.1,1.14-1.99Z"/>
          <path class="st1" d="M86.95,22.78c0,.89-.22,1.64-.65,2.26s-1.06,1.1-1.88,1.42c-.82.32-1.81.48-2.98.48-1.3,0-2.4-.18-3.3-.54s-1.59-.88-2.06-1.57c-.47-.69-.7-1.51-.7-2.46,0-.38.06-.77.17-1.17s.27-.77.47-1.11c.2-.35.44-.64.72-.89l1.02.48c-.42.39-.72.82-.92,1.29-.2.46-.3.94-.3,1.43,0,.52.1.98.3,1.38s.49.74.87,1.02c.38.28.87.49,1.45.63.58.14,1.26.21,2.02.21h1.49v.14c-.61-.06-1.13-.24-1.58-.54s-.78-.67-1.02-1.14-.35-.98-.35-1.54c0-.66.15-1.25.46-1.76.3-.51.72-.91,1.26-1.2.53-.29,1.15-.43,1.84-.43s1.33.15,1.89.46.99.73,1.3,1.26.47,1.16.47,1.86ZM85.83,22.86c0-.47-.1-.89-.31-1.25-.21-.36-.5-.65-.88-.85-.38-.2-.81-.3-1.3-.3s-.92.1-1.3.3c-.37.2-.67.48-.88.84-.21.36-.32.78-.32,1.26s.11.89.32,1.25c.21.36.51.65.88.85.37.2.8.3,1.3.3s.92-.1,1.3-.3.67-.48.88-.84c.21-.36.31-.78.31-1.26Z"/>
          <path class="st1" d="M86.81,16.38h-1.12v-2.58h-9.02v-.69l1.73,2.72-.98.56-1.89-2.96v-.94h10.16v-2.42h1.12v6.3Z"/>
        </g>
      </g>
    </g>
  </g>
  <g id="Layer_4">
    <g>
      <path id="Path_22342" class="st0" d="M137,319.09h26.78V98.68h-26.78v220.41Z"/>
      <g id="Group_63547">
        <path id="Path_21824" class="st4" d="M163.34,319.56V13.24"/>
      </g>
      <path id="Path_22343" class="st2" d="M154.38,21.02h8.98v-8.98h-8.98v8.98Z"/>
      <g id="_25_896" class="st3">
        <g class="st3">
          <path class="st1" d="M180.93,58.97h-.99l-4.16-3.86c-.39-.36-.76-.66-1.11-.88-.35-.22-.69-.39-1.02-.5-.33-.11-.67-.16-1.01-.16-.64,0-1.13.19-1.46.58-.34.39-.5.96-.5,1.7,0,.58.1,1.11.31,1.61s.53.97.97,1.42l-1.02.5c-.43-.42-.77-.95-1.03-1.59-.26-.65-.39-1.33-.39-2.04,0-.76.12-1.4.35-1.92.24-.52.58-.92,1.03-1.18s1.01-.4,1.66-.4c.34,0,.67.04,1,.12s.65.2.98.37c.33.17.66.37,1,.62.34.25.69.55,1.06.9l3.6,3.39h-.37v-5.87h1.12v7.18Z"/>
          <path class="st1" d="M181.07,45.77c0,.48-.05.95-.16,1.41s-.26.89-.46,1.29c-.2.4-.44.75-.72,1.06l-1.04-.5c.42-.51.72-1.03.92-1.56.2-.53.3-1.09.3-1.69,0-.79-.22-1.41-.66-1.85-.44-.44-1.01-.66-1.73-.66s-1.34.21-1.81.64c-.47.43-.7,1.01-.7,1.76,0,.54.11,1.02.33,1.43.22.41.56.78,1.02,1.11v.96h-6.7v-6.54h1.12v5.25h4.5v.35c-.45-.28-.79-.66-1.03-1.15-.24-.49-.36-1.04-.36-1.65,0-.71.15-1.33.45-1.85.3-.52.72-.92,1.26-1.2.54-.28,1.17-.42,1.88-.42s1.33.15,1.87.46c.54.31.97.75,1.28,1.31.31.57.46,1.24.46,2.03Z"/>
          <path class="st1" d="M182.75,39.53l-.46.61c-.2-.19-.39-.34-.57-.44-.18-.1-.35-.17-.53-.21-.18-.04-.35-.06-.54-.06l.27-.29v1.06h-1.63v-1.63h1.15c.29,0,.56.03.82.09s.51.16.76.3c.25.14.49.33.72.58Z"/>
          <path class="st1" d="M181.07,32.76c0,1.27-.27,2.26-.82,2.96-.55.7-1.31,1.06-2.3,1.06-.53,0-1.01-.11-1.42-.32-.41-.21-.74-.51-1-.9-.26-.38-.42-.83-.48-1.33h.24c-.11.46-.29.86-.55,1.2-.26.34-.58.61-.97.79-.38.19-.8.28-1.26.28-.95,0-1.69-.34-2.22-1.02s-.79-1.59-.79-2.73.26-2.07.79-2.74,1.27-1.02,2.22-1.02c.46,0,.88.09,1.27.28.39.19.71.45.97.79s.43.74.53,1.2h-.22c.06-.5.23-.94.49-1.32s.59-.67,1-.89.87-.32,1.39-.32c.99,0,1.76.35,2.31,1.06.55.7.82,1.69.82,2.96ZM174.67,32.76c0-.79-.18-1.4-.54-1.84-.36-.44-.86-.66-1.5-.66s-1.14.22-1.5.66c-.36.44-.54,1.05-.54,1.84s.18,1.39.54,1.82c.36.44.86.66,1.5.66s1.14-.22,1.5-.66c.36-.44.54-1.05.54-1.82ZM179.98,32.76c0-.91-.18-1.59-.53-2.06-.35-.46-.88-.7-1.58-.7s-1.25.23-1.59.7c-.35.46-.52,1.15-.52,2.06s.17,1.58.52,2.05c.35.47.88.7,1.59.7s1.23-.23,1.58-.7c.35-.47.53-1.15.53-2.05Z"/>
          <path class="st1" d="M181.07,23.93c0,.38-.06.77-.17,1.17-.11.39-.27.77-.47,1.11-.2.35-.44.65-.72.9l-1.04-.5c.42-.38.73-.81.93-1.28.2-.47.3-.94.3-1.42,0-.52-.1-.99-.29-1.39-.19-.41-.48-.75-.87-1.02-.39-.28-.88-.49-1.46-.63-.58-.14-1.26-.22-2.02-.22h-1.49v-.13c.6.06,1.12.24,1.57.54s.79.67,1.02,1.13c.23.46.35.98.35,1.55,0,.66-.15,1.25-.45,1.75-.3.51-.72.91-1.26,1.2s-1.16.44-1.84.44-1.35-.15-1.9-.46c-.55-.3-.98-.73-1.3-1.26s-.47-1.16-.47-1.86c0-.9.22-1.65.65-2.26.43-.61,1.06-1.08,1.88-1.41.82-.33,1.81-.49,2.98-.49,1.29,0,2.39.18,3.3.54.91.36,1.59.88,2.06,1.55.47.68.7,1.5.7,2.46ZM175.62,23.45c0-.47-.11-.89-.32-1.25-.21-.36-.51-.65-.89-.85-.38-.2-.81-.3-1.3-.3s-.92.1-1.3.3c-.37.2-.67.49-.88.85-.21.36-.32.78-.32,1.25s.11.9.32,1.26c.21.36.51.65.88.85.37.2.81.3,1.3.3s.93-.1,1.3-.31c.38-.21.67-.49.89-.85.21-.36.32-.78.32-1.26Z"/>
          <path class="st1" d="M181.07,13.18c0,.89-.22,1.64-.65,2.26s-1.06,1.1-1.88,1.42c-.82.32-1.81.48-2.98.48-1.3,0-2.4-.18-3.3-.54s-1.59-.88-2.06-1.57c-.47-.69-.7-1.51-.7-2.46,0-.38.06-.77.17-1.17s.27-.77.47-1.11c.2-.35.44-.64.72-.89l1.02.48c-.42.39-.72.82-.92,1.29-.2.46-.3.94-.3,1.43,0,.52.1.98.3,1.38s.49.74.87,1.02c.38.28.87.49,1.45.63.58.14,1.26.21,2.02.21h1.49v.14c-.61-.06-1.13-.24-1.58-.54s-.78-.67-1.02-1.14-.35-.98-.35-1.54c0-.66.15-1.25.46-1.76.3-.51.72-.91,1.26-1.2.53-.29,1.15-.43,1.84-.43s1.33.15,1.89.46.99.73,1.3,1.26.47,1.16.47,1.86ZM179.95,13.26c0-.47-.1-.89-.31-1.25-.21-.36-.5-.65-.88-.85-.38-.2-.81-.3-1.3-.3s-.92.1-1.3.3c-.37.2-.67.48-.88.84-.21.36-.32.78-.32,1.26s.11.89.32,1.25c.21.36.51.65.88.85.37.2.8.3,1.3.3s.92-.1,1.3-.3.67-.48.88-.84c.21-.36.31-.78.31-1.26Z"/>
        </g>
      </g>
    </g>
  </g>
  <g id="Layer_5">
    <g>
      <path id="Path_22344" class="st0" d="M235.22,319.09h26.78V77.36h-26.78v241.73Z"/>
      <g id="Group_63548">
        <path id="Path_21827" class="st4" d="M261.57,319.56V13.24"/>
      </g>
      <path id="Path_22345" class="st2" d="M252.6,21.02h8.98v-8.98h-8.98v8.98Z"/>
      <g id="_28_393" class="st3">
        <g class="st3">
          <path class="st1" d="M280.04,58.97h-.99l-4.16-3.86c-.39-.36-.76-.66-1.11-.88-.35-.22-.69-.39-1.02-.5-.33-.11-.67-.16-1.01-.16-.64,0-1.13.19-1.46.58-.34.39-.5.96-.5,1.7,0,.58.1,1.11.31,1.61s.53.97.97,1.42l-1.02.5c-.43-.42-.77-.95-1.03-1.59-.26-.65-.39-1.33-.39-2.04,0-.76.12-1.4.35-1.92.24-.52.58-.92,1.03-1.18s1.01-.4,1.66-.4c.34,0,.67.04,1,.12s.65.2.98.37c.33.17.66.37,1,.62.34.25.69.55,1.06.9l3.6,3.39h-.37v-5.87h1.12v7.18Z"/>
          <path class="st1" d="M280.19,46.01c0,1.27-.27,2.26-.82,2.96-.55.7-1.31,1.06-2.3,1.06-.53,0-1.01-.11-1.42-.32-.41-.21-.74-.51-1-.9-.26-.38-.42-.83-.48-1.33h.24c-.11.46-.29.86-.55,1.2-.26.34-.58.61-.97.79-.38.19-.8.28-1.26.28-.95,0-1.69-.34-2.22-1.02s-.79-1.59-.79-2.73.26-2.07.79-2.74,1.27-1.02,2.22-1.02c.46,0,.88.09,1.27.28.39.19.71.45.97.79s.43.74.53,1.2h-.22c.06-.5.23-.94.49-1.32s.59-.67,1-.89.87-.32,1.39-.32c.99,0,1.76.35,2.31,1.06.55.7.82,1.69.82,2.96ZM273.79,46.01c0-.79-.18-1.4-.54-1.84-.36-.44-.86-.66-1.5-.66s-1.14.22-1.5.66c-.36.44-.54,1.05-.54,1.84s.18,1.39.54,1.82c.36.44.86.66,1.5.66s1.14-.22,1.5-.66c.36-.44.54-1.05.54-1.82ZM279.1,46.01c0-.91-.18-1.59-.53-2.06-.35-.46-.88-.7-1.58-.7s-1.25.23-1.59.7c-.35.46-.52,1.15-.52,2.06s.17,1.58.52,2.05c.35.47.88.7,1.59.7s1.23-.23,1.58-.7c.35-.47.53-1.15.53-2.05Z"/>
          <path class="st1" d="M281.87,39.53l-.46.61c-.2-.19-.39-.34-.57-.44-.18-.1-.35-.17-.53-.21-.18-.04-.35-.06-.54-.06l.27-.29v1.06h-1.63v-1.63h1.15c.29,0,.56.03.82.09s.51.16.76.3c.25.14.49.33.72.58Z"/>
          <path class="st1" d="M280.19,32.89c0,.5-.05.98-.16,1.45-.11.46-.26.9-.46,1.3s-.44.76-.73,1.07l-1.04-.48c.43-.52.74-1.05.93-1.58.19-.53.29-1.11.29-1.73,0-.54-.08-1-.24-1.38-.16-.37-.4-.66-.71-.85-.31-.19-.7-.29-1.16-.29-.66,0-1.16.22-1.5.66-.34.44-.51,1.07-.51,1.9v1.66h-1.14v-1.55c0-.49-.08-.91-.26-1.26s-.41-.62-.73-.81c-.31-.19-.7-.29-1.14-.29-.6,0-1.05.19-1.37.58-.31.38-.47.94-.47,1.66,0,.6.1,1.15.31,1.65s.53.98.97,1.42l-1.02.48c-.45-.43-.8-.96-1.05-1.61s-.38-1.32-.38-2.02.11-1.35.34-1.86c.23-.52.56-.91.99-1.19s.95-.42,1.56-.42c.69,0,1.29.19,1.78.58.5.38.83.91,1.02,1.57h-.18c.09-.52.26-.97.51-1.34.26-.37.58-.65.98-.84.4-.19.86-.29,1.37-.29.65,0,1.21.15,1.69.46.47.3.84.74,1.1,1.3.26.57.39,1.24.39,2.03Z"/>
          <path class="st1" d="M280.19,23.93c0,.38-.06.77-.17,1.17-.11.39-.27.77-.47,1.11-.2.35-.44.65-.72.9l-1.04-.5c.42-.38.73-.81.93-1.28.2-.47.3-.94.3-1.42,0-.52-.1-.99-.29-1.39-.19-.41-.48-.75-.87-1.02-.39-.28-.88-.49-1.46-.63-.58-.14-1.26-.22-2.02-.22h-1.49v-.13c.6.06,1.12.24,1.57.54s.79.67,1.02,1.13c.23.46.35.98.35,1.55,0,.66-.15,1.25-.45,1.75-.3.51-.72.91-1.26,1.2s-1.16.44-1.84.44-1.35-.15-1.9-.46c-.55-.3-.98-.73-1.3-1.26s-.47-1.16-.47-1.86c0-.9.22-1.65.65-2.26.43-.61,1.06-1.08,1.88-1.41.82-.33,1.81-.49,2.98-.49,1.29,0,2.39.18,3.3.54.91.36,1.59.88,2.06,1.55.47.68.7,1.5.7,2.46ZM274.73,23.45c0-.47-.11-.89-.32-1.25-.21-.36-.51-.65-.89-.85-.38-.2-.81-.3-1.3-.3s-.92.1-1.3.3c-.37.2-.67.49-.88.85-.21.36-.32.78-.32,1.25s.11.9.32,1.26c.21.36.51.65.88.85.37.2.81.3,1.3.3s.93-.1,1.3-.31c.38-.21.67-.49.89-.85.21-.36.32-.78.32-1.26Z"/>
          <path class="st1" d="M280.19,13.69c0,.5-.05.98-.16,1.45-.11.46-.26.9-.46,1.3s-.44.76-.73,1.07l-1.04-.48c.43-.52.74-1.05.93-1.58.19-.53.29-1.11.29-1.73,0-.54-.08-1-.24-1.38-.16-.37-.4-.66-.71-.85-.31-.19-.7-.29-1.16-.29-.66,0-1.16.22-1.5.66-.34.44-.51,1.07-.51,1.9v1.66h-1.14v-1.55c0-.49-.08-.91-.26-1.26s-.41-.62-.73-.81c-.31-.19-.7-.29-1.14-.29-.6,0-1.05.19-1.37.58-.31.38-.47.94-.47,1.66,0,.6.1,1.15.31,1.65s.53.98.97,1.42l-1.02.48c-.45-.43-.8-.96-1.05-1.61s-.38-1.32-.38-2.02.11-1.35.34-1.86c.23-.52.56-.91.99-1.19s.95-.42,1.56-.42c.69,0,1.29.19,1.78.58.5.38.83.91,1.02,1.57h-.18c.09-.52.26-.97.51-1.34.26-.37.58-.65.98-.84.4-.19.86-.29,1.37-.29.65,0,1.21.15,1.69.46.47.3.84.74,1.1,1.3.26.57.39,1.24.39,2.03Z"/>
        </g>
      </g>
    </g>
  </g>
</svg>