<?xml version="1.0" encoding="UTF-8"?>
<svg xmlns="http://www.w3.org/2000/svg" version="1.1" viewBox="0 0 312 385">
  <!-- Generator: Adobe Illustrator 29.5.1, SVG Export Plug-In . SVG Version: 2.1.0 Build 141)  -->
  <defs>
    <style>
      .st0 {
        fill: #c2eefc;
      }

      .st1, .st2 {
        fill: #fff;
      }

      .st3 {
        isolation: isolate;
      }

      .st4 {
        fill: none;
      }

      .st4, .st2 {
        stroke: #35cbf5;
        stroke-width: .5px;
      }
    </style>
  </defs>
  <g id="Layer_3">
    <g>
      <g id="Group_63600">
        <path id="Path_21883" class="st4" d="M0,318.85h312"/>
      </g>
      <g id="FY_2022-23_" class="st3">
        <g class="st3">
          <path class="st1" d="M12.13,341.37v-11.15h6.9v1.09h-5.6v3.89h5.28v1.09h-5.28v5.08h-1.3Z"/>
          <path class="st1" d="M23.49,341.37v-5.77l.28.9-4.56-6.28h1.52l3.59,4.97h-.33l3.59-4.97h1.47l-4.54,6.28.27-.9v5.77h-1.3Z"/>
          <path class="st1" d="M34.34,341.37v-.98l3.81-4.11c.36-.39.65-.76.87-1.1.22-.34.39-.68.49-1.01.11-.33.16-.66.16-1,0-.63-.19-1.12-.58-1.45-.39-.33-.95-.5-1.68-.5-.57,0-1.1.1-1.59.31s-.96.53-1.4.96l-.49-1.01c.41-.42.94-.76,1.57-1.02.64-.26,1.31-.39,2.02-.39.75,0,1.38.12,1.9.35.52.23.91.57,1.17,1.02s.4.99.4,1.64c0,.34-.04.67-.12.99s-.2.64-.36.96c-.16.32-.37.65-.62.99-.25.34-.55.69-.89,1.04l-3.35,3.56v-.36h5.81v1.11h-7.1Z"/>
          <path class="st1" d="M47.15,341.52c-.84,0-1.56-.22-2.14-.66-.59-.44-1.03-1.08-1.32-1.94-.3-.85-.44-1.9-.44-3.13s.15-2.29.44-3.14c.3-.85.74-1.49,1.32-1.92.59-.43,1.3-.65,2.14-.65s1.57.22,2.15.65c.58.43,1.02,1.07,1.31,1.91.29.84.44,1.89.44,3.13s-.15,2.29-.44,3.15c-.3.85-.73,1.5-1.31,1.94-.58.44-1.3.66-2.15.66ZM47.15,340.39c.89,0,1.54-.37,1.97-1.12.43-.75.64-1.91.64-3.5s-.21-2.74-.63-3.47-1.08-1.1-1.96-1.1-1.54.37-1.98,1.11c-.43.74-.65,1.9-.65,3.48s.21,2.73.64,3.48c.43.75,1.08,1.12,1.97,1.12Z"/>
          <path class="st1" d="M53.32,341.37v-.98l3.81-4.11c.36-.39.65-.76.87-1.1.22-.34.39-.68.49-1.01.11-.33.16-.66.16-1,0-.63-.19-1.12-.58-1.45-.39-.33-.95-.5-1.68-.5-.57,0-1.1.1-1.59.31s-.96.53-1.4.96l-.49-1.01c.41-.42.94-.76,1.57-1.02.64-.26,1.31-.39,2.02-.39.75,0,1.38.12,1.9.35.52.23.91.57,1.17,1.02s.4.99.4,1.64c0,.34-.04.67-.12.99s-.2.64-.36.96c-.16.32-.37.65-.62.99-.25.34-.55.69-.89,1.04l-3.35,3.56v-.36h5.81v1.11h-7.1Z"/>
          <path class="st1" d="M62.81,341.37v-.98l3.81-4.11c.36-.39.65-.76.87-1.1.22-.34.39-.68.49-1.01.11-.33.16-.66.16-1,0-.63-.19-1.12-.58-1.45-.39-.33-.95-.5-1.68-.5-.57,0-1.1.1-1.59.31s-.96.53-1.4.96l-.49-1.01c.41-.42.94-.76,1.57-1.02.64-.26,1.31-.39,2.02-.39.75,0,1.38.12,1.9.35.52.23.91.57,1.17,1.02s.4.99.4,1.64c0,.34-.04.67-.12.99s-.2.64-.36.96c-.16.32-.37.65-.62.99-.25.34-.55.69-.89,1.04l-3.35,3.56v-.36h5.81v1.11h-7.1Z"/>
          <path class="st1" d="M72.02,337.69v-1.06h4.43v1.06h-4.43Z"/>
          <path class="st1" d="M79.01,341.37v-.98l3.81-4.11c.36-.39.65-.76.87-1.1.22-.34.39-.68.49-1.01.11-.33.16-.66.16-1,0-.63-.19-1.12-.58-1.45-.39-.33-.95-.5-1.68-.5-.57,0-1.1.1-1.59.31s-.96.53-1.4.96l-.49-1.01c.41-.42.94-.76,1.57-1.02.64-.26,1.31-.39,2.02-.39.75,0,1.38.12,1.9.35.52.23.91.57,1.17,1.02s.4.99.4,1.64c0,.34-.04.67-.12.99s-.2.64-.36.96c-.16.32-.37.65-.62.99-.25.34-.55.69-.89,1.04l-3.35,3.56v-.36h5.81v1.11h-7.1Z"/>
          <path class="st1" d="M91.7,341.52c-.5,0-.97-.05-1.43-.16-.46-.11-.89-.26-1.29-.45s-.75-.44-1.06-.72l.47-1.03c.52.42,1.04.73,1.57.92.53.19,1.1.28,1.71.28.54,0,.99-.08,1.36-.24.37-.16.65-.39.84-.7.19-.31.28-.69.28-1.15,0-.65-.22-1.15-.65-1.49-.43-.34-1.06-.51-1.88-.51h-1.64v-1.12h1.53c.49,0,.9-.08,1.24-.25s.61-.41.8-.72c.19-.31.28-.69.28-1.13,0-.59-.19-1.04-.57-1.35-.38-.31-.93-.47-1.65-.47-.59,0-1.13.1-1.63.31s-.97.53-1.41.96l-.47-1.01c.42-.44.95-.79,1.59-1.04s1.3-.37,2-.37,1.33.11,1.84.34c.51.23.9.55,1.18.98s.41.94.41,1.54c0,.69-.19,1.27-.57,1.76-.38.49-.9.83-1.55,1.01v-.17c.52.08.96.25,1.32.51.36.25.64.58.83.97.19.4.28.85.28,1.35,0,.64-.15,1.2-.45,1.67-.3.47-.73.83-1.29,1.09-.56.26-1.23.39-2.01.39Z"/>
        </g>
      </g>
      <g id="FY_2023-24" class="st3">
        <g class="st3">
          <path class="st1" d="M112.6,341.37v-11.15h6.9v1.09h-5.6v3.89h5.28v1.09h-5.28v5.08h-1.3Z"/>
          <path class="st1" d="M123.95,341.37v-5.77l.28.9-4.56-6.28h1.52l3.59,4.97h-.33l3.59-4.97h1.47l-4.54,6.28.27-.9v5.77h-1.3Z"/>
          <path class="st1" d="M134.8,341.37v-.98l3.81-4.11c.36-.39.65-.76.87-1.1.22-.34.39-.68.49-1.01.11-.33.16-.66.16-1,0-.63-.19-1.12-.58-1.45-.39-.33-.95-.5-1.68-.5-.57,0-1.1.1-1.59.31s-.96.53-1.4.96l-.49-1.01c.41-.42.94-.76,1.57-1.02.64-.26,1.31-.39,2.02-.39.75,0,1.38.12,1.9.35.52.23.91.57,1.17,1.02s.4.99.4,1.64c0,.34-.04.67-.12.99s-.2.64-.36.96c-.16.32-.37.65-.62.99-.25.34-.55.69-.89,1.04l-3.35,3.56v-.36h5.81v1.11h-7.1Z"/>
          <path class="st1" d="M147.62,341.52c-.84,0-1.56-.22-2.14-.66-.59-.44-1.03-1.08-1.32-1.94-.3-.85-.44-1.9-.44-3.13s.15-2.29.44-3.14c.3-.85.74-1.49,1.32-1.92.59-.43,1.3-.65,2.14-.65s1.57.22,2.15.65c.58.43,1.02,1.07,1.31,1.91.29.84.44,1.89.44,3.13s-.15,2.29-.44,3.15c-.3.85-.73,1.5-1.31,1.94-.58.44-1.3.66-2.15.66ZM147.62,340.39c.89,0,1.54-.37,1.97-1.12.43-.75.64-1.91.64-3.5s-.21-2.74-.63-3.47-1.08-1.1-1.96-1.1-1.54.37-1.98,1.11c-.43.74-.65,1.9-.65,3.48s.21,2.73.64,3.48c.43.75,1.08,1.12,1.97,1.12Z"/>
          <path class="st1" d="M153.79,341.37v-.98l3.81-4.11c.36-.39.65-.76.87-1.1.22-.34.39-.68.49-1.01.11-.33.16-.66.16-1,0-.63-.19-1.12-.58-1.45-.39-.33-.95-.5-1.68-.5-.57,0-1.1.1-1.59.31s-.96.53-1.4.96l-.49-1.01c.41-.42.94-.76,1.57-1.02.64-.26,1.31-.39,2.02-.39.75,0,1.38.12,1.9.35.52.23.91.57,1.17,1.02s.4.99.4,1.64c0,.34-.04.67-.12.99s-.2.64-.36.96c-.16.32-.37.65-.62.99-.25.34-.55.69-.89,1.04l-3.35,3.56v-.36h5.81v1.11h-7.1Z"/>
          <path class="st1" d="M166.47,341.52c-.5,0-.97-.05-1.43-.16-.46-.11-.89-.26-1.29-.45s-.75-.44-1.06-.72l.47-1.03c.52.42,1.04.73,1.57.92.53.19,1.1.28,1.71.28.54,0,.99-.08,1.36-.24.37-.16.65-.39.84-.7.19-.31.28-.69.28-1.15,0-.65-.22-1.15-.65-1.49-.43-.34-1.06-.51-1.88-.51h-1.64v-1.12h1.53c.49,0,.9-.08,1.24-.25s.61-.41.8-.72c.19-.31.28-.69.28-1.13,0-.59-.19-1.04-.57-1.35-.38-.31-.93-.47-1.65-.47-.59,0-1.13.1-1.63.31s-.97.53-1.41.96l-.47-1.01c.42-.44.95-.79,1.59-1.04s1.3-.37,2-.37,1.33.11,1.84.34c.51.23.9.55,1.18.98s.41.94.41,1.54c0,.69-.19,1.27-.57,1.76-.38.49-.9.83-1.55,1.01v-.17c.52.08.96.25,1.32.51.36.25.64.58.83.97.19.4.28.85.28,1.35,0,.64-.15,1.2-.45,1.67-.3.47-.73.83-1.29,1.09-.56.26-1.23.39-2.01.39Z"/>
          <path class="st1" d="M172.49,337.69v-1.06h4.43v1.06h-4.43Z"/>
          <path class="st1" d="M179.48,341.37v-.98l3.81-4.11c.36-.39.65-.76.87-1.1.22-.34.39-.68.49-1.01.11-.33.16-.66.16-1,0-.63-.19-1.12-.58-1.45-.39-.33-.95-.5-1.68-.5-.57,0-1.1.1-1.59.31s-.96.53-1.4.96l-.49-1.01c.41-.42.94-.76,1.57-1.02.64-.26,1.31-.39,2.02-.39.75,0,1.38.12,1.9.35.52.23.91.57,1.17,1.02s.4.99.4,1.64c0,.34-.04.67-.12.99s-.2.64-.36.96c-.16.32-.37.65-.62.99-.25.34-.55.69-.89,1.04l-3.35,3.56v-.36h5.81v1.11h-7.1Z"/>
          <path class="st1" d="M193.51,341.37v-2.39h-5.14v-.98l5.36-7.78h1.09v7.66h1.66v1.11h-1.66v2.39h-1.31ZM193.51,337.88v-6.09h.38l-4.41,6.44v-.35h4.03Z"/>
        </g>
      </g>
      <g id="FY_2024-25" class="st3">
        <g class="st3">
          <path class="st1" d="M213.06,341.37v-11.15h6.9v1.09h-5.6v3.89h5.28v1.09h-5.28v5.08h-1.3Z"/>
          <path class="st1" d="M224.42,341.37v-5.77l.28.9-4.56-6.28h1.52l3.59,4.97h-.33l3.59-4.97h1.47l-4.54,6.28.27-.9v5.77h-1.3Z"/>
          <path class="st1" d="M235.27,341.37v-.98l3.81-4.11c.36-.39.65-.76.87-1.1s.39-.68.49-1.01c.11-.33.16-.66.16-1,0-.63-.19-1.12-.58-1.45-.39-.33-.95-.5-1.68-.5-.57,0-1.1.1-1.59.31s-.96.53-1.4.96l-.49-1.01c.41-.42.94-.76,1.57-1.02.64-.26,1.31-.39,2.02-.39.75,0,1.38.12,1.9.35.52.23.91.57,1.17,1.02s.4.99.4,1.64c0,.34-.04.67-.12.99s-.2.64-.36.96c-.16.32-.37.65-.62.99-.25.34-.55.69-.89,1.04l-3.35,3.56v-.36h5.81v1.11h-7.1Z"/>
          <path class="st1" d="M248.09,341.52c-.84,0-1.56-.22-2.14-.66-.59-.44-1.03-1.08-1.32-1.94-.3-.85-.44-1.9-.44-3.13s.15-2.29.44-3.14c.3-.85.74-1.49,1.32-1.92.59-.43,1.3-.65,2.14-.65s1.57.22,2.15.65c.58.43,1.02,1.07,1.31,1.91.29.84.44,1.89.44,3.13s-.15,2.29-.44,3.15c-.3.85-.73,1.5-1.31,1.94-.58.44-1.3.66-2.15.66ZM248.09,340.39c.89,0,1.54-.37,1.97-1.12.43-.75.64-1.91.64-3.5s-.21-2.74-.63-3.47-1.08-1.1-1.96-1.1-1.54.37-1.98,1.11c-.43.74-.65,1.9-.65,3.48s.21,2.73.64,3.48c.43.75,1.08,1.12,1.97,1.12Z"/>
          <path class="st1" d="M254.26,341.37v-.98l3.81-4.11c.36-.39.65-.76.87-1.1.22-.34.39-.68.49-1.01.11-.33.16-.66.16-1,0-.63-.19-1.12-.58-1.45s-.95-.5-1.68-.5c-.57,0-1.1.1-1.59.31s-.96.53-1.4.96l-.49-1.01c.41-.42.94-.76,1.57-1.02.64-.26,1.31-.39,2.02-.39.75,0,1.38.12,1.9.35.52.23.91.57,1.17,1.02s.4.99.4,1.64c0,.34-.04.67-.12.99s-.2.64-.36.96c-.16.32-.37.65-.62.99-.25.34-.55.69-.89,1.04l-3.35,3.56v-.36h5.81v1.11h-7.1Z"/>
          <path class="st1" d="M268.29,341.37v-2.39h-5.14v-.98l5.36-7.78h1.09v7.66h1.66v1.11h-1.66v2.39h-1.31ZM268.29,337.88v-6.09h.38l-4.41,6.44v-.35h4.03Z"/>
          <path class="st1" d="M272.95,337.69v-1.06h4.43v1.06h-4.43Z"/>
          <path class="st1" d="M279.95,341.37v-.98l3.81-4.11c.36-.39.65-.76.87-1.1.22-.34.39-.68.49-1.01.11-.33.16-.66.16-1,0-.63-.19-1.12-.58-1.45s-.95-.5-1.68-.5c-.57,0-1.1.1-1.59.31s-.96.53-1.4.96l-.49-1.01c.41-.42.94-.76,1.57-1.02.64-.26,1.31-.39,2.02-.39.75,0,1.38.12,1.9.35.52.23.91.57,1.17,1.02s.4.99.4,1.64c0,.34-.04.67-.12.99s-.2.64-.36.96c-.16.32-.37.65-.62.99-.25.34-.55.69-.89,1.04l-3.35,3.56v-.36h5.81v1.11h-7.1Z"/>
          <path class="st1" d="M293,341.52c-.48,0-.94-.05-1.39-.16-.45-.11-.88-.26-1.27-.46-.4-.2-.75-.44-1.05-.71l.49-1.03c.51.41,1.02.71,1.54.91.52.2,1.08.29,1.67.29.78,0,1.39-.22,1.83-.65.44-.43.66-1,.66-1.71s-.21-1.32-.63-1.79-1-.7-1.74-.7c-.54,0-1.01.11-1.42.32-.41.22-.77.55-1.1,1h-.95v-6.63h6.47v1.11h-5.19v4.45h-.35c.27-.44.65-.78,1.14-1.02.48-.24,1.03-.36,1.63-.36.71,0,1.32.15,1.83.44.51.3.91.71,1.19,1.24.28.53.42,1.15.42,1.86s-.15,1.31-.46,1.85-.74.96-1.3,1.26c-.56.31-1.23.46-2.01.46Z"/>
        </g>
      </g>
    </g>
  </g>
  <g id="Layer_4">
    <g>
      <path id="Path_22413" class="st0" d="M39.29,318.85h27.4V71.58h-27.4v247.27Z"/>
      <g id="Group_63596">
        <path id="Path_21885" class="st4" d="M66.24,319.33V5.99"/>
      </g>
      <path id="Path_22403" class="st2" d="M57.07,13.95h9.19V4.76h-9.19v9.19Z"/>
      <g id="_85" class="st3">
        <g class="st3">
          <path class="st1" d="M87.1,18.01c0,1.26-.27,2.23-.81,2.93-.54.7-1.3,1.04-2.27,1.04-.53,0-.99-.11-1.4-.32-.41-.21-.74-.51-.99-.89-.25-.38-.41-.82-.48-1.31h.24c-.11.45-.29.85-.55,1.19-.26.34-.58.6-.96.78-.38.18-.8.28-1.25.28-.94,0-1.67-.33-2.19-1s-.78-1.57-.78-2.7.26-2.04.78-2.71,1.25-1,2.19-1c.45,0,.87.09,1.26.28.38.18.7.45.96.78s.43.73.52,1.19h-.22c.06-.5.22-.93.48-1.3s.59-.67.99-.88.86-.32,1.38-.32c.98,0,1.74.35,2.29,1.04.54.7.81,1.67.81,2.93ZM80.77,18.01c0-.78-.18-1.39-.54-1.82-.36-.43-.85-.65-1.49-.65s-1.13.22-1.48.65c-.35.43-.53,1.04-.53,1.82s.18,1.37.53,1.8c.35.43.85.65,1.48.65s1.13-.22,1.49-.65c.36-.43.54-1.03.54-1.8ZM86.02,18.01c0-.9-.17-1.57-.52-2.03-.35-.46-.87-.69-1.57-.69s-1.23.23-1.57.69c-.34.46-.51,1.14-.51,2.03s.17,1.56.51,2.02c.34.46.87.7,1.57.7s1.22-.23,1.57-.7c.35-.46.52-1.14.52-2.02Z"/>
          <path class="st1" d="M87.1,8.28c0,.47-.05.94-.16,1.39s-.26.88-.46,1.27c-.2.4-.44.75-.71,1.05l-1.03-.49c.41-.51.71-1.02.91-1.54.2-.52.29-1.08.29-1.67,0-.78-.22-1.39-.65-1.83-.43-.44-1-.66-1.71-.66s-1.32.21-1.79.63c-.46.42-.7,1-.7,1.74,0,.54.11,1.01.32,1.42.22.41.55.77,1,1.1v.95h-6.63v-6.47h1.11v5.19h4.45v.35c-.44-.27-.78-.65-1.02-1.14-.24-.48-.36-1.03-.36-1.63,0-.71.15-1.32.44-1.83.3-.51.71-.91,1.24-1.19.53-.28,1.15-.42,1.86-.42s1.31.15,1.85.46c.54.31.96.74,1.26,1.3.31.56.46,1.23.46,2.01Z"/>
        </g>
      </g>
    </g>
  </g>
  <g id="Layer_6">
    <g>
      <path id="Path_22416" class="st0" d="M139.76,318.85h27.4V105.95h-27.4v212.89Z"/>
      <g id="Group_63597">
        <path id="Path_21888" class="st4" d="M166.71,319.33V5.99"/>
      </g>
      <path id="Path_22404" class="st2" d="M157.54,13.95h9.19V4.76h-9.19v9.19Z"/>
      <g id="_73" class="st3">
        <g class="st3">
          <path class="st1" d="M183.23,20.98l-10.6-5.47h.57v6.19h-1.12v-7.37h.98l10.17,5.22v1.44Z"/>
          <path class="st1" d="M183.37,8.64c0,.5-.05.97-.16,1.43-.11.46-.26.89-.45,1.29s-.44.75-.72,1.06l-1.03-.47c.42-.52.73-1.04.92-1.57.19-.53.28-1.1.28-1.71,0-.54-.08-.99-.24-1.36-.16-.37-.39-.65-.7-.84-.31-.19-.69-.28-1.15-.28-.65,0-1.15.22-1.49.65-.34.43-.51,1.06-.51,1.88v1.64h-1.12v-1.53c0-.49-.08-.9-.25-1.24s-.41-.61-.72-.8c-.31-.19-.69-.28-1.13-.28-.59,0-1.04.19-1.35.57-.31.38-.47.93-.47,1.65,0,.59.1,1.13.31,1.63s.53.97.96,1.41l-1.01.47c-.44-.42-.79-.95-1.04-1.59s-.37-1.3-.37-2,.11-1.33.34-1.84c.23-.51.55-.9.98-1.18s.94-.41,1.54-.41c.69,0,1.27.19,1.76.57.49.38.83.9,1.01,1.55h-.17c.08-.52.25-.96.51-1.32.25-.36.58-.64.97-.83.4-.19.85-.28,1.35-.28.64,0,1.2.15,1.67.45.47.3.83.73,1.09,1.29.26.56.39,1.23.39,2.01Z"/>
        </g>
      </g>
    </g>
  </g>
  <g id="Layer_7">
    <g>
      <path id="Path_22418" class="st0" d="M240.23,318.85h27.39V108.86h-27.39v209.99Z"/>
      <g id="Group_63601">
        <path id="Path_21891" class="st4" d="M267.18,319.33V5.99"/>
      </g>
      <path id="Path_22420" class="st2" d="M258.02,13.95h9.19V4.76h-9.19v9.19Z"/>
      <g id="_72" class="st3">
        <g class="st3">
          <path class="st1" d="M284.62,20.98l-10.6-5.47h.57v6.19h-1.12v-7.37h.98l10.17,5.22v1.44Z"/>
          <path class="st1" d="M284.62,11.84h-.98l-4.11-3.81c-.39-.36-.76-.65-1.1-.87-.34-.22-.68-.39-1.01-.49-.33-.11-.66-.16-1-.16-.63,0-1.12.19-1.45.58-.33.39-.5.95-.5,1.68,0,.57.1,1.1.31,1.59s.53.96.96,1.4l-1.01.49c-.42-.41-.76-.94-1.02-1.57-.26-.64-.39-1.31-.39-2.02,0-.75.12-1.38.35-1.9.23-.52.57-.91,1.02-1.17s.99-.4,1.64-.4c.34,0,.67.04.99.12s.64.2.96.36c.32.16.65.37.99.62.34.25.69.55,1.04.89l3.56,3.35h-.36v-5.81h1.11v7.1Z"/>
        </g>
      </g>
    </g>
  </g>
</svg>