<svg xmlns="http://www.w3.org/2000/svg" xmlns:xlink="http://www.w3.org/1999/xlink" width="48" height="48" viewBox="0 0 48 48">
  <defs>
    <clipPath id="clip-path">
      <rect id="Rectangle_72228" data-name="Rectangle 72228" width="48" height="48" transform="translate(9592 5158)" fill="#fff"/>
    </clipPath>
    <clipPath id="clip-path-2">
      <path id="Path_22013" data-name="Path 22013" d="M0,15.615H41.177V-27.044H0Z" transform="translate(0 27.044)" fill="none"/>
    </clipPath>
  </defs>
  <g id="Mask_Group_21" data-name="Mask Group 21" transform="translate(-9592 -5158)" clip-path="url(#clip-path)">
    <g id="Group_63528" data-name="Group 63528" transform="translate(9592 5190.384)">
      <g id="Group_63232" data-name="Group 63232" transform="translate(0 -27.044)" clip-path="url(#clip-path-2)">
        <g id="Group_63231" data-name="Group 63231" transform="translate(0 -0.001)">
          <path id="Path_22012" data-name="Path 22012" d="M9.076,2.217V4.026a.661.661,0,0,1-.658.658H6.533a.1.1,0,0,0-.095.095V6.663a.66.66,0,0,1-.658.658H3.971a.659.659,0,0,1-.658-.658V4.778a.1.1,0,0,0-.095-.095H1.334a.66.66,0,0,1-.658-.658V2.217a.66.66,0,0,1,.658-.658H3.219a.1.1,0,0,0,.095-.095V-.421a.658.658,0,0,1,.658-.658H5.781a.66.66,0,0,1,.658.658V1.464a.1.1,0,0,0,.095.095H8.418a.66.66,0,0,1,.658.658m2.764-.126a.1.1,0,0,1-.093-.077A6.961,6.961,0,0,0-2,2.01a.091.091,0,0,1-.093.079H-9.842v0a.7.7,0,0,0-.6.347l-5.139,8.786s0,0,0,0a.7.7,0,0,0-.128.405,5.875,5.875,0,0,0,5.876,5.874,5.875,5.875,0,0,0,5.876-5.874.7.7,0,0,0-.128-.405s0,0,0,0L-8.534,3.638a.086.086,0,0,1,0-.095.09.09,0,0,1,.08-.047h6.289a.092.092,0,0,1,.093.087,6.963,6.963,0,0,0,6.026,6.436.093.093,0,0,1,.08.1l-.962,12.35a.089.089,0,0,0,.024.069.092.092,0,0,0,.069.032h3.41a.085.085,0,0,0,.068-.032.089.089,0,0,0,.025-.069L5.7,10.12a.1.1,0,0,1,.08-.1,6.963,6.963,0,0,0,6.027-6.436A.091.091,0,0,1,11.9,3.5h6.291a.087.087,0,0,1,.08.047.1.1,0,0,1,0,.095L13.84,11.224s0,0,0,0a.7.7,0,0,0-.128.405,5.876,5.876,0,0,0,11.752,0,.7.7,0,0,0-.128-.405s0,0,0,0L20.193,2.449a.7.7,0,0,0-.61-.358v0ZM-.144,38.727V33.743a.1.1,0,0,0-.095-.095H-3.933a.1.1,0,0,0-.095.095v4.985a.092.092,0,0,0,.057.087.1.1,0,0,0,.1-.021l1.282-1.282a.7.7,0,0,1,1,0l1.284,1.282a.1.1,0,0,0,.1.021.093.093,0,0,0,.058-.087m19.584-8.763a.09.09,0,0,1,.084.054.094.094,0,0,1-.011.1,4.367,4.367,0,0,0,0,5.649.1.1,0,0,1,.014.1.091.091,0,0,1-.085.054l-18.083,0a.1.1,0,0,1-.1-.095V33.743a.1.1,0,0,1,.1-.095H12.339a.7.7,0,0,0,0-1.407l-18.877,0a.7.7,0,0,0-.7.7.7.7,0,0,0,.7.7H-5.53a.1.1,0,0,1,.095.095v2.087a.1.1,0,0,1-.095.095H-7.15a2.991,2.991,0,0,1-2.981-2.98,2.991,2.991,0,0,1,2.981-2.98l26.589,0ZM-2.138,19.881a.091.091,0,0,1,.077-.044H1.922a.082.082,0,0,1,.069.033.092.092,0,0,1,.024.074l-.374,2.548a.094.094,0,0,1-.093.08H-.218a.7.7,0,0,0-.7.7.7.7,0,0,0,.7.7H9.965a.7.7,0,0,0,0-1.407H8.2a.094.094,0,0,1-.093-.08l-.372-2.548a.085.085,0,0,1,.022-.074.1.1,0,0,1,.071-.033h4.007a.094.094,0,0,1,.076.039l6.1,8.534a.1.1,0,0,1,.006.1.1.1,0,0,1-.085.05H-7.15c-.147,0-.293.006-.435.021a.087.087,0,0,1-.09-.044.1.1,0,0,1,0-.1ZM-9.759,4.323l3.784,6.467a.092.092,0,0,1,0,.095.1.1,0,0,1-.08.047h-7.57a.09.09,0,0,1-.08-.047.1.1,0,0,1,0-.095l3.786-6.467a.09.09,0,0,1,.08-.047.093.093,0,0,1,.08.047M15.726,10.79l3.783-6.467a.09.09,0,0,1,.08-.047.086.086,0,0,1,.08.047l3.783,6.467a.086.086,0,0,1,0,.095.1.1,0,0,1-.08.047H15.807a.09.09,0,0,1-.08-.047A.093.093,0,0,1,15.726,10.79Z" transform="translate(15.718 3.839)" fill="#0749a4"/>
        </g>
      </g>
    </g>
  </g>
</svg>
