<svg xmlns="http://www.w3.org/2000/svg" xmlns:xlink="http://www.w3.org/1999/xlink" width="48" height="48" viewBox="0 0 48 48">
  <defs>
    <clipPath id="clip-path">
      <rect id="Rectangle_72230" data-name="Rectangle 72230" width="48" height="48" transform="translate(9864 5135)" fill="#fff"/>
    </clipPath>
    <clipPath id="clip-path-2">
      <path id="Path_22024" data-name="Path 22024" d="M0,14.369H36.5V-22.008H0Z" transform="translate(0 22.008)" fill="none"/>
    </clipPath>
  </defs>
  <g id="Mask_Group_23" data-name="Mask Group 23" transform="translate(-9864 -5135)" clip-path="url(#clip-path)">
    <g id="Group_63544" data-name="Group 63544" transform="translate(9864 5168.008)">
      <g id="Group_63245" data-name="Group 63245" transform="translate(0 -22.008)" clip-path="url(#clip-path-2)">
        <g id="Group_63240" data-name="Group 63240" transform="translate(19.357 19.232)">
          <path id="Path_22019" data-name="Path 22019" d="M5.715,4.1a.475.475,0,0,1,.418-.39c.752-.112,1.506-.251,2.258-.39V1.2C7.639,1.086,6.885.974,6.133.835A.446.446,0,0,1,5.715.5,6.313,6.313,0,0,0,5.24-.615.506.506,0,0,1,5.3-1.2c.446-.587.864-1.2,1.255-1.785Q5.8-3.736,5.045-4.491c-.585.418-1.2.836-1.783,1.283a.466.466,0,0,1-.531.056c-.39-.2-.808-.334-1.2-.529a.606.606,0,0,1-.279-.307c-.139-.669-.221-1.365-.362-2.035C.863-6.107.753-6.246.668-6.246c-.641-.028-1.283-.028-1.95-.028-.112.752-.251,1.478-.336,2.23a.477.477,0,0,1-.334.39,11.652,11.652,0,0,0-1.17.474.42.42,0,0,1-.531-.028c-.585-.446-1.2-.864-1.783-1.283q-.754.754-1.506,1.506c.39.585.836,1.2,1.255,1.812a.384.384,0,0,1,.028.5A8.869,8.869,0,0,0-6.105.417a.541.541,0,0,1-.529.446c-.7.083-1.4.223-2.119.334,0,.669,0,1.311.028,1.924,0,.083.139.223.25.251.669.139,1.339.221,1.98.362a.537.537,0,0,1,.306.251c.2.418.336.863.559,1.255a.47.47,0,0,1-.056.5c-.446.585-.864,1.2-1.283,1.783.5.5,1,1,1.534,1.506.557-.39,1.2-.808,1.783-1.255a.421.421,0,0,1,.5-.055,8.981,8.981,0,0,0,1.2.5.445.445,0,0,1,.306.39c.112.754.251,1.506.364,2.258H.837q.208-1.128.417-2.258a.394.394,0,0,1,.307-.39c.418-.139.808-.362,1.226-.5a.709.709,0,0,1,.418.026c.641.418,1.255.864,1.84,1.283.531-.5,1-1,1.534-1.506-.418-.557-.836-1.17-1.283-1.783a.423.423,0,0,1-.056-.529A7.905,7.905,0,0,0,5.715,4.1M-.168,5.266a2.967,2.967,0,0,1-3.01-2.954A2.958,2.958,0,0,1-.2-.7,2.98,2.98,0,0,1,2.787,2.257,2.968,2.968,0,0,1-.168,5.266" transform="translate(8.753 6.274)" fill="#0546a5"/>
        </g>
        <g id="Group_63241" data-name="Group 63241" transform="translate(0.051 -0.001)">
          <path id="Path_22020" data-name="Path 22020" d="M2.26,4.787a30.673,30.673,0,0,0,9.63,1.582c1.276-.083,2.526-.139,3.8-.278a22.47,22.47,0,0,0,6.965-1.721,9.251,9.251,0,0,0,3.8-2.721,3.2,3.2,0,0,0,.694-2.97,4.84,4.84,0,0,0-1.886-2.555A15.873,15.873,0,0,0,19.16-6.54a32.264,32.264,0,0,0-9.38-.722A26.537,26.537,0,0,0,2.26-5.818,11.765,11.765,0,0,0-2.125-3.292,4.054,4.054,0,0,0-3.458-.682,3.863,3.863,0,0,0-2.125,2.26,11.4,11.4,0,0,0,2.26,4.787" transform="translate(3.461 7.333)" fill="#0546a5"/>
        </g>
        <g id="Group_63242" data-name="Group 63242" transform="translate(0 9.277)">
          <path id="Path_22021" data-name="Path 22021" d="M.336,2.592a8,8,0,0,0,2.8,2.116,23.671,23.671,0,0,0,8.674,2.2,33.46,33.46,0,0,0,6.342-.055,1.786,1.786,0,0,0,1.428-.643,4.12,4.12,0,0,1,.494-.481,2.922,2.922,0,0,1,2.635-.831c.274.055.549.188.823.268.028-.053.056-.079.083-.134a2.667,2.667,0,0,1,2.417-1.82c.74-.081,1.483-.028,2.223-.055a.469.469,0,0,0,.329-.079A3.5,3.5,0,0,0,29.847.663c.056-1.365.028-2.731.028-4.1v-.509A6.218,6.218,0,0,1,26.8-.621a21.067,21.067,0,0,1-7.6,2.329,36.367,36.367,0,0,1-6.835.215A25.83,25.83,0,0,1,4.042.1C2.093-.729.282-1.773-.515-3.97c0,1.473.028,2.893,0,4.286A3.506,3.506,0,0,0,.336,2.592" transform="translate(0.515 3.97)" fill="#0546a5"/>
        </g>
        <g id="Group_63243" data-name="Group 63243" transform="translate(0 23.104)">
          <path id="Path_22022" data-name="Path 22022" d="M6.653,2.6c-.083-.281-.221-.309-.441-.309C4.554,2.234,2.926,2.206,1.3,2.065A21.737,21.737,0,0,1-5.607.321c-1.96-.9-3.783-1.969-4.583-4.3V.6a3.744,3.744,0,0,0,.8,2.278A8.012,8.012,0,0,0-6.545,5.13,21.48,21.48,0,0,0,.413,7.239a33.207,33.207,0,0,0,6.461.309c.552-.028,1.132-.112,1.739-.169a2.961,2.961,0,0,1,0-2.84A2.863,2.863,0,0,1,6.653,2.6" transform="translate(10.19 3.981)" fill="#0546a5"/>
        </g>
        <g id="Group_63244" data-name="Group 63244" transform="translate(0 16.468)">
          <path id="Path_22023" data-name="Path 22023" d="M7.121,2.3A33.944,33.944,0,0,1-.854,2,21.933,21.933,0,0,1-7.251.058,8.066,8.066,0,0,1-10.1-2.182a9.618,9.618,0,0,1-.8-1.337c0,1.5,0,3.058.028,4.643a2.726,2.726,0,0,0,.36,1.174A6.069,6.069,0,0,0-8.11,4.674a16.785,16.785,0,0,0,5.04,1.993,28.927,28.927,0,0,0,6.481.846c.8.026,1.579,0,2.41,0C5.709,5.848,6.263,4.592,7.9,4.045c-.139-.6-.25-1.145-.387-1.747Z" transform="translate(10.907 3.519)" fill="#0546a5"/>
        </g>
      </g>
    </g>
  </g>
</svg>
