<svg xmlns="http://www.w3.org/2000/svg" xmlns:xlink="http://www.w3.org/1999/xlink" width="48" height="48" viewBox="0 0 48 48">
  <defs>
    <clipPath id="clip-path">
      <rect id="Rectangle_72233" data-name="Rectangle 72233" width="48" height="48" transform="translate(10003 5240)" fill="#fff"/>
    </clipPath>
    <clipPath id="clip-path-2">
      <path id="Path_22040" data-name="Path 22040" d="M0,18.056H31.478V-25.706H0Z" transform="translate(0 25.706)" fill="none"/>
    </clipPath>
  </defs>
  <g id="Mask_Group_26" data-name="Mask Group 26" transform="translate(-10003 -5240)" clip-path="url(#clip-path)">
    <g id="Group_63545" data-name="Group 63545" transform="translate(10003 5269.706)">
      <g id="Group_63267" data-name="Group 63267" transform="translate(0 -25.706)" clip-path="url(#clip-path-2)">
        <g id="Group_63260" data-name="Group 63260" transform="translate(5.374 20.729)">
          <path id="Path_22033" data-name="Path 22033" d="M1.459.74A.7.7,0,0,1,1.193.425C.809-.472.286-1.053-.138-1.053S-1.122-.427-1.5.506a.694.694,0,0,1-.306.349,6.336,6.336,0,0,0-.266,1.163H1.762A6.47,6.47,0,0,0,1.459.74" transform="translate(2.077 1.053)" fill="#0546a5"/>
        </g>
        <g id="Group_63261" data-name="Group 63261" transform="translate(2.303 16.891)">
          <path id="Path_22034" data-name="Path 22034" d="M.67,2.848a6.816,6.816,0,0,1,.383-1.585A.711.711,0,0,1,1.094.8,5.178,5.178,0,0,1,2.129-.773a2.913,2.913,0,0,1,.7-.516,1.079,1.079,0,0,1,.446-.516,6.474,6.474,0,0,1,.381-2.249A8.744,8.744,0,0,0-.954,2.856c.058-.005.116-.01.175-.01H.67Z" transform="translate(0.954 4.054)" fill="#0546a5"/>
        </g>
        <g id="Group_63262" data-name="Group 63262" transform="translate(7.678 16.123)">
          <path id="Path_22035" data-name="Path 22035" d="M8.869,3.168A8.6,8.6,0,0,0,3.934-3.666a6.289,6.289,0,0,1,.49,2.314A2.115,2.115,0,0,1,6.113.687,2.136,2.136,0,0,1,3.939,2.778,2.137,2.137,0,0,1,1.763.687,2.112,2.112,0,0,1,3.42-1.342,3.885,3.885,0,0,0,2.247-4.267,9.416,9.416,0,0,0,.815-4.51C.779-2.944-4.6.919-4.6.919S-9.983-2.944-10.021-4.51a9.3,9.3,0,0,0-1.583.281,3.42,3.42,0,0,0-1.023,2.816,1.064,1.064,0,0,1,.448.48,4.055,4.055,0,0,1,1.83,1.98.656.656,0,0,1,.032.516,6.418,6.418,0,0,1,.417,1.6H8.685c.061,0,.123,0,.184.009" transform="translate(12.627 4.51)" fill="#0546a5"/>
        </g>
        <g id="Group_63263" data-name="Group 63263" transform="translate(8.445 0.001)">
          <path id="Path_22036" data-name="Path 22036" d="M0,2.924c0,3.916,3.265,9.8,7.293,9.8s7.295-5.887,7.295-9.8A7.194,7.194,0,0,0,7.293-4.163,7.193,7.193,0,0,0,0,2.924" transform="translate(0 4.163)" fill="#0546a5"/>
        </g>
        <g id="Group_63264" data-name="Group 63264" transform="translate(23.032 20.73)">
          <path id="Path_22037" data-name="Path 22037" d="M.95.317c0,.424-.516.768-1.153.768S-1.353.741-1.353.317-.837-.451-.2-.451.95-.107.95.317" transform="translate(1.353 0.451)" fill="#0546a5"/>
        </g>
        <g id="Group_63265" data-name="Group 63265" transform="translate(3.071 42.994)">
          <path id="Path_22038" data-name="Path 22038" d="M10.245,0H-14.079a.458.458,0,0,0-.506.385.458.458,0,0,0,.506.383H10.243A.458.458,0,0,0,10.75.385.458.458,0,0,0,10.245,0" transform="translate(14.585)" fill="#0546a5"/>
        </g>
        <g id="Group_63266" data-name="Group 63266" transform="translate(0 24.568)">
          <path id="Path_22039" data-name="Path 22039" d="M12.056,0c-.061-.005-.123-.01-.184-.01H-14.721c-.063,0-.123.005-.184.01a2.438,2.438,0,0,0-2.259,2.423v.056l.01.056,2.206,12.744a2.443,2.443,0,0,0,2.443,2.37H9.656a2.44,2.44,0,0,0,2.441-2.37L14.3,2.539l.01-.056V2.427A2.436,2.436,0,0,0,12.056,0M-1.425,9.87a1.047,1.047,0,0,1-1.05-1.047,1.048,1.048,0,0,1,1.05-1.045A1.049,1.049,0,0,1-.373,8.823,1.05,1.05,0,0,1-1.425,9.87" transform="translate(17.164 0.006)" fill="#0546a5"/>
        </g>
      </g>
    </g>
  </g>
</svg>
