<svg xmlns="http://www.w3.org/2000/svg" xmlns:xlink="http://www.w3.org/1999/xlink" width="48" height="48" viewBox="0 0 48 48">
  <defs>
    <clipPath id="clip-path">
      <rect id="Rectangle_72218" data-name="Rectangle 72218" width="48" height="48" transform="translate(9981 4760)" fill="#fff"/>
    </clipPath>
    <clipPath id="clip-path-2">
      <path id="Path_21953" data-name="Path 21953" d="M0,8.758H34.26V-25.5H0Z" transform="translate(0 25.502)" fill="none"/>
    </clipPath>
  </defs>
  <g id="Mask_Group_11" data-name="Mask Group 11" transform="translate(-9981 -4760)" clip-path="url(#clip-path)">
    <g id="Group_63541" data-name="Group 63541" transform="translate(9981 4798.502)">
      <g id="Group_63151" data-name="Group 63151" transform="translate(0 -25.502)" clip-path="url(#clip-path-2)">
        <g id="Group_63149" data-name="Group 63149" transform="translate(18.867 18.867)">
          <path id="Path_21951" data-name="Path 21951" d="M3.8,3.186,1.58.966A6.148,6.148,0,0,0,2.607-2.447,6.855,6.855,0,0,0-4.234-9.276a6.855,6.855,0,0,0-6.842,6.829A6.855,6.855,0,0,0-4.234,4.38,6.178,6.178,0,0,0-.814,3.356L1.41,5.575a1.612,1.612,0,0,0,2.394,0,1.649,1.649,0,0,0,0-2.39M-4.234.966a3.426,3.426,0,0,1-3.42-3.414,3.427,3.427,0,0,1,3.42-3.415A3.428,3.428,0,0,1-.814-2.447,3.427,3.427,0,0,1-4.234.966" transform="translate(11.076 9.276)" fill="#0546a5"/>
        </g>
        <g id="Group_63150" data-name="Group 63150" transform="translate(0.001 0)">
          <path id="Path_21952" data-name="Path 21952" d="M6.544,0h-23.9a1.615,1.615,0,0,0-1.706,1.713V32.547a1.615,1.615,0,0,0,1.706,1.713H.912A10.405,10.405,0,0,1-3.7,25.7,10.29,10.29,0,0,1,6.544,15.417a5.774,5.774,0,0,1,1.707.172V1.713A1.616,1.616,0,0,0,6.544,0M-5.4,13.7h-8.535a1.714,1.714,0,0,1-1.706-1.713,1.615,1.615,0,0,1,1.706-1.713H-5.4A1.615,1.615,0,0,1-3.7,11.991,1.714,1.714,0,0,1-5.4,13.7M3.131,6.851H-13.937a1.713,1.713,0,0,1-1.706-1.713,1.615,1.615,0,0,1,1.706-1.713H3.131A1.616,1.616,0,0,1,4.838,5.139,1.714,1.714,0,0,1,3.131,6.851" transform="translate(19.057)" fill="#0546a5"/>
        </g>
      </g>
    </g>
  </g>
</svg>
