<svg xmlns="http://www.w3.org/2000/svg" xmlns:xlink="http://www.w3.org/1999/xlink" width="48" height="48" viewBox="0 0 48 48">
  <defs>
    <clipPath id="clip-path">
      <rect id="Rectangle_72217" data-name="Rectangle 72217" width="48" height="48" transform="translate(9816 4762)" fill="#fff"/>
    </clipPath>
    <clipPath id="clip-path-2">
      <path id="Path_21950" data-name="Path 21950" d="M0,12.158H36.742V-25.133H0Z" transform="translate(0 25.133)" fill="none"/>
    </clipPath>
  </defs>
  <g id="Mask_Group_10" data-name="Mask Group 10" transform="translate(-9816 -4762)" clip-path="url(#clip-path)">
    <g id="Group_63540" data-name="Group 63540" transform="translate(9816 4797.133)">
      <g id="Group_63147" data-name="Group 63147" transform="translate(0 -25.133)" clip-path="url(#clip-path-2)">
        <g id="Group_63146" data-name="Group 63146" transform="translate(0 0.001)">
          <path id="Path_21949" data-name="Path 21949" d="M3.071,1.339V-2.023a.74.74,0,0,1,.734-.745.74.74,0,0,1,.734.745V1.339H8.548V-2.023a.741.741,0,0,1,.736-.745.74.74,0,0,1,.734.745V1.339h4.008V-2.023a.74.74,0,0,1,.734-.745.739.739,0,0,1,.734.745V1.339H19.5V-2.023a.741.741,0,0,1,.736-.745.74.74,0,0,1,.734.745V1.339h1.4a4,4,0,0,1,3.969,4.028V6.793h3.313a.746.746,0,0,1,0,1.491H26.346v4.067h3.313a.746.746,0,0,1,0,1.491H26.346v4.068h3.313a.746.746,0,0,1,0,1.491H26.346v4.067h3.313a.746.746,0,0,1,0,1.493H26.346v1.424a4,4,0,0,1-3.969,4.028h-1.4v3.362a.735.735,0,1,1-1.47,0V30.415H15.495v3.362a.735.735,0,1,1-1.469,0V30.415H10.018v3.362a.735.735,0,1,1-1.47,0V30.415H4.54v3.362a.735.735,0,1,1-1.469,0V30.415H1.666A4,4,0,0,1-2.3,26.386V24.962H-5.615a.742.742,0,0,1-.734-.746.742.742,0,0,1,.734-.746H-2.3V19.4H-5.615a.741.741,0,0,1-.734-.746.74.74,0,0,1,.734-.745H-2.3V13.843H-5.615a.74.74,0,0,1-.734-.745.741.741,0,0,1,.734-.746H-2.3V8.284H-5.615a.742.742,0,0,1-.734-.746.74.74,0,0,1,.734-.745H-2.3V5.367A4,4,0,0,1,1.666,1.339ZM21,10.8a4,4,0,0,0-3.969-4.028H7.017A4,4,0,0,0,3.048,10.8V20.957a4,4,0,0,0,3.969,4.028H17.028A4,4,0,0,0,21,20.957Zm-1.47,0a2.519,2.519,0,0,0-2.5-2.537H7.017a2.52,2.52,0,0,0-2.5,2.537V20.957a2.52,2.52,0,0,0,2.5,2.537H17.028a2.519,2.519,0,0,0,2.5-2.537Z" transform="translate(6.349 2.768)" fill="#0546a5"/>
        </g>
      </g>
    </g>
  </g>
</svg>
