<svg xmlns="http://www.w3.org/2000/svg" xmlns:xlink="http://www.w3.org/1999/xlink" width="48" height="48" viewBox="0 0 48 48">
  <defs>
    <clipPath id="clip-path">
      <rect id="Rectangle_72227" data-name="Rectangle 72227" width="48" height="48" transform="translate(9114 5565)" fill="#fff"/>
    </clipPath>
    <clipPath id="clip-path-2">
      <path id="Path_22000" data-name="Path 22000" d="M0,13.511H41.9V-27.563H0Z" transform="translate(0 27.563)" fill="none"/>
    </clipPath>
  </defs>
  <g id="Mask_Group_20" data-name="Mask Group 20" transform="translate(-9114 -5565)" clip-path="url(#clip-path)">
    <g id="Group_63526" data-name="Group 63526" transform="translate(9114 5599.563)">
      <g id="Group_63212" data-name="Group 63212" transform="translate(0 -27.563)" clip-path="url(#clip-path-2)">
        <g id="Group_63209" data-name="Group 63209" transform="translate(0 0)">
          <path id="Path_21997" data-name="Path 21997" d="M8.816,0H-12.812a5.137,5.137,0,0,0-5.172,5.108V33.9a5.138,5.138,0,0,0,5.172,5.108H2.515A16.027,16.027,0,0,1-.118,30.275V25.743a1.833,1.833,0,0,1-.94.261h-9.4a1.875,1.875,0,0,1-1.881-1.858,1.875,1.875,0,0,1,1.881-1.857h9.4a1.854,1.854,0,0,1,.96.259,5.425,5.425,0,0,1,2.012-3.974H-10.461a1.875,1.875,0,0,1-1.881-1.857,1.875,1.875,0,0,1,1.881-1.858H6.464A1.887,1.887,0,0,1,8.214,16.03l5.36-1.8a1.453,1.453,0,0,1,.414-.112V5.108A5.138,5.138,0,0,0,8.816,0M-2.939,11.144h-7.523a1.874,1.874,0,0,1-1.881-1.857A1.875,1.875,0,0,1-10.461,7.43h7.523A1.875,1.875,0,0,1-1.058,9.287a1.874,1.874,0,0,1-1.881,1.857" transform="translate(17.984)" fill="#0546a5"/>
        </g>
        <g id="Group_63210" data-name="Group 63210" transform="translate(21.779 17.172)">
          <path id="Path_21998" data-name="Path 21998" d="M6.619,1.882V7.67A11.61,11.61,0,0,1,4.285,14.7,12.983,12.983,0,0,1,2.3,16.781,12.366,12.366,0,0,1-.063,18.347l-3.378,1.715-3.38-1.715a12.412,12.412,0,0,1-2.363-1.566A12.983,12.983,0,0,1-11.169,14.7,11.61,11.61,0,0,1-13.5,7.67V1.882L-10.692.836a12.038,12.038,0,0,0,4.232-2.7,18.594,18.594,0,0,1,1.4-1.243l.381-.3a2.007,2.007,0,0,1,2.469,0l.381.3c.49.392.958.808,1.4,1.243A12.046,12.046,0,0,0,3.809.836Z" transform="translate(13.503 3.839)" fill="#0546a5"/>
        </g>
        <g id="Group_63211" data-name="Group 63211" transform="translate(28.797 25.854)">
          <path id="Path_21999" data-name="Path 21999" d="M.15,0H4.7V.01a7.375,7.375,0,0,1-.457.754H3.03a1.93,1.93,0,0,1,.341.809H4.664q.022,0,.022.022-.434.735-.446.742H3.4a2.427,2.427,0,0,1-.317.915,2.156,2.156,0,0,1-.748.7,2.646,2.646,0,0,1-1.261.356v.012a2.11,2.11,0,0,0,.3.441L3.615,7.84v.145a.02.02,0,0,1-.022.022H2.606Q-.063,4.486-.061,4.469V3.755l.01-.028a3.319,3.319,0,0,0,.553.04,1.716,1.716,0,0,0,1.858-1.1,1,1,0,0,0,.055-.329h-2.7c-.015,0-.022-.009-.022-.028Q.14,1.574.15,1.574H2.3V1.562A1.328,1.328,0,0,0,1.584.9,1.976,1.976,0,0,0,.9.764H-.3V.736Q.139,0,.15,0" transform="translate(0.307)" fill="#fff"/>
        </g>
      </g>
    </g>
  </g>
</svg>
