<svg xmlns="http://www.w3.org/2000/svg" xmlns:xlink="http://www.w3.org/1999/xlink" width="48" height="48" viewBox="0 0 48 48">
  <defs>
    <clipPath id="clip-path">
      <rect id="Rectangle_72221" data-name="Rectangle 72221" width="48" height="48" transform="translate(9034 5483)" fill="#fff"/>
    </clipPath>
    <clipPath id="clip-path-2">
      <path id="Path_21982" data-name="Path 21982" d="M0,12.959H36.257v-38.6H0Z" transform="translate(0 25.638)" fill="none"/>
    </clipPath>
  </defs>
  <g id="Mask_Group_14" data-name="Mask Group 14" transform="translate(-9034 -5483)" clip-path="url(#clip-path)">
    <g id="Group_63521" data-name="Group 63521" transform="translate(9034 5517.638)">
      <g id="Group_63188" data-name="Group 63188" transform="translate(0 -25.638)" clip-path="url(#clip-path-2)">
        <g id="Group_63187" data-name="Group 63187" transform="translate(0 0.001)">
          <path id="Path_21981" data-name="Path 21981" d="M5.15,5.617,6.535,8.992a.728.728,0,0,1-.337.924l-1.04.542a.679.679,0,0,1-.577.036.7.7,0,0,1-.419-.4L2.6,6.308Zm8.717,10.15L25.981,26.4a1.6,1.6,0,0,0,.087-.518V5.7a1.612,1.612,0,0,0-.084-.515ZM7.988,18.793,24.777,4.131a1.6,1.6,0,0,0-.285-.027H20.3a3.331,3.331,0,0,1-2.422,3.315A3.263,3.263,0,0,1,14.345,6.1,18.338,18.338,0,0,0,6.66,5.138L7.991,8.38a2.343,2.343,0,0,1-1.072,2.958l-1.04.542a2.242,2.242,0,0,1-1.841.114,2.288,2.288,0,0,1-1.329-1.289L1.045,6.673A5.246,5.246,0,0,1-4.048,4.1H-8.62Zm.51,1.662,4.161-3.634L24.772,27.457a1.549,1.549,0,0,1-.28.027H-8.616L3.368,16.825l4.1,3.625a.781.781,0,0,0,1.033,0M2.169,15.767-10.019,26.6a1.622,1.622,0,0,1-.17-.718V5.7a1.6,1.6,0,0,1,.169-.715ZM21.021.381l2.476.673A.743.743,0,0,0,24.406.52.756.756,0,0,0,23.88-.4L21.4-1.075a.744.744,0,0,0-.909.534.756.756,0,0,0,.528.921M19.828-7.026l1.813-1.837a.762.762,0,0,0,0-1.066.737.737,0,0,0-1.051,0L18.779-8.093a.762.762,0,0,0,0,1.066.736.736,0,0,0,1.051,0m2.177,3.383,2.349-.638a.758.758,0,0,0,.528-.927.746.746,0,0,0-.915-.534l-2.349.637a.758.758,0,0,0-.528.927.747.747,0,0,0,.915.536M17.388-1.088a2.114,2.114,0,0,0,.265-.053,2.037,2.037,0,0,0,1.42-2.49,2.006,2.006,0,0,0-2.458-1.438,2.053,2.053,0,0,0-.256.089L15.073-9.841A1.7,1.7,0,0,0,13-11.054a1.722,1.722,0,0,0-1.234,1.939v0A19.794,19.794,0,0,1,4.239-3.283L6.055,3.582a19.565,19.565,0,0,1,9.4,1.257,1.7,1.7,0,0,0,2.019,1.037,1.729,1.729,0,0,0,1.2-2.1ZM4.566,4.122l-3.181.864A3.645,3.645,0,0,1-3.07,2.38v0A3.7,3.7,0,0,1-.5-2.134L2.683-3,4.566,4.122" transform="translate(10.189 11.113)" fill="#0546a5"/>
        </g>
      </g>
    </g>
  </g>
</svg>
