<svg xmlns="http://www.w3.org/2000/svg" xmlns:xlink="http://www.w3.org/1999/xlink" width="48" height="48" viewBox="0 0 48 48">
  <defs>
    <clipPath id="clip-path">
      <rect id="Rectangle_72219" data-name="Rectangle 72219" width="48" height="48" transform="translate(8873 5134)" fill="#fff"/>
    </clipPath>
    <clipPath id="clip-path-2">
      <path id="Path_21960" data-name="Path 21960" d="M0,14.7H39.5V-29.736H0Z" transform="translate(0 29.736)" fill="none"/>
    </clipPath>
  </defs>
  <g id="Mask_Group_12" data-name="Mask Group 12" transform="translate(-8873 -5134)" clip-path="url(#clip-path)">
    <g id="Group_63519" data-name="Group 63519" transform="translate(8873 5166.736)">
      <g id="Group_63166" data-name="Group 63166" transform="translate(0 -29.736)" clip-path="url(#clip-path-2)">
        <g id="Group_63164" data-name="Group 63164" transform="translate(11.132 13.602)">
          <path id="Path_21958" data-name="Path 21958" d="M5.7,2.852a8.619,8.619,0,0,1-8.619,8.619,8.618,8.618,0,0,1-8.617-8.619A8.618,8.618,0,0,1-2.916-5.767,8.619,8.619,0,0,1,5.7,2.852" transform="translate(11.533 5.767)" fill="#0546a5"/>
        </g>
        <g id="Group_63165" data-name="Group 63165" transform="translate(15.972 0)">
          <path id="Path_21959" data-name="Path 21959" d="M2.5,1.25A3.778,3.778,0,0,1-1.278,5.028,3.778,3.778,0,0,1-5.056,1.25,3.778,3.778,0,0,1-1.278-2.528,3.778,3.778,0,0,1,2.5,1.25" transform="translate(5.056 2.528)" fill="#0546a5"/>
        </g>
      </g>
      <path id="Path_21961" data-name="Path 21961" d="M14.639-20.38H12.5v-5.445h2.139Z" transform="translate(6.181 1.934)" fill="#0546a5"/>
      <g id="Group_63168" data-name="Group 63168" transform="translate(0 -29.736)" clip-path="url(#clip-path-2)">
        <g id="Group_63167" data-name="Group 63167" transform="translate(31.943 9.221)">
          <path id="Path_21962" data-name="Path 21962" d="M1.875,2.333A3.778,3.778,0,0,1-3.285.95,3.778,3.778,0,0,1-1.9-4.21,3.778,3.778,0,0,1,3.258-2.828,3.778,3.778,0,0,1,1.875,2.333" transform="translate(3.792 4.717)" fill="#0546a5"/>
        </g>
      </g>
      <g id="Group_63169" data-name="Group 63169" transform="translate(28.683 -16.63)">
        <path id="Path_21964" data-name="Path 21964" d="M.354,1.514-.715-.338,4-3.061l1.07,1.852Z" transform="translate(0.715 3.061)" fill="#0546a5"/>
      </g>
      <g id="Group_63171" data-name="Group 63171" transform="translate(0 -29.736)" clip-path="url(#clip-path-2)">
        <g id="Group_63170" data-name="Group 63170" transform="translate(31.944 27.664)">
          <path id="Path_21965" data-name="Path 21965" d="M.625,2.333A3.778,3.778,0,0,1-.757-2.828,3.778,3.778,0,0,1,4.4-4.21,3.778,3.778,0,0,1,5.786.95,3.778,3.778,0,0,1,.625,2.333" transform="translate(1.264 4.717)" fill="#0546a5"/>
        </g>
      </g>
      <g id="Group_63172" data-name="Group 63172" transform="translate(28.682 -2.976)">
        <path id="Path_21967" data-name="Path 21967" d="M0,.613,1.069-1.239,5.784,1.483,4.715,3.334Z" transform="translate(0 1.239)" fill="#0546a5"/>
      </g>
      <g id="Group_63174" data-name="Group 63174" transform="translate(0 -29.736)" clip-path="url(#clip-path-2)">
        <g id="Group_63173" data-name="Group 63173" transform="translate(15.972 36.885)">
          <path id="Path_21968" data-name="Path 21968" d="M0,1.25A3.778,3.778,0,1,1,3.778,5.028,3.778,3.778,0,0,1,0,1.25" transform="translate(0 2.528)" fill="#0546a5"/>
        </g>
      </g>
      <path id="Path_21970" data-name="Path 21970" d="M12.5-7.554h2.139v5.445H12.5Z" transform="translate(6.181 10.969)" fill="#0546a5"/>
      <g id="Group_63176" data-name="Group 63176" transform="translate(0 -29.736)" clip-path="url(#clip-path-2)">
        <g id="Group_63175" data-name="Group 63175" transform="translate(0 27.663)">
          <path id="Path_21971" data-name="Path 21971" d="M.625.168A3.778,3.778,0,1,1-.757,5.328,3.778,3.778,0,0,1,.625.168" transform="translate(1.264 0.339)" fill="#0546a5"/>
        </g>
      </g>
      <g id="Group_63177" data-name="Group 63177" transform="translate(5.034 -2.976)">
        <path id="Path_21973" data-name="Path 21973" d="M1.56,0,2.629,1.852-2.085,4.575l-1.07-1.852Z" transform="translate(3.155)" fill="#0546a5"/>
      </g>
      <g id="Group_63179" data-name="Group 63179" transform="translate(0 -29.736)" clip-path="url(#clip-path-2)">
        <g id="Group_63178" data-name="Group 63178" transform="translate(0 9.221)">
          <path id="Path_21974" data-name="Path 21974" d="M1.875.168A3.778,3.778,0,0,1,3.258,5.328,3.778,3.778,0,0,1-1.9,6.711,3.778,3.778,0,0,1-3.285,1.55,3.778,3.778,0,0,1,1.875.168" transform="translate(3.792 0.339)" fill="#0546a5"/>
        </g>
      </g>
      <g id="Group_63180" data-name="Group 63180" transform="translate(5.035 -16.628)">
        <path id="Path_21976" data-name="Path 21976" d="M1.914.9.845,2.752-3.87.031-2.8-1.821Z" transform="translate(3.87 1.821)" fill="#0546a5"/>
      </g>
    </g>
  </g>
</svg>
