<svg xmlns="http://www.w3.org/2000/svg" xmlns:xlink="http://www.w3.org/1999/xlink" width="48" height="48" viewBox="0 0 48 48">
  <defs>
    <clipPath id="clip-path">
      <rect id="Rectangle_72214" data-name="Rectangle 72214" width="48" height="48" transform="translate(9289 4761)" fill="#fff"/>
    </clipPath>
    <clipPath id="clip-path-2">
      <path id="Path_21940" data-name="Path 21940" d="M0,17.085H39.176V-26.869H0Z" transform="translate(0 26.869)" fill="none"/>
    </clipPath>
  </defs>
  <g id="Mask_Group_7" data-name="Mask Group 7" transform="translate(-9289 -4761)" clip-path="url(#clip-path)">
    <g id="Group_63537" data-name="Group 63537" transform="translate(9289 4791.869)">
      <g id="Group_63134" data-name="Group 63134" transform="translate(0 -26.869)" clip-path="url(#clip-path-2)">
        <g id="Group_63125" data-name="Group 63125" transform="translate(0.001 22.762)">
          <path id="Path_21931" data-name="Path 21931" d="M15.029,7.99v-2.4h.1a.413.413,0,0,0,.414-.414V-12.151a.414.414,0,0,0-.414-.414s-1.24.129-1.24,5.042V3.951H-21.981V-7.523c0-4.913-1.24-5.042-1.24-5.042a.414.414,0,0,0-.414.414V5.173a.413.413,0,0,0,.414.414h.1v2.4a.638.638,0,0,0,.638.638H14.391a.639.639,0,0,0,.638-.638" transform="translate(23.635 12.565)" fill="#0546a5"/>
        </g>
        <g id="Group_63126" data-name="Group 63126" transform="translate(7.02 14.691)">
          <path id="Path_21932" data-name="Path 21932" d="M2.884,2.325a1.6,1.6,0,0,1-1.59,1.49c-.034,0-.069,0-.1,0A1.572,1.572,0,0,1,.352,3.5,1.592,1.592,0,0,1-.3,2.119c.028-.429.067-.841.116-1.242L-.42.891c-.453.026-.888.041-1.3.041h0A13.184,13.184,0,0,1-4.536.662V17.4a2.057,2.057,0,0,0,2.058,2.058A2.057,2.057,0,0,0-.42,17.4V4.215H.352V17.4a2.058,2.058,0,1,0,4.116,0V-3.657a11.873,11.873,0,0,0-.787,1.816,16.173,16.173,0,0,0-.8,4.167" transform="translate(4.536 3.657)" fill="#0546a5"/>
        </g>
        <g id="Group_63127" data-name="Group 63127" transform="translate(7.777 0)">
          <path id="Path_21933" data-name="Path 21933" d="M.038,1.126a3.745,3.745,0,1,1,2.8,4.5,3.744,3.744,0,0,1-2.8-4.5" transform="translate(0.06 1.77)" fill="#0546a5"/>
        </g>
        <g id="Group_63128" data-name="Group 63128" transform="translate(16.267 12.214)">
          <path id="Path_21934" data-name="Path 21934" d="M.648.026.594-.041C.458.09.324.226.195.366A10.259,10.259,0,0,0-1.019,2.007,20.743,20.743,0,0,0,.749,3.831V.147C.717.108.681.067.648.026" transform="translate(1.019 0.041)" fill="#0546a5"/>
        </g>
        <g id="Group_63129" data-name="Group 63129" transform="translate(28.899 16.333)">
          <path id="Path_21935" data-name="Path 21935" d="M.535,0A3.1,3.1,0,0,0-.841,2.581a.8.8,0,0,0,.8.8.8.8,0,0,0,.8-.8h0A1.492,1.492,0,0,1,.883,1.97a1.565,1.565,0,0,1-.276-.854Q.594.534.535,0" transform="translate(0.841)" fill="#0546a5"/>
        </g>
        <g id="Group_63130" data-name="Group 63130" transform="translate(33.333 16.166)">
          <path id="Path_21936" data-name="Path 21936" d="M0,.784a1.523,1.523,0,0,1,.19.73V19.606a.8.8,0,1,0,1.593,0V1.514A3.1,3.1,0,0,0,.126-1.233C.165-.84.193-.441.2-.026a1.583,1.583,0,0,1-.2.81" transform="translate(0 1.233)" fill="#0546a5"/>
        </g>
        <g id="Group_63131" data-name="Group 63131" transform="translate(11.575 7.945)">
          <path id="Path_21937" data-name="Path 21937" d="M1.473,1.065A12.736,12.736,0,0,0,.553,2.194a14.571,14.571,0,0,0-2.1,4.291,1.622,1.622,0,0,1,.489.3A1.591,1.591,0,0,1-.517,7.836,1.594,1.594,0,0,1-1.964,9.562a.08.08,0,0,1-.02,0c-.07.007-.139.011-.209.016q-.079.623-.119,1.287a1.268,1.268,0,0,0,.329.941,1.278,1.278,0,0,0,.86.416c.028,0,.056,0,.083,0A1.275,1.275,0,0,0,.231,11.032,16.434,16.434,0,0,1,1.068,6.7,11.994,11.994,0,0,1,2.133,4.427c.008-.015.016-.028.026-.043a10.6,10.6,0,0,1,1.194-1.6c.147-.16.291-.3.435-.442.234-.224.461-.422.674-.591v9.241c0,.008,0,.015,0,.021A82.8,82.8,0,0,0,3.439,26.043a2.072,2.072,0,1,0,4.144,0,98.131,98.131,0,0,1,.609-12.025c.09-.707.177-1.279.255-1.736H9.483a84.025,84.025,0,0,1,.864,13.761,2.072,2.072,0,1,0,4.144,0,82.772,82.772,0,0,0-1.026-15.025c0-.008,0-.015,0-.023V1.314a4.75,4.75,0,0,1,.878.525,5.275,5.275,0,0,1,1.592,1.976,8.591,8.591,0,0,1,.748,2.72c.047.4.079.824.09,1.286a1.247,1.247,0,0,0,.142.551,1.274,1.274,0,0,0,1.132.694h.031a1.278,1.278,0,0,0,1.15-.793,1.3,1.3,0,0,0,.095-.512c-.011-.476-.043-.931-.09-1.364A11.094,11.094,0,0,0,18.17,2.578,7.63,7.63,0,0,0,14.4-1.063a7.376,7.376,0,0,0-1.77-.53,1.284,1.284,0,0,0-.45-.082h-.159A4.037,4.037,0,0,1,9.886-.394a4.109,4.109,0,0,1-.924.106A4.039,4.039,0,0,1,5.9-1.675H5.749a1.294,1.294,0,0,0-.458.085,1.273,1.273,0,0,0-.314.075l0,0A9.323,9.323,0,0,0,2.333.216C2.266.275,2.2.334,2.132.4c-.216.2-.437.424-.659.667" transform="translate(2.316 1.675)" fill="#0546a5"/>
        </g>
        <g id="Group_63132" data-name="Group 63132" transform="translate(19.11 1.523)">
          <path id="Path_21938" data-name="Path 21938" d="M.438,2.5a3.736,3.736,0,0,0,3.466.97A3.723,3.723,0,0,0,5.676,2.5a3.809,3.809,0,0,0,.288-.319A3.735,3.735,0,0,0,6.7-1.029a3.745,3.745,0,0,0-4.5-2.8,3.743,3.743,0,0,0-2.8,4.5A3.721,3.721,0,0,0,.147,2.177,3.367,3.367,0,0,0,.438,2.5" transform="translate(0.689 3.925)" fill="#0546a5"/>
        </g>
        <g id="Group_63133" data-name="Group 63133" transform="translate(3.324 8.605)">
          <path id="Path_21939" data-name="Path 21939" d="M1.516.117A5.2,5.2,0,0,0,.171,1.03,8.823,8.823,0,0,0-1.545,3.171a5.824,5.824,0,0,0-.839,2.824A3.652,3.652,0,0,0-1.975,7.7,4.136,4.136,0,0,0,.263,9.577c.085.033.173.062.262.093a7.531,7.531,0,0,0,.787.222,12.711,12.711,0,0,0,2.82.28q.613,0,1.3-.043c.093,0,.186-.01.281-.018s.216-.016.326-.025c.052,0,.1-.008.157-.011l.008,0a1.274,1.274,0,0,0,.677-2.262,1.2,1.2,0,0,0-.326-.19,1.235,1.235,0,0,0-.582-.087c-.53.046-1.018.072-1.466.082-.126,0-.25,0-.371,0a11.338,11.338,0,0,1-1.711-.111,6.034,6.034,0,0,1-1.109-.263,3.372,3.372,0,0,1-.383-.162,1.838,1.838,0,0,1-.208-.121,1.2,1.2,0,0,1-.438-.448,1.1,1.1,0,0,1-.115-.52,4.369,4.369,0,0,1,1.1-2.428c.013-.016.028-.033.041-.051V6.9a6.618,6.618,0,0,0,1.994.375c.1.007.213.011.327.016.144,0,.293.008.453.008H4.13c.55,0,1.158-.029,1.811-.087.046,0,.093,0,.141,0a1.619,1.619,0,0,1,.252.021,14.746,14.746,0,0,1,2.22-4.5A12.942,12.942,0,0,1,9.42,1.681a12.094,12.094,0,0,1,.865-.856L10.355.76c-.026-.049-.049-.092-.062-.118s-.016-.029-.02-.036l0,0a1.267,1.267,0,0,0-.4-.466,1.28,1.28,0,0,0-.846-.319H2.6a1.291,1.291,0,0,0-.556.128,2.8,2.8,0,0,0-.527.173" transform="translate(2.384 0.184)" fill="#0546a5"/>
        </g>
      </g>
    </g>
  </g>
</svg>
