<svg xmlns="http://www.w3.org/2000/svg" xmlns:xlink="http://www.w3.org/1999/xlink" width="48" height="48" viewBox="0 0 48 48">
  <defs>
    <clipPath id="clip-path">
      <rect id="Rectangle_72232" data-name="Rectangle 72232" width="48" height="48" transform="translate(9864 5240)" fill="#fff"/>
    </clipPath>
    <clipPath id="clip-path-2">
      <path id="Path_22032" data-name="Path 22032" d="M0,15.029H38.856V-23.7H0Z" transform="translate(0 23.703)" fill="none"/>
    </clipPath>
  </defs>
  <g id="Mask_Group_25" data-name="Mask Group 25" transform="translate(-9864 -5240)" clip-path="url(#clip-path)">
    <g id="Group_63531" data-name="Group 63531" transform="translate(9864 5272.703)">
      <g id="Group_63253" data-name="Group 63253" transform="translate(25.983 -21.218)">
        <path id="Path_22027" data-name="Path 22027" d="M0,0H0Z" fill="#0546a5"/>
      </g>
      <g id="Group_63258" data-name="Group 63258" transform="translate(0 -23.703)" clip-path="url(#clip-path-2)">
        <g id="Group_63254" data-name="Group 63254" transform="translate(0 -0.001)">
          <path id="Path_22028" data-name="Path 22028" d="M10.082.964v-.6a1.871,1.871,0,0,0-.554-1.33A1.878,1.878,0,0,0,8.2-1.521H-14.019a1.874,1.874,0,0,0-1.33.554A1.883,1.883,0,0,0-15.9.363l0,30.856h0a1.882,1.882,0,0,0,.557,1.33,1.87,1.87,0,0,0,1.325.549h0v0h.3V4.471a3.5,3.5,0,0,1,1.029-2.477A3.491,3.491,0,0,1-10.21.964Z" transform="translate(15.901 1.521)" fill="#0546a5"/>
        </g>
        <g id="Group_63255" data-name="Group 63255" transform="translate(25.62 6.664)">
          <path id="Path_22029" data-name="Path 22029" d="M4.384.752A6.6,6.6,0,0,0-.3-1.186,6.593,6.593,0,0,0-4.976.752a6.6,6.6,0,0,0-1.938,4.68,6.593,6.593,0,0,0,1.938,4.68A6.593,6.593,0,0,0-.3,12.05a6.6,6.6,0,0,0,4.68-1.938,6.593,6.593,0,0,0,1.938-4.68A6.6,6.6,0,0,0,4.384.752m-.52,2.77L-1.108,8.494a.811.811,0,0,1-1.147,0l-2.2-2.206h0a.809.809,0,0,1,0-1.145.808.808,0,0,1,1.147,0l1.629,1.629,4.4-4.4A.811.811,0,0,1,3.864,3.522" transform="translate(6.914 1.186)" fill="#0546a5"/>
        </g>
        <g id="Group_63256" data-name="Group 63256" transform="translate(3.8 4.108)">
          <path id="Path_22030" data-name="Path 22030" d="M8.773,5.822A8.258,8.258,0,0,1,7.2,3.62H-9.78a.812.812,0,0,1-.812-.812A.811.811,0,0,1-9.78,2H6.6a8.251,8.251,0,0,1-.245-2,8.258,8.258,0,0,1,.159-1.619H.972A.811.811,0,0,1,.16-2.438.811.811,0,0,1,.972-3.25H7.021A8.246,8.246,0,0,1,8.773-5.838a8.256,8.256,0,0,1,3.3-2.016,1.9,1.9,0,0,0-.471-.776,1.883,1.883,0,0,0-1.33-.552H-11.948a1.879,1.879,0,0,0-1.33.552A1.887,1.887,0,0,0-13.83-7.3l0,30.856h0a1.886,1.886,0,0,0,.557,1.332,1.874,1.874,0,0,0,1.327.549h0v0l17.223-.021V21a2.449,2.449,0,0,1,2.443-2.443h4.436V7.867A8.22,8.22,0,0,1,8.773,5.822M-9.781-3.25H-2.65a.813.813,0,0,1,.812.812.812.812,0,0,1-.812.812H-9.781a.811.811,0,0,1-.812-.812.812.812,0,0,1,.812-.812m0,10.486h4.9a.813.813,0,0,1,.812.814.813.813,0,0,1-.812.812h-4.9a.812.812,0,0,1-.812-.812.812.812,0,0,1,.812-.814M8.1,17.63m0-3.526H-9.78a.812.812,0,0,1-.812-.812.813.813,0,0,1,.812-.812H8.1a.812.812,0,0,1,0,1.624m0-5.242H-1.261a.813.813,0,0,1-.814-.812.814.814,0,0,1,.814-.814H8.1a.813.813,0,0,1,0,1.626" transform="translate(13.837 9.183)" fill="#0546a5"/>
        </g>
        <g id="Group_63257" data-name="Group 63257" transform="translate(24.535 33.473)">
          <path id="Path_22031" data-name="Path 22031" d="M.094.094A.819.819,0,0,0-.148.672V3.947L3.958-.148H.672A.819.819,0,0,0,.094.094" transform="translate(0.148 0.148)" fill="#0546a5"/>
        </g>
      </g>
    </g>
  </g>
</svg>
