<svg xmlns="http://www.w3.org/2000/svg" xmlns:xlink="http://www.w3.org/1999/xlink" width="48" height="48" viewBox="0 0 48 48">
  <defs>
    <clipPath id="clip-path">
      <rect id="Rectangle_72213" data-name="Rectangle 72213" width="48" height="48" transform="translate(9162 4761)" fill="#fff"/>
    </clipPath>
    <clipPath id="clip-path-2">
      <path id="Path_21930" data-name="Path 21930" d="M0,14.817H45.751V-28.32H0Z" transform="translate(0 28.32)" fill="none"/>
    </clipPath>
  </defs>
  <g id="Mask_Group_6" data-name="Mask Group 6" transform="translate(-9162 -4761)" clip-path="url(#clip-path)">
    <g id="Group_63513" data-name="Group 63513" transform="translate(9162 4793.32)">
      <g id="Group_63123" data-name="Group 63123" transform="translate(0 -28.32)" clip-path="url(#clip-path-2)">
        <g id="Group_63122" data-name="Group 63122" transform="translate(0 0)">
          <path id="Path_21929" data-name="Path 21929" d="M14.976,10.52A7.311,7.311,0,1,0,17.129,15.7,7.369,7.369,0,0,0,14.976,10.52ZM7.108,7.26A8.854,8.854,0,0,0,1.314,18.378c.011.03.02.061.029.09H-28.3c-.178-2.634-.273-5.059-.286-5.429a.661.661,0,0,0,0-.078,7.326,7.326,0,0,1,.477-3.63A3.967,3.967,0,0,1-26.2,7.391,19.908,19.908,0,0,0-21.42,5.947a33.97,33.97,0,0,0,4.679-2.516L-10.2,15.114a.763.763,0,0,0,1.022.337.765.765,0,0,0,.308-.283L-1.652,3.414A34.216,34.216,0,0,0,3.055,5.947,20.7,20.7,0,0,0,7.11,7.26ZM-17.434-13.192a7.163,7.163,0,0,1,1.651-3.558A7.594,7.594,0,0,1-5.269-18.831,7.6,7.6,0,0,1-3.755-17.5a2.96,2.96,0,0,1,2.3,2.046,9.262,9.262,0,0,1,.294,4.078c-.052.5-.123,1.025-.218,1.578a1.64,1.64,0,0,1,.908,1.96A9.19,9.19,0,0,1-2.154-4.351a7.127,7.127,0,0,1-7.72,6.472,7.121,7.121,0,0,1-6.493-6.5A10.3,10.3,0,0,1-17.9-8.089a1.79,1.79,0,0,1,.763-1.936A7,7,0,0,1-17.434-13.192Zm22.8,28.7a.76.76,0,0,1,1.2-.928l1.956,2.535,4.521-4.506a.761.761,0,0,1,1.078,1.074L8.991,18.8v0q-.037.034-.073.064a.762.762,0,0,1-1.066-.137Z" transform="translate(28.623 20.107)" fill="#0546a5"/>
        </g>
      </g>
    </g>
  </g>
</svg>
