<svg xmlns="http://www.w3.org/2000/svg" xmlns:xlink="http://www.w3.org/1999/xlink" width="48" height="48" viewBox="0 0 48 48">
  <defs>
    <clipPath id="clip-path">
      <rect id="Rectangle_72216" data-name="Rectangle 72216" width="48" height="48" transform="translate(9608 4759)" fill="#fff"/>
    </clipPath>
    <clipPath id="clip-path-2">
      <path id="Path_21948" data-name="Path 21948" d="M0,9.972H36.741v-41H0Z" transform="translate(0 31.028)" fill="none"/>
    </clipPath>
  </defs>
  <g id="Mask_Group_9" data-name="Mask Group 9" transform="translate(-9608 -4759)" clip-path="url(#clip-path)">
    <g id="Group_63539" data-name="Group 63539" transform="translate(9608 4797.028)">
      <g id="Group_63144" data-name="Group 63144" transform="translate(0 -31.028)" clip-path="url(#clip-path-2)">
        <g id="Group_63143" data-name="Group 63143" transform="translate(0 0)">
          <path id="Path_21947" data-name="Path 21947" d="M8.494,6.293a3.532,3.532,0,0,0-4.325.579l-6.655-3.8A6.118,6.118,0,0,0-2.152.92a6.131,6.131,0,0,0-.333-2.15l6.655-3.8a3.534,3.534,0,0,0,4.325.579A3.547,3.547,0,0,0,9.825-9.33a3.593,3.593,0,0,0-4.908-1.323A3.547,3.547,0,0,0,3.17-6.6L-3.484-2.8A5.563,5.563,0,0,0-7.143-4.95v-7.6a3.552,3.552,0,0,0,2.661-3.471A3.539,3.539,0,0,0-8.059-19.58a3.61,3.61,0,0,0-3.659,3.555,3.627,3.627,0,0,0,2.745,3.471v7.6A5.965,5.965,0,0,0-12.717-2.8l-6.655-3.8a3.605,3.605,0,0,0-1.664-4.05A3.574,3.574,0,0,0-25.943-9.33a3.548,3.548,0,0,0,1.332,4.877,3.55,3.55,0,0,0,4.325-.579l6.655,3.8A6.178,6.178,0,0,0-14.048.92a6.165,6.165,0,0,0,.416,2.149l-6.655,3.8a3.548,3.548,0,0,0-4.325-.579,3.53,3.53,0,0,0-1.332,4.877,3.575,3.575,0,0,0,4.908,1.323,3.607,3.607,0,0,0,1.664-4.051l6.655-3.8A6.355,6.355,0,0,0-8.973,6.788v7.606a3.625,3.625,0,0,0-2.745,3.471A3.611,3.611,0,0,0-8.059,21.42a3.54,3.54,0,0,0,3.577-3.555,3.551,3.551,0,0,0-2.661-3.471V6.788A5.906,5.906,0,0,0-3.484,4.64l6.655,3.8a3.549,3.549,0,0,0,1.747,4.051A3.594,3.594,0,0,0,9.825,11.17,3.528,3.528,0,0,0,8.494,6.293" transform="translate(26.429 19.58)" fill="#0546a5"/>
        </g>
      </g>
    </g>
  </g>
</svg>
