<svg xmlns="http://www.w3.org/2000/svg" xmlns:xlink="http://www.w3.org/1999/xlink" width="48" height="48" viewBox="0 0 48 48">
  <defs>
    <clipPath id="clip-path">
      <rect id="Rectangle_72231" data-name="Rectangle 72231" width="48" height="48" transform="translate(10003 5135)" fill="#fff"/>
    </clipPath>
    <clipPath id="clip-path-2">
      <path id="Path_22026" data-name="Path 22026" d="M0,10.191H34.185v-37.25H0Z" transform="translate(0 27.059)" fill="none"/>
    </clipPath>
  </defs>
  <g id="Mask_Group_24" data-name="Mask Group 24" transform="translate(-10003 -5135)" clip-path="url(#clip-path)">
    <g id="Group_63530" data-name="Group 63530" transform="translate(10003 5172.059)">
      <g id="Group_63251" data-name="Group 63251" transform="translate(0 -27.059)" clip-path="url(#clip-path-2)">
        <g id="Group_63250" data-name="Group 63250" transform="translate(0 0)">
          <path id="Path_22025" data-name="Path 22025" d="M2.551,0A9.4,9.4,0,0,0-6.772,9.457V27.793A9.406,9.406,0,0,0,2.551,37.25a9.406,9.406,0,0,0,9.323-9.457V9.457A9.4,9.4,0,0,0,2.551,0m7.04,27.793a7.2,7.2,0,0,1-7.04,7.141,7.2,7.2,0,0,1-7.039-7.141V9.457A7.032,7.032,0,0,1,2.551,2.51a.508.508,0,0,1,.571.578.509.509,0,0,1-.571.58,5.767,5.767,0,0,0-5.708,5.79v9.65H9.591Zm14.839,4.632L13.4,21.23V11.388c.38,0,.951-.193,1.331-.193a12.3,12.3,0,0,1,8.943,3.86,12.945,12.945,0,0,1,.76,17.37M13.4,24.705l9.513,9.456a12.68,12.68,0,0,1-8.181,3.089,11.185,11.185,0,0,1-5.136-1.159,11.022,11.022,0,0,0,3.805-8.3Z" transform="translate(6.772)" fill="#0546a5"/>
        </g>
      </g>
    </g>
  </g>
</svg>
