<svg xmlns="http://www.w3.org/2000/svg" xmlns:xlink="http://www.w3.org/1999/xlink" width="65.5" height="92.684" viewBox="0 0 65.5 92.684">
  <defs>
    <clipPath id="clip-path">
      <path id="Path_21759" data-name="Path 21759" d="M0,53.308H65.5V-39.376H0Z" transform="translate(0 39.376)" fill="none"/>
    </clipPath>
  </defs>
  <g id="Group_62458" data-name="Group 62458" transform="translate(0 39.376)">
    <g id="Group_62457" data-name="Group 62457" transform="translate(0 -39.376)" clip-path="url(#clip-path)">
      <g id="Group_62408" data-name="Group 62408" transform="translate(15.63 0)">
        <path id="Path_21710" data-name="Path 21710" d="M15.021,19.907c1.379-4.157,2.74-8.318,3.768-12.579.174-.727.1-1.083-.746-1.24a18.7,18.7,0,0,1-7.358-2.815C7.36.978,5.91-3.294,6.964-7.679a9.178,9.178,0,0,1,7.93-6.949A6.109,6.109,0,0,1,22.12-9.252a33.231,33.231,0,0,1-.082,10.536c-.191-.028-.523-.268-.459.165a1.544,1.544,0,0,0,.435,1.036c.019.035.054.068.059.1.221,1.824.221,1.822,2.121,1.805,3.58-.031,7.142-.525,10.741-.247A3.986,3.986,0,0,1,38.68,8.837a27.247,27.247,0,0,1-3.152,7.749c-1.012,1.73-1.822,3.571-2.975,5.233-2.095,3.018-4.046,6.139-6.146,9.154C22.8,36.154,18.733,40.988,14.781,45.908c-2.361,2.938-4.821,5.8-7.1,8.8C3.033,60.857-1.691,66.944-6.384,73.055c-.457.6-.937,1.17-1.37,1.782a1.782,1.782,0,0,1-2.476.607,1.478,1.478,0,0,1-.563-2.253,8.637,8.637,0,0,0,.774-1.883c.2-.654-.12-1.977,1.466-1.243.475.221.982-.6,1.349-1.064,2.236-2.839,4.449-5.7,6.683-8.542,3.7-4.708,7.285-9.5,11.115-14.106,3.623-4.357,7.113-8.82,10.58-13.3A168.341,168.341,0,0,0,31.941,17.08a28.442,28.442,0,0,0,3.907-9.025c.341-1.692.233-1.8-1.441-1.895-2.9-.158-5.788.2-8.683.268-1.248.026-2.5.082-3.74.125l0,0c.393-1-.158-1.9-.254-2.971-.661,1.167-1.511.181-2.238.36a57.278,57.278,0,0,0,.767-8.4,15.725,15.725,0,0,0-.9-6.65,2.285,2.285,0,0,0-2.448-1.535,7.66,7.66,0,0,0-5.047,2.281C8.353-6.9,8.671-.491,12.543,2.068A13.877,13.877,0,0,0,19.357,4.2c-.979.539-.214,1.309-.235,1.963s.341.878.911.471c.358-.254.833-.49.944.038.207.984.527-.026.751.108h-.012c-1.026,3.225-1.481,6.6-2.825,9.761a35.613,35.613,0,0,0-1.452,4.708A4.171,4.171,0,0,1,16.363,23.5c-.1-.122-.181-.32-.306-.355-1.375-.388-1.509-1.179-.859-2.335.12-.212.61-.753-.177-.9" transform="translate(11.095 14.705)" fill="#3a6bba"/>
      </g>
      <g id="Group_62409" data-name="Group 62409" transform="translate(0 36.134)">
        <path id="Path_21711" data-name="Path 21711" d="M6.983,16.523a9.89,9.89,0,0,1,.2,2.848c.132,3.641.031,7.285.064,10.919.028,3.34.113,6.72.457,10.067.038.355.014.72.019,1.08-.365.231-.064.7-.339.97a10.311,10.311,0,0,0-1.255-2.959.864.864,0,0,0-.934-.407c-.424.12-.367.506-.33.807a2.205,2.205,0,0,1-.558,1.659A30.046,30.046,0,0,1,1.386,35.45a105.52,105.52,0,0,1-3.7-11.981A132.275,132.275,0,0,1-4.73,9.834c-.859-6.221-.2-12.438.014-18.654.033-1-.028-2.005-.047-3.008.235-.177.577-.781.638.059.078,1.1,1.125.909,1.688,1.24.52.306.447-.52.537-.9.056-.252.217-.332.435-.235.2.089.56.214.33.485-.381.452,0,.673.214.894.61.645.435,1.083-.292,1.429-1.4-.824-.847.631-.862.892A112.951,112.951,0,0,0-2.279,8.2c.1,1.08.141,2.166.209,3.248-.351.1-.377.381-.334.661.179,1.156.367,2.314.579,3.465.016.089.252.139.386.207.824,2.328.946,4.8,1.6,7.189C1.277,27.075,2.546,31.124,4,35.121c.094.259.177.631.636.638V17.714c.377-.155.965.5,1.111-.08.188-.734.784-.8,1.236-1.111" transform="translate(5.158 12.205)" fill="#3a6bba"/>
      </g>
      <g id="Group_62410" data-name="Group 62410" transform="translate(4.423 32.868)">
        <path id="Path_21712" data-name="Path 21712" d="M5.838,2.528c.4,3.279.221,6.584.475,9.867.184,2.377.282,4.759.6,7.134A91.72,91.72,0,0,0,9.258,32.071c.348,1.245.734,2.479,1.2,3.7.508-1.714.294-3.5.758-5.185,1.436,1.1,1.779.151,1.888-1.273.487,1.095-.073,2.095.468,2.949a53.414,53.414,0,0,1-.758,6.812c-.718.177-.207.84-.515,1.252-.553-.7-.155-1.812-1.08-2.344-.191-.108-.247-.584-.631-.577s-.494.318-.614.636a1.648,1.648,0,0,0,.007,1.495,1.266,1.266,0,0,1-.1,1.655c-.141-.508-.306-.93-.847-.92A.109.109,0,0,1,9,40.116c-.068-.184.207-.447-.134-.567-.024.075-.049.151-.075.224A131.4,131.4,0,0,1,5.313,26.264c-.636-3.312-.8-6.69-1.568-9.973-.224-.958.092-2-.41-3.147l-.379,2.206c-.4-.2-.031-.732-.41-.982-.035.151-.028.3-.094.372-.242.275-.158-.031-.2-.12-.471-1.078-.365-2.333-1.012-3.352-.148-.233-.374-.661-.664-.461a.9.9,0,0,0-.447,1.022,2.7,2.7,0,0,1-.407,2.945A88.536,88.536,0,0,0-4.312,5.446c.756-.341.831-1.266,1.466-1.709l.014.019a1.337,1.337,0,0,0,.986,1.426l-.012-.012c.007.212.028.414.278.487A14.275,14.275,0,0,1-.106,8.229c.146.224.285.541.61.5.344-.047.3-.407.393-.659.217-.6-.106-1.271.28-1.836.052.617.106,1.231.158,1.848.219-1.205.937-2.408.031-3.606a45.794,45.794,0,0,1,1.087-5.63L2.559.033c.174-.57.275-.991.435-1.386.082-.2.118-.513.412-.513.12,0,.271.158.358.282.209.3,0,.419-.252.515-.214.08-.384.32-.28.464C4.094.583,1.97,1.711,3.178,2.883c-.753,1.419.5,2.912-.167,4.355-.188.4.193.7.57.756a.487.487,0,0,0,.56-.687c-.866-1.634.4-3.015.532-4.526A7.756,7.756,0,0,0,4.861.574,1.37,1.37,0,0,1,5.614-1.09.809.809,0,0,1,5.7-.351c-.534.32-.3.558.082.779L5.76.513c-.5.692-.685,1.372.078,2.015m6.388,32.191a3,3,0,0,0,.184-2.745,6.358,6.358,0,0,0-.184,2.745" transform="translate(4.312 1.867)" fill="#3a6bba"/>
      </g>
      <g id="Group_62411" data-name="Group 62411" transform="translate(31.351 37.471)">
        <path id="Path_21713" data-name="Path 21713" d="M.344,2C.231,1.449.151.888,0,.349c-.162-.574-.541-1.2.146-1.617a1.508,1.508,0,0,1,1.789.2c.459.372.878.586,1.222-.118.617-.3.852.214,1.1.565.407.567-.32.334-.447.551a.7.7,0,0,0-.134.652A8.629,8.629,0,0,1,4.1,4.111a2.022,2.022,0,0,0,.972,1.958c.019.346.035.692.054,1.038a.51.51,0,0,0,.144.643l.014.478c0,.094.009.191.012.287a7.478,7.478,0,0,1,.567,2.707c-.287.381.318,1.189-.064,1.118-.7-.132-1.276,1.431-1.949.12a1.288,1.288,0,0,0-.393.214c-.8.934-1.052.92-1.768-.2.784.094,1.175-.137.784-.949-.647.633-1.238.36-1.805-.075-.162-.122-.275-.346.014-.454.165-.061.426.066.546-.024.155-.118-.1-.252-.129-.379C.765,9.054.315,7.5,1.725,6.2a.745.745,0,0,0,.087-.909,6.19,6.19,0,0,1-.661-2.519c-.016-.111.108-.268-.16-.32C.464,2.352.471,2.324.344,2" transform="translate(0.254 1.477)" fill="#3051aa"/>
      </g>
      <g id="Group_62412" data-name="Group 62412" transform="translate(8 45.49)">
        <path id="Path_21714" data-name="Path 21714" d="M.264,2.311A2.707,2.707,0,0,0,.671-.636a.9.9,0,0,1,.45-1.019c.287-.2.513.226.661.461.647,1.017.544,2.271,1.012,3.349.04.089-.045.4.2.122.068-.078.059-.221.094-.374.379.252.012.784.41.984a3.156,3.156,0,0,1,.04,1.648l.028.247c.068.339.139.678.207,1.017-.6.08-.468.544-.487.923-.045.819.348,1.612.165,2.434-.457,2.024.7,3.947.37,5.974a.791.791,0,0,0,.817.859c-.188.165-.377.33-.565.5-.035.1-.075.209-.113.315,0,.287-.007.577-.012.864-.452.315-1.047.374-1.233,1.111-.148.577-.737-.075-1.113.08a1.749,1.749,0,0,1-.071-1.2c.377-.525.579-1.036-.132-1.464A68.967,68.967,0,0,0-.152,6.1a.711.711,0,0,1,.36-.934c.723-.238.579-.694.438-1.212C.5,3.413.389,2.86.264,2.311" transform="translate(0.195 1.707)" fill="#3051aa"/>
      </g>
      <g id="Group_62413" data-name="Group 62413" transform="translate(24.947 45.241)">
        <path id="Path_21715" data-name="Path 21715" d="M.135,5.357c.026-.118.052-.235.078-.351a16.638,16.638,0,0,0,.08-6.751A2.259,2.259,0,0,1-.094-2.964c.287-.137.306-.407.332-.673,0,0,.061-.056.059-.056.052-.082.1-.167.153-.252l.007-.012c.765.214,1.518.412,1.834,1.3.068.193.5.854.636-.064.035-.238.28-.242.478-.259.071,2.963.873,5.849.9,8.817.009,1.12.115,2.238.165,3.359.021.492.3,1.137-.393,1.342-.643.188-1.368.664-1.994-.1-.125-.151-.268-.287-.4-.431a4.691,4.691,0,0,0-1.217-2.1L.452,7.9c.111-.876.756-1.817-.318-2.544" transform="translate(0.1 3.957)" fill="#3051aa"/>
      </g>
      <g id="Group_62414" data-name="Group 62414" transform="translate(25.502 40.611)">
        <path id="Path_21716" data-name="Path 21716" d="M1.7,3.227c-.2.016-.443.021-.478.259-.137.918-.567.257-.636.064-.315-.892-1.069-1.09-1.836-1.3A7.624,7.624,0,0,0-.634-.784c.12-1.53.645-1.888,2.14-1.391A6.923,6.923,0,0,1,5.069.163c.461-.819-.137-1.53.125-2.21.125.325.12.353.647.457.266.052.144.209.16.32a6.225,6.225,0,0,0,.659,2.519.744.744,0,0,1-.085.909c-1.41,1.3-.96,2.85-.626,4.385.026.127.285.261.127.379-.12.089-.381-.038-.544.024-.29.108-.179.332-.016.454.567.435,1.16.709,1.805.075.393.812,0,1.043-.784.949.718,1.125.967,1.139,1.77.2A1.235,1.235,0,0,1,8.7,8.413c.673,1.311,1.245-.252,1.949-.12.381.071-.224-.737.061-1.118.6,1.761.3,2.168-1.549,2.038-.346-.026-.671-.148-.647.372.045.991-.687,1.3-1.4,1.3A1.324,1.324,0,0,1,5.757,9.51l.374.268a1.105,1.105,0,0,0-.254-1.4c-.082.327-.139.551-.193.774a7.427,7.427,0,0,1-.694-2.8c.563-.433.282-.871.174-1.445-.473.365.054.744-.318.958A22.777,22.777,0,0,0,3.212,1.853c-.162-.322-.306-.734-.723-.727-.539.009-.367.513-.452.831-.113.424-.228.847-.341,1.271" transform="translate(1.253 2.384)" fill="#3a6bba"/>
      </g>
      <g id="Group_62415" data-name="Group 62415" transform="translate(17.529 48.914)">
        <path id="Path_21717" data-name="Path 21717" d="M2.747,10.4c-.541-.852.019-1.855-.468-2.949C2.17,8.876,1.827,9.829.391,8.728c-.009-.148-.016-.3-.026-.443C.315,8.2.264,8.106.214,8.017c-1.158-.311-2.107-.833-2.243-2.189a.676.676,0,0,1,.24.007C-.607,6.416.386,5.771.367,4.4.334,2.074.553-.257-.071-2.571c-.282-1.05-.355-1.21-1.316-.574a3.13,3.13,0,0,1,.167-1.433l.059-.209a2.9,2.9,0,0,1,.068-.593C-.805-6.252-1.109-7.532.29-7.674A2.809,2.809,0,0,1,3-5.285c-.212.45-.96-.464-.986.365A1.57,1.57,0,0,1,.433-3.176c.377.48.864.12,1.248.475A1.163,1.163,0,0,0,.847-1.408a2.308,2.308,0,0,0,2,2.168c.49.047.337.483.548.683.038.188.075.374.113.56a4.1,4.1,0,0,1-.242,2.683A26.142,26.142,0,0,0,2.886,9.1c-.016.435-.092.869-.139,1.3M2.462,6.9c.075-.367.207-.61-.082-.793a.863.863,0,0,0,.082.793M-.2-5.36c-.066-.031-.146-.1-.193-.078s-.061.122-.092.188c.066.028.146.094.193.075s.061-.12.092-.186" transform="translate(2.029 7.683)" fill="#3051aa"/>
      </g>
      <g id="Group_62416" data-name="Group 62416" transform="translate(11.188 30.904)">
        <path id="Path_21718" data-name="Path 21718" d="M1.818,1.577a1.37,1.37,0,0,0-.753,1.664A7.756,7.756,0,0,1,.877,5.447C.75,6.958-.519,8.34.345,9.973a.486.486,0,0,1-.558.687c-.379-.059-.76-.351-.572-.756.668-1.443-.586-2.935.167-4.355C-1.826,4.376.3,3.248-.564,2.06c-.1-.141.066-.381.28-.464.252-.094.461-.217.252-.515C-.119.958-.27.8-.39.8c-.294,0-.33.313-.412.515-.158.4-.261.814-.435,1.384-.045-.5-.075-.843-.106-1.186.028-.36.035-.72.087-1.073C-1.145-.353-1.3-1.33.067-1.141c1.25.172,1.874.805,1.779,2-.019.238-.019.478-.028.716" transform="translate(1.343 1.165)" fill="#3051aa"/>
      </g>
      <g id="Group_62417" data-name="Group 62417" transform="translate(17.397 53.077)">
        <path id="Path_21719" data-name="Path 21719" d="M.446.216C1.406-.42,1.479-.26,1.761.79c.624,2.311.4,4.644.438,6.972C2.218,9.132,1.225,9.777.043,9.2A.676.676,0,0,0-.2,9.188,26.176,26.176,0,0,1,.446.216" transform="translate(0.329 0.159)" fill="#3a6bba"/>
      </g>
      <g id="Group_62418" data-name="Group 62418" transform="translate(34.761 36.125)">
        <path id="Path_21720" data-name="Path 21720" d="M1.1,5.113A2.02,2.02,0,0,1,.13,3.155,8.634,8.634,0,0,0-.294-.371.7.7,0,0,1-.16-1.023c.127-.214.854.019.447-.551-.252-.351-.487-.869-1.1-.563a4.533,4.533,0,0,1,5.19-1.248C5.035-3,5.4-3.153,5.683-3.777c-.059.657-.021,1.13-1.012,1.368-.539.132-1,.659-1.725.367-.148-.059-.151.32-.2.5C1.3-.312,1.342,1.427,1.177,3.087c-.066.671-.052,1.351-.075,2.027" transform="translate(0.814 3.777)" fill="#3a6bba"/>
      </g>
      <g id="Group_62419" data-name="Group 62419" transform="translate(22.826 54.556)">
        <path id="Path_21721" data-name="Path 21721" d="M0,3.869A4.1,4.1,0,0,0,.242,1.186c.69.179.81-.4.967-.805.417-1.066.767-2.158,1.146-3.239,1.071.727.428,1.669.318,2.544-.016.038-.035.073-.052.111.019-.035.04-.068.061-.1A4.718,4.718,0,0,1,3.9,1.8a.661.661,0,0,0-.866.417A2.987,2.987,0,0,1,0,3.869" transform="translate(0 2.858)" fill="#3a6bba"/>
      </g>
      <g id="Group_62420" data-name="Group 62420" transform="translate(19.99 51.313)">
        <path id="Path_21722" data-name="Path 21722" d="M1.7,3.869c-.212-.2-.059-.636-.546-.683a2.31,2.31,0,0,1-2-2.168A1.166,1.166,0,0,1-.011-.276C-.4-.629-.882-.269-1.259-.751A1.567,1.567,0,0,0,.323-2.493c.024-.829.772.085.984-.365C2.015-1.175,1.6.593,1.688,2.32c.026.515.012,1.033.016,1.549" transform="translate(1.259 2.858)" fill="#3a6bba"/>
      </g>
      <g id="Group_62421" data-name="Group 62421" transform="translate(0.069 34.442)">
        <path id="Path_21723" data-name="Path 21723" d="M3.347,2.318c-.636.443-.711,1.368-1.466,1.709a1.076,1.076,0,0,1-.478-.7c.727-.346.9-.784.292-1.426-.212-.224-.6-.445-.214-.894.231-.273-.127-.4-.33-.487S.772.5.716.751c-.089.384-.016,1.21-.537.9-.563-.332-1.608-.144-1.688-1.24-.061-.84-.4-.235-.636-.056a.453.453,0,0,1-.073-.1c-.245-.614-.468-1.273.111-1.779.48-.419,1.226-.059,1.511.137C.464-.65,1.747-.132,2.391,1.111c-.214.355.125.193.233.247q.364.48.723.96" transform="translate(2.472 1.713)" fill="#3051aa"/>
      </g>
      <g id="Group_62422" data-name="Group 62422" transform="translate(9.464 87.35)">
        <path id="Path_21724" data-name="Path 21724" d="M0,1.437A2.208,2.208,0,0,0,.558-.225C.52-.524.464-.91.887-1.03a.859.859,0,0,1,.934.4A10.339,10.339,0,0,1,3.076,2.334c.275-.264-.026-.737.341-.97l.007.045a5.569,5.569,0,0,0,.25,2.034C2.81,4.506,2.133,4.537,1.257,3.6A6.388,6.388,0,0,1,0,1.437" transform="translate(0 1.061)" fill="#3051aa"/>
      </g>
      <g id="Group_62423" data-name="Group 62423" transform="translate(17.748 72.143)">
        <path id="Path_21725" data-name="Path 21725" d="M.011,1.648c.539-.009.706.412.847.92A1.269,1.269,0,0,0,.957.913a1.66,1.66,0,0,1-.009-1.5c.122-.318.228-.628.617-.633S2-.751,2.193-.64c.927.532.527,1.648,1.08,2.342.311-.41-.2-1.073.518-1.25-.026.412-.052.824-.075,1.233-.019.082-.035.162-.052.245-.167.909-.372,1.808-1.549,1.848A1.874,1.874,0,0,1,.277,2.672,1.554,1.554,0,0,1,.011,1.648" transform="translate(0.008 1.217)" fill="#3051aa"/>
      </g>
      <g id="Group_62424" data-name="Group 62424" transform="translate(11.474 52.996)">
        <path id="Path_21726" data-name="Path 21726" d="M.78,5.861A.793.793,0,0,1-.039,5C.293,2.975-.863,1.054-.408-.972c.186-.819-.207-1.615-.165-2.434.021-.379-.106-.843.487-.923A36.2,36.2,0,0,1,1.065,4.514c-.019.454.082.956-.285,1.346" transform="translate(0.576 4.329)" fill="#3a6bba"/>
      </g>
      <g id="Group_62425" data-name="Group 62425" transform="translate(38.319 34.612)">
        <path id="Path_21727" data-name="Path 21727" d="M0,2.158c.052-.184.052-.563.2-.5.727.292,1.186-.238,1.725-.367.993-.24.956-.713,1.015-1.37a2.786,2.786,0,0,1,.487-1.514c.789.148.3.69.177.9-.65,1.153-.513,1.944.859,2.335.127.035.2.233.306.355a1.117,1.117,0,0,1-.252,1.584,1.522,1.522,0,0,1-1.881.064C2.222,3.283,1.8,2.925,1.41,2.542A1.354,1.354,0,0,0,0,2.158" transform="translate(0 1.594)" fill="#3051aa"/>
      </g>
      <g id="Group_62426" data-name="Group 62426" transform="translate(25.258 47.453)">
        <path id="Path_21728" data-name="Path 21728" d="M.047,0A16.6,16.6,0,0,1-.035,6.751,39.671,39.671,0,0,0,.047,0" transform="translate(0.035)" fill="#3a6bba"/>
      </g>
      <g id="Group_62427" data-name="Group 62427" transform="translate(9.911 39.209)">
        <path id="Path_21729" data-name="Path 21729" d="M.108,0C1.015,1.2.3,2.4.078,3.606c-.052-.617-.1-1.231-.158-1.848C-.016,1.172.045.586.108,0" transform="translate(0.08)" fill="#3051aa"/>
      </g>
      <g id="Group_62428" data-name="Group 62428" transform="translate(5.902 38.49)">
        <path id="Path_21730" data-name="Path 21730" d="M.567.822A1.34,1.34,0,0,1-.419-.607,2.547,2.547,0,0,1,.567.822" transform="translate(0.419 0.607)" fill="#3051aa"/>
      </g>
      <g id="Group_62429" data-name="Group 62429" transform="translate(14.06 35.248)">
        <path id="Path_21731" data-name="Path 21731" d="M.294,1.159C-.468.516-.28-.164.217-.856A7.136,7.136,0,0,1,.294,1.159" transform="translate(0.218 0.856)" fill="#3051aa"/>
      </g>
      <g id="Group_62430" data-name="Group 62430" transform="translate(12.883 89.82)">
        <path id="Path_21732" data-name="Path 21732" d="M.146,1.17A5.563,5.563,0,0,1-.1-.864c.068.68.544,1.309.25,2.034" transform="translate(0.108 0.864)" fill="#3a6bba"/>
      </g>
      <g id="Group_62431" data-name="Group 62431" transform="translate(32.437 51.374)">
        <path id="Path_21733" data-name="Path 21733" d="M0,.445.2-.329a1.1,1.1,0,0,1,.252,1.4C.325.98.2.89.075.8.049.683.026.563,0,.445" transform="translate(0 0.329)" fill="#3051aa"/>
      </g>
      <g id="Group_62432" data-name="Group 62432" transform="translate(31.601 47.904)">
        <path id="Path_21734" data-name="Path 21734" d="M0,.55C.372.335-.155-.044.318-.406.424.166.706.6.144,1.037.1.874.047.712,0,.55" transform="translate(0 0.406)" fill="#3051aa"/>
      </g>
      <g id="Group_62433" data-name="Group 62433" transform="translate(48.295 15.897)">
        <path id="Path_21735" data-name="Path 21735" d="M.255.743A1.544,1.544,0,0,1-.18-.292C-.244-.726.09-.485.279-.457c-.007.4-.016.8-.024,1.2" transform="translate(0.188 0.549)" fill="#3051aa"/>
      </g>
      <g id="Group_62434" data-name="Group 62434" transform="translate(14.122 34.385)">
        <path id="Path_21736" data-name="Path 21736" d="M.227.448C-.154.227-.39-.011.142-.331A.9.9,0,0,1,.227.448" transform="translate(0.168 0.331)" fill="#3051aa"/>
      </g>
      <g id="Group_62435" data-name="Group 62435" transform="translate(24.89 45.56)">
        <path id="Path_21737" data-name="Path 21737" d="M.226,0C.2.266.182.537-.106.673-.256.32-.124.108.226,0" transform="translate(0.167)" fill="#3a6bba"/>
      </g>
      <g id="Group_62436" data-name="Group 62436" transform="translate(36.68 46.055)">
        <path id="Path_21738" data-name="Path 21738" d="M.112.37A.51.51,0,0,1-.032-.273.547.547,0,0,1,.112.37" transform="translate(0.083 0.273)" fill="#3a6bba"/>
      </g>
      <g id="Group_62437" data-name="Group 62437" transform="translate(6.877 39.906)">
        <path id="Path_21739" data-name="Path 21739" d="M.16.28C-.09.207-.111,0-.118-.207A.476.476,0,0,1,.16.28" transform="translate(0.118 0.207)" fill="#3051aa"/>
      </g>
      <g id="Group_62438" data-name="Group 62438" transform="translate(17.522 74.285)">
        <path id="Path_21740" data-name="Path 21740" d="M0,.129C.026.053.049-.022.075-.1.417.023.141.289.209.472L0,.129" transform="translate(0 0.095)" fill="#3051aa"/>
      </g>
      <g id="Group_62439" data-name="Group 62439" transform="translate(12.153 63.681)">
        <path id="Path_21741" data-name="Path 21741" d="M0,.183.113-.135C.073-.029.038.077,0,.183" transform="translate(0 0.135)" fill="#3a6bba"/>
      </g>
      <g id="Group_62440" data-name="Group 62440" transform="translate(4.865 37.265)">
        <path id="Path_21742" data-name="Path 21742" d="M.174.142C.066.088-.273.253-.059-.105L.174.142" transform="translate(0.129 0.105)" fill="#3a6bba"/>
      </g>
      <g id="Group_62441" data-name="Group 62441" transform="translate(11.73 51.733)">
        <path id="Path_21743" data-name="Path 21743" d="M.018.142C.008.06,0-.023-.013-.105A1.014,1.014,0,0,1,.072.062c0,.021-.035.054-.054.08" transform="translate(0.013 0.105)" fill="#3a6bba"/>
      </g>
      <g id="Group_62442" data-name="Group 62442" transform="translate(18.315 51.808)">
        <path id="Path_21744" data-name="Path 21744" d="M.047,0-.011.209A.143.143,0,0,1,.047,0" transform="translate(0.035)" fill="#3a6bba"/>
      </g>
      <g id="Group_62443" data-name="Group 62443" transform="translate(36.889 47.175)">
        <path id="Path_21745" data-name="Path 21745" d="M.007.165C0,.069,0-.025-.005-.122a1.164,1.164,0,0,1,.059.2C.059.1.023.135.007.165" transform="translate(0.005 0.122)" fill="#3a6bba"/>
      </g>
      <g id="Group_62444" data-name="Group 62444" transform="translate(25.344 45.251)">
        <path id="Path_21746" data-name="Path 21746" d="M.088,0c-.052.085-.1.169-.153.254C-.013.169.036.085.088,0" transform="translate(0.065)" fill="#3a6bba"/>
      </g>
      <g id="Group_62445" data-name="Group 62445" transform="translate(19.771 64.613)">
        <path id="Path_21747" data-name="Path 21747" d="M0,0C.049.089.1.179.151.268.1.179.049.089,0,0" fill="#3a6bba"/>
      </g>
      <g id="Group_62446" data-name="Group 62446" transform="translate(48.442 21.26)">
        <path id="Path_21748" data-name="Path 21748" d="M.153,0C.064.073-.026.148-.113.221l.009,0C-.019.151.066.078.153,0Z" transform="translate(0.113)" fill="#3a6bba"/>
      </g>
      <g id="Group_62447" data-name="Group 62447" transform="translate(21.42 75.047)">
        <path id="Path_21749" data-name="Path 21749" d="M0,.139C.016.059.035-.023.052-.1A1.01,1.01,0,0,1,.087.081C.087.1.031.121,0,.139" transform="translate(0 0.103)" fill="#3a6bba"/>
      </g>
      <g id="Group_62448" data-name="Group 62448" transform="translate(36.148 2.062)">
        <path id="Path_21750" data-name="Path 21750" d="M5.714,9.687A13.869,13.869,0,0,1-1.1,7.556C-4.972,5-5.29-1.409-1.778-4.867A7.66,7.66,0,0,1,3.269-7.148,2.285,2.285,0,0,1,5.716-5.613a15.757,15.757,0,0,1,.9,6.647,57.28,57.28,0,0,1-.767,8.4c-.045.082-.087.167-.132.25" transform="translate(4.221 7.155)" fill="#fff"/>
      </g>
      <g id="Group_62449" data-name="Group 62449" transform="translate(45.581 18.293)">
        <path id="Path_21751" data-name="Path 21751" d="M.288.351C.333.268.376.184.42.1,1.148-.078,2,.906,2.659-.259c.1,1.069.647,1.973.254,2.971l-.254.219c-.224-.134-.544.876-.751-.108C1.8,2.295,1.322,2.53.964,2.785c-.57.4-.93.174-.911-.471S-.693.89.288.351" transform="translate(0.213 0.259)" fill="#3051aa"/>
      </g>
      <g id="Group_62450" data-name="Group 62450" transform="translate(2.653 39.229)">
        <path id="Path_21752" data-name="Path 21752" d="M.743.144a1.081,1.081,0,0,0,.478.7,88.324,88.324,0,0,1,4.037,9.326c.125.548.235,1.1.381,1.643.141.52.285.974-.438,1.212a.712.712,0,0,0-.36.934A68.967,68.967,0,0,1,6.39,24.056a2.924,2.924,0,0,0,.132,1.464,1.749,1.749,0,0,0,.071,1.2V44.763c-.459-.007-.541-.379-.636-.64C4.5,40.128,3.235,36.08,2.113,31.97c-.65-2.384-.772-4.861-1.6-7.189a37.425,37.425,0,0,0-.628-4.336c-.071-1.083-.113-2.168-.209-3.246a112.306,112.306,0,0,1,.2-16.166C-.1.775-.66-.68.743.144" transform="translate(0.549 0.106)" fill="#fff"/>
      </g>
      <g id="Group_62451" data-name="Group 62451" transform="translate(2.739 59.782)">
        <path id="Path_21753" data-name="Path 21753" d="M.2,0A37.947,37.947,0,0,1,.832,4.336C.7,4.267.462,4.216.446,4.126.232,2.975.044,1.82-.133.661-.175.384-.152.1.2,0" transform="translate(0.149)" fill="#3051aa"/>
      </g>
      <g id="Group_62452" data-name="Group 62452" transform="translate(20.908 66.711)">
        <path id="Path_21754" data-name="Path 21754" d="M.03,1.577A6.347,6.347,0,0,1,.214-1.165,2.99,2.99,0,0,1,.03,1.577" transform="translate(0.022 1.165)" fill="#3051aa"/>
      </g>
      <g id="Group_62453" data-name="Group 62453" transform="translate(9.562 63.392)">
        <path id="Path_21755" data-name="Path 21755" d="M.093.842A2.9,2.9,0,0,1-.041-.622C.672-.2.47.315.093.842" transform="translate(0.069 0.622)" fill="#3a6bba"/>
      </g>
      <g id="Group_62454" data-name="Group 62454" transform="translate(21.878 62.701)">
        <path id="Path_21756" data-name="Path 21756" d="M.082.456A.863.863,0,0,1,0-.337c.29.181.158.426.082.793" transform="translate(0.061 0.337)" fill="#3a6bba"/>
      </g>
      <g id="Group_62455" data-name="Group 62455" transform="translate(19.07 51.157)">
        <path id="Path_21757" data-name="Path 21757" d="M.164.045C.136.111.119.212.072.231S-.055.184-.121.156C-.09.09-.076-.011-.029-.03S.1.017.164.045" transform="translate(0.121 0.033)" fill="#3a6bba"/>
      </g>
      <g id="Group_62456" data-name="Group 62456" transform="translate(25.448 57.099)">
        <path id="Path_21758" data-name="Path 21758" d="M.035.005c-.021.033-.042.068-.061.1C-.01.071.009.034.026,0L.035.005" transform="translate(0.026 0.004)" fill="#3051aa"/>
      </g>
    </g>
  </g>
</svg>
