<svg xmlns="http://www.w3.org/2000/svg" xmlns:xlink="http://www.w3.org/1999/xlink" width="32" height="32" viewBox="0 0 32 32">
  <defs>
    <clipPath id="clip-path">
      <rect id="Rectangle_72109" data-name="Rectangle 72109" width="32" height="32" fill="#fff"/>
    </clipPath>
  </defs>
  <g id="Mask_Group_1" data-name="Mask Group 1" clip-path="url(#clip-path)">
    <path id="Instagram2" d="M6.123,0A6.132,6.132,0,0,0,0,6.126v8.751A6.132,6.132,0,0,0,6.126,21h8.751A6.132,6.132,0,0,0,21,14.874V6.123A6.132,6.132,0,0,0,14.874,0Zm10.5,3.5a.876.876,0,1,1-.876.876.876.876,0,0,1,.876-.876ZM10.5,5.25A5.25,5.25,0,1,1,5.25,10.5,5.256,5.256,0,0,1,10.5,5.25ZM10.5,7A3.5,3.5,0,1,0,14,10.5,3.5,3.5,0,0,0,10.5,7Z" transform="translate(6 6)" fill="#fff"/>
  </g>
</svg>
