<svg xmlns="http://www.w3.org/2000/svg" width="21" height="21" viewBox="0 0 21 21">
  <g id="Group_62138" data-name="Group 62138" transform="translate(19272 -13543)">
    <path id="linkedIn2" d="M2.541,0A2.5,2.5,0,0,1,5.085,2.527,2.494,2.494,0,0,1,2.544,5.056,2.492,2.492,0,0,1,0,2.529,2.5,2.5,0,0,1,2.541,0ZM7.395,7.007h4.241V8.946h.056A4.807,4.807,0,0,1,15.88,6.613c2.46,0,5.12,1.458,5.12,5.73V21H16.591V13.356c0-2.255-.96-2.951-2.2-2.951-1.308,0-2.59.984-2.59,3.007V21H7.395ZM.337,20.986H4.746V7H.337v13.99Z" transform="translate(-19272 13543)" fill="#fff" fill-rule="evenodd"/>
  </g>
</svg>
