<svg xmlns="http://www.w3.org/2000/svg" xmlns:xlink="http://www.w3.org/1999/xlink" width="158.304" height="32.142" viewBox="0 0 158.304 32.142">
  <defs>
    <clipPath id="clip-path">
      <rect id="Rectangle_72018" data-name="Rectangle 72018" width="158.304" height="32.142" transform="translate(0 0)" fill="none"/>
    </clipPath>
  </defs>
  <g id="Group_62257" data-name="Group 62257" transform="translate(0 0)">
    <rect id="Rectangle_72009" data-name="Rectangle 72009" width="4.38" height="4.378" transform="translate(0.011 0.35)" fill="#fff"/>
    <rect id="Rectangle_72010" data-name="Rectangle 72010" width="4.398" height="8.592" transform="translate(7.825 17.714)" fill="#fff"/>
    <rect id="Rectangle_72011" data-name="Rectangle 72011" width="4.398" height="19.45" transform="translate(0 6.851)" fill="#fff"/>
    <g id="Group_62256" data-name="Group 62256">
      <g id="Group_62255" data-name="Group 62255" clip-path="url(#clip-path)">
        <path id="Path_21659" data-name="Path 21659" d="M44.612,14.268a6.143,6.143,0,0,0-1.2-1.927A5.123,5.123,0,0,0,41.647,11.1a5.26,5.26,0,0,0-2.084-.431,5.474,5.474,0,0,0-2.1.414,5.138,5.138,0,0,0-1.74,1.2,5.7,5.7,0,0,0-1.185,1.928,7.233,7.233,0,0,0-.431,2.576,7.025,7.025,0,0,0,.431,2.539,5.676,5.676,0,0,0,1.185,1.928,5.338,5.338,0,0,0,1.74,1.224,5.27,5.27,0,0,0,5.947-1.242,6.2,6.2,0,0,0,1.2-1.927,6.7,6.7,0,0,0,.449-2.522,6.709,6.709,0,0,0-.449-2.523M44.99,26.3V23.133a9.84,9.84,0,0,1-2.608,2.522A6.8,6.8,0,0,1,38.519,26.7a8.545,8.545,0,0,1-3.272-.647,8.128,8.128,0,0,1-2.805-1.928,9.955,9.955,0,0,1-1.978-3.116,11.034,11.034,0,0,1-.753-4.216,11.339,11.339,0,0,1,.735-4.217,9.634,9.634,0,0,1,1.961-3.116A8.006,8.006,0,0,1,35.23,7.531a8.672,8.672,0,0,1,3.289-.651A6.969,6.969,0,0,1,42.4,7.888,10.675,10.675,0,0,1,44.99,10.23V0h4.4V26.3Z" fill="#fff"/>
        <path id="Path_21660" data-name="Path 21660" d="M65.51,15.457a7.406,7.406,0,0,0-.468-1.963,5.069,5.069,0,0,0-.972-1.585,4.636,4.636,0,0,0-1.462-1.064,4.526,4.526,0,0,0-1.927-.4,4.4,4.4,0,0,0-3.333,1.386,6.258,6.258,0,0,0-1.6,3.622Zm-7.858,6.466a5.416,5.416,0,0,0,3.6,1.242,6.4,6.4,0,0,0,2.813-.577,9.027,9.027,0,0,0,2.341-1.694l2.559,2.271a10.528,10.528,0,0,1-3.263,2.592,9.781,9.781,0,0,1-4.521.973,10.158,10.158,0,0,1-3.838-.721,9.214,9.214,0,0,1-5.173-5.133,10.525,10.525,0,0,1-.756-4.054,10.691,10.691,0,0,1,.686-3.855,9.691,9.691,0,0,1,1.928-3.152,9.27,9.27,0,0,1,2.936-2.143,8.751,8.751,0,0,1,3.747-.793,9.02,9.02,0,0,1,3.979.828,8.235,8.235,0,0,1,2.849,2.235,9.756,9.756,0,0,1,1.713,3.28,13.249,13.249,0,0,1,.575,3.929c0,.192-.007.386-.017.577s-.032.4-.053.612H55.781a5.728,5.728,0,0,0,1.875,3.587" fill="#fff"/>
        <path id="Path_21661" data-name="Path 21661" d="M86.86,13.688a5,5,0,0,0-1.207-1.662,5.429,5.429,0,0,0-1.782-1.054,6.2,6.2,0,0,0-2.145-.378,5.951,5.951,0,0,0-2.125.378,5.371,5.371,0,0,0-1.713,1.054,4.767,4.767,0,0,0-1.153,1.644,5.4,5.4,0,0,0-.414,2.148,5.212,5.212,0,0,0,.432,2.147,5.306,5.306,0,0,0,1.153,1.666A4.938,4.938,0,0,0,79.618,20.7a5.906,5.906,0,0,0,2.108.375,6.191,6.191,0,0,0,2.145-.375,5.233,5.233,0,0,0,2.989-2.717,4.89,4.89,0,0,0,.449-2.129,5.13,5.13,0,0,0-.449-2.166M88.933,29.8q-2.668,2.34-7.568,2.342a15.838,15.838,0,0,1-8.5-2.272l1.619-3.278a14.4,14.4,0,0,0,3.17,1.475,11.549,11.549,0,0,0,3.6.541,6.225,6.225,0,0,0,4.469-1.482,5.8,5.8,0,0,0,1.549-4.379V21.261A10.261,10.261,0,0,1,84.5,23.808a7.332,7.332,0,0,1-3.927.984,8.965,8.965,0,0,1-3.241-.595,8.213,8.213,0,0,1-2.756-1.747,8.545,8.545,0,0,1-1.928-2.812,9.412,9.412,0,0,1-.721-3.785,9.4,9.4,0,0,1,.721-3.781A8.629,8.629,0,0,1,74.573,9.26a8.379,8.379,0,0,1,2.775-1.765,8.8,8.8,0,0,1,3.225-.612,7.493,7.493,0,0,1,3.984.966,10.789,10.789,0,0,1,2.685,2.309V7.279H91.6V22.411q0,5.045-2.668,7.385" fill="#fff"/>
        <path id="Path_21662" data-name="Path 21662" d="M107.725,15.457a7.367,7.367,0,0,0-.467-1.963,5.088,5.088,0,0,0-.972-1.585,4.648,4.648,0,0,0-1.462-1.064,4.528,4.528,0,0,0-1.928-.4,4.4,4.4,0,0,0-3.333,1.386,6.256,6.256,0,0,0-1.6,3.622Zm-7.857,6.466a5.416,5.416,0,0,0,3.605,1.242,6.4,6.4,0,0,0,2.813-.577,9.027,9.027,0,0,0,2.341-1.694l2.559,2.271a10.527,10.527,0,0,1-3.263,2.592,9.778,9.778,0,0,1-4.521.973,10.167,10.167,0,0,1-3.839-.721,9.208,9.208,0,0,1-5.172-5.133,10.506,10.506,0,0,1-.756-4.054,10.691,10.691,0,0,1,.686-3.855,9.691,9.691,0,0,1,1.928-3.152,9.27,9.27,0,0,1,2.936-2.143,8.751,8.751,0,0,1,3.747-.793,9.026,9.026,0,0,1,3.979.828,8.235,8.235,0,0,1,2.849,2.235,9.754,9.754,0,0,1,1.712,3.28,13.217,13.217,0,0,1,.576,3.929c0,.192-.007.386-.017.577s-.032.4-.054.612H98a5.732,5.732,0,0,0,1.874,3.587" fill="#fff"/>
        <path id="Path_21663" data-name="Path 21663" d="M118.48,26.3h-4.4V7.279h4.4v2.986A10.888,10.888,0,0,1,119.5,8.974a6.7,6.7,0,0,1,2.911-1.818,6.768,6.768,0,0,1,1.995-.273,6.345,6.345,0,0,1,5,1.981,7.739,7.739,0,0,1,1.762,5.334V26.305h-4.4V15.524a5.048,5.048,0,0,0-1.054-3.434,3.754,3.754,0,0,0-2.982-1.2,4.01,4.01,0,0,0-3.072,1.242,4.836,4.836,0,0,0-1.177,3.466v10.71Z" fill="#fff"/>
        <path id="Path_21664" data-name="Path 21664" d="M147.112,15.457a7.406,7.406,0,0,0-.468-1.963,5.053,5.053,0,0,0-.973-1.585,4.632,4.632,0,0,0-1.461-1.064,4.526,4.526,0,0,0-1.927-.4,4.4,4.4,0,0,0-3.333,1.386,6.245,6.245,0,0,0-1.6,3.622Zm-7.858,6.466a5.416,5.416,0,0,0,3.6,1.242,6.4,6.4,0,0,0,2.812-.577,9.015,9.015,0,0,0,2.342-1.694l2.559,2.271a10.512,10.512,0,0,1-3.262,2.592,9.786,9.786,0,0,1-4.522.973,10.158,10.158,0,0,1-3.838-.721,9.214,9.214,0,0,1-5.173-5.133,10.525,10.525,0,0,1-.756-4.054,10.691,10.691,0,0,1,.686-3.855,9.705,9.705,0,0,1,1.927-3.152,9.285,9.285,0,0,1,2.937-2.143,8.751,8.751,0,0,1,3.747-.793,9.027,9.027,0,0,1,3.98.828,8.231,8.231,0,0,1,2.848,2.235,9.736,9.736,0,0,1,1.712,3.28,13.217,13.217,0,0,1,.576,3.929c0,.192-.006.386-.017.577s-.032.4-.053.612H137.383a5.742,5.742,0,0,0,1.875,3.587" fill="#fff"/>
        <rect id="Rectangle_72012" data-name="Rectangle 72012" width="4.398" height="15.114" transform="translate(22.939 11.188)" fill="#fff"/>
        <rect id="Rectangle_72013" data-name="Rectangle 72013" width="4.398" height="4.393" transform="translate(22.939 6.794)" fill="#fff"/>
        <rect id="Rectangle_72014" data-name="Rectangle 72014" width="8.516" height="4.393" transform="translate(7.825 13.317)" fill="#fff"/>
        <rect id="Rectangle_72015" data-name="Rectangle 72015" width="15.114" height="4.393" transform="translate(7.825 6.794)" fill="#fff"/>
        <rect id="Rectangle_72016" data-name="Rectangle 72016" width="4.398" height="8.592" transform="translate(16.345 17.714)" fill="#fff"/>
        <rect id="Rectangle_72017" data-name="Rectangle 72017" width="4.398" height="4.393" transform="translate(16.345 13.317)" fill="#fff"/>
        <path id="Path_21665" data-name="Path 21665" d="M155.382,5.341A2.925,2.925,0,1,0,158.3,8.266a2.929,2.929,0,0,0-2.922-2.925m0,5.454a2.529,2.529,0,1,1,2.526-2.529,2.529,2.529,0,0,1-2.526,2.529" fill="#fff"/>
        <path id="Path_21666" data-name="Path 21666" d="M156.692,9.533h-.758l-.456-.842a.288.288,0,0,0-.273-.145H155v.991h-.68V6.894h1.259a1.087,1.087,0,0,1,.722.209.744.744,0,0,1,.241.6.773.773,0,0,1-.634.786.529.529,0,0,1,.364.3l.422.751Zm-.9-1.578a.261.261,0,0,0,.1-.234.268.268,0,0,0-.1-.236.594.594,0,0,0-.329-.074h-.477v.615h.477a.6.6,0,0,0,.329-.071" fill="#fff"/>
      </g>
    </g>
  </g>
</svg>
