<svg xmlns="http://www.w3.org/2000/svg" width="23.209" height="21.001" viewBox="0 0 23.209 21.001">
  <g id="Group_62139" data-name="Group 62139" transform="translate(19236 -13543)">
    <path id="twitter2" d="M.719,21l8.318-9.514L.264.009C.3.006.329,0,.354,0H7.528A.146.146,0,0,1,7.66.069Q8.43,1.1,9.2,2.12l2.2,2.9L12.618,6.63l.063.08.468-.536,1.335-1.525L18.474.08a.2.2,0,0,1,.17-.08C19.761,0,20.878,0,22,0h.109L14.328,8.9l9.146,12.1c-.035,0-.06.006-.087.006l-6.995,0a.138.138,0,0,1-.126-.06l-3.78-4.95L10.77,13.749l-.069-.09-.675.773-2.367,2.7L4.713,20.505c-.13.15-.258.3-.39.444A.143.143,0,0,1,4.23,21H.719Zm18.528-2.13h.015l-.01-.019a.731.731,0,0,0-.048-.07l-1.868-2.472L14.6,12.69l-2.19-2.9L10.165,6.825Q9.121,5.448,8.077,4.073c-.513-.678-1.024-1.361-1.536-2.04l-.023-.012h-2.1l.063.09c.415.54.829,1.085,1.245,1.628L7.911,6.594,10.339,9.77l2.177,2.845,1.935,2.531q1.4,1.829,2.795,3.654a.171.171,0,0,0,.109.07c.63,0,1.26,0,1.89,0Z" transform="translate(-19236.264 13543)" fill="#fff"/>
  </g>
</svg>
