<svg xmlns="http://www.w3.org/2000/svg" width="21" height="14.661" viewBox="0 0 21 14.661">
  <path id="youtube2" d="M8.4,10.584V4.3l5.456,3.141ZM20.561,2.4A2.625,2.625,0,0,0,18.705.551C17.067.113,10.5.113,10.5.113s-6.567,0-8.2.438A2.625,2.625,0,0,0,.439,2.4,27.165,27.165,0,0,0,0,7.444a27.126,27.126,0,0,0,.44,5.04A2.622,2.622,0,0,0,2.3,14.336c1.638.438,8.2.438,8.2.438s6.567,0,8.2-.438a2.628,2.628,0,0,0,1.856-1.851A27.165,27.165,0,0,0,21,7.444,27.17,27.17,0,0,0,20.56,2.4Z" transform="translate(0 -0.113)" fill="#fff" fill-rule="evenodd"/>
</svg>
